<mxfile host="app.diagrams.net" modified="2024-02-28T03:47:22.776Z" agent="Mozilla/5.0 (Windows NT 10.0; Win64; x64) AppleWebKit/537.36 (KHTML, like Gecko) Chrome/121.0.0.0 Safari/537.36" etag="vPiUtESi-UyxA9EzcQLY" version="23.1.6" type="github">
  <diagram name="第 1 页" id="mmi6vfdZdzn55quBRGrR">
    <mxGraphModel dx="1050" dy="574" grid="1" gridSize="10" guides="1" tooltips="1" connect="1" arrows="1" fold="1" page="1" pageScale="1" pageWidth="827" pageHeight="1169" math="0" shadow="0">
      <root>
        <mxCell id="0" />
        <mxCell id="1" parent="0" />
        <mxCell id="nkzgsVoT-bIxv0UpaDIv-1" value="" style="shape=image;verticalLabelPosition=bottom;labelBackgroundColor=default;verticalAlign=top;aspect=fixed;imageAspect=0;image=data:image/png,iVBORw0KGgoAAAANSUhEUgAAAbkAAAHcCAYAAABLbdTBAAAAAXNSR0IArs4c6QAAAARnQU1BAACxjwv8YQUAAAAJcEhZcwAADsMAAA7DAcdvqGQAAOO/SURBVHhe7J0F3FTF14DHblEEFAVFLAxEVLBQBFux/qIYGNiF3RIidneimKhggp+oYIGiiAhiomArig128e0z7Hmd9+7cu7t37+Z7Hn9H9r2xce/cOXPOnHNmnjkpjKIoiqLUIPOm/1UURVGUmkOVnKIoilKzqJJTFEVRahZVcoqiKErNokpOURRFqVlUySmKoig1iyo5RVEUpWZJNE+Ot/rtt9/ML7/8Yv7880/z999/223zzjuvadGihf33jz/+MDNmzEifkck888xjll9+ebPAAguYf/75x3z++ef2PXxwbLNmzcwiiyxi/v33X/PFF1/Yc8JYZpllzBJLLGHf76uvvrLfJYxGjRqZpZde2r6eOXOm+fXXX+1rH4suuqj9HvDDDz+Yn376yb72seCCC9rfB7Nnzzbfffedfe1jvvnms9eN3/n777/b7xwG17Z58+b2unHduW5h8H7LLrusWXjhhXO6bk2aNDGLL764vW7cO+5tGEsttZQVyHbdFltsMdO0aVP7+vvvvzezZs2yr324143jOD4MrlvLli3ta9rj119/bV/74LrxvvPPP39O12255ZYzCy20kL1uHMu/YfDb+I1cty+//NL89ddf6T2Z0NZoc8D35XuHwb3gngDth3YUBt+VdgG0S9pnGO51475x/8Lguq2wwgr2HH4XbSgM97rl8kxz3XimuLa0t6jr1rhxY7Pkkkva1zwfPCdh8OzTB8C3335rfv75Z/vaB88G3xl+/PFHK2HQdnhOgb7vm2++sa99uH0hzxHtIgyuBfeOtp9vX8j70p7DkOuWS1/IcRwP/DZ+Yxh8Pn0LZLtu9FW0IeC70uZ5Xrg2SZKIkuNheOedd8zLL79sbwQPHg2IL80F5wEeNGiQvVCvvfaaOfXUU9NnZsKPvOSSS8xaa61lb9T+++8f2pHQuM466yzTpUsX2+kdddRRkQ/m4YcfbvbZZx/7AJ9yyinm3XffTe/JpFu3bubkk0+2jeCcc84xY8aMSe/JpEOHDvY7w3XXXWceeugh+9rHSiutZO644w77+sEHHzTXX3+9fe2DB3Lw4MH24Rw3bpw5++yz03syoeO7/PLLzeqrr27vAdctDBpX3759zeabb24fdq5LVOfXu3dv87///c/eU67J+++/n96Tye67726OO+44+1D269fPfu8wNtlkE3PBBRfY11deeaUZPny4fe1jlVVWsW0I7rvvPnPLLbfY1z5QAPfcc4/tVF944QV7/8LgAb7qqqvMyiuvbD788ENzyCGHpPdkwvvxXhtvvLFtZ4cddlikYj7xxBPNLrvsYo/hNe8fRo8ePcyRRx5pO3Tu84QJE9J7Mtliiy3MgAED7OtLL73UPPHEE/a1jzXWWMPcdNNN9vXdd99tbr/9dvvaB8rl/vvvt53M6NGjzfnnn5/ekwnXjbZLh/3ee+/ZZy8MFMbAgQPNhhtuaK9br169Qgc/fDZtbMcdd7QdJG3ps88+S+/NpGfPnvae0UnTF7z++uvpPZlstdVWpk+fPvb1hRdeaJ5++mn72sc666xjrr32Wvuaa8a1CwNlSJsE7gX3JAwGgNwPFMGUKVPM8ccfn96TCQqD79muXTuriA488MDQASbX7YwzzjDbbLONvW7HHHNMpALlHhxwwAF2UHD66afb7xLG9ttvb48B7uOzzz5rX/to3769ueKKK+zrm2++2banMGg7cl0nTpxon2kUNf1p27Zt7X76qkJJRGU+/vjj5txzzzVPPfWUefvtt+0NoUOkoxMdykhD/mVbmMgx8q/vGBE5xv3Xd5xIsY4N4jtGxIX39h0jIsfIv75jROQY+dd3jIgc4/7rO05EyOXYfN5XjgFe+44RccnlWPd7+I4RkWPkX98xInKM/Os7RkSOcf/1HScicGy295b3E3zHiATxHSMC7nv7jhEBOTbb95Vj3H99xyGQ67GIkM+xgu8YkSC+Y0Rc+B6+Y0TkGMF3jIhLtt8Hckw+1yKfYwXfMSJBfMeIuHz66adm6tSpZuzYsVZJnnTSSXbQ8uSTT0Z6NXJh/vS/ecFI/tVXX7WjKGCkMWzYMDsqYISHiY31hpLDCsMSweQGXDKM6MJg1Mfx8nqDDTbIuCACrhJx26Dx0f7ibvEhpjHntWnTxrpEwmjdunX61VwrIspE572EFVdcMfL3iQsEGM1FHcu1xFoFrmfUsYz6sOaA6xZ1LO8pbhvuC/cvyuUl7i7OW3PNNevujw8sIuDhWXXVVSPdIFgZAhZu1HcWdxDwfaKOpY2JywPvQdSxtAFpB/wbdSxtTFzYXLf11lsv0h0r95rrhmdCzvXB7weu22qrrWafnTDYL7Rq1SryO8v7Am7ZqGPFzQw8V1HH4nGhzQHtLupYLGB5b64bo/0wtyL3TdxdXG8sKpkK8MHzBpzHdZFO24d73WinUd/Zff5pe1HHiisP+K5Rx3KtuB6QrS90rxuvuW5hLkh+v1wn2hvXTZ5bH9JPch7PYZTFRP8nZLtueJIEPiPqWJmqAPQEf+MFpL/HGsXrN3nyZGs87bXXXmajjTaqe67zIS93JQ8e5ufQoUOtdj3vvPNMx44d7YN+77332guw9tpr206QjlY6aEVRFEUJg8Ewbv2PPvrITntNmjTJfPLJJ+m9c5Xr1VdfHTnADiNnJYf78YYbbrB+bBlNoOBkLkpRFEVRkgAj6sUXXzRDhgyxMQbMCW699dZ2HyorymIPkpOSw4S8+OKLrYsSMG132203s99++9VzcSiKoihKUmDh4bJk2grPIJHHBPcxVeZOd0SRVcnhisQtiQkJzBMRmYOSUxRFUZRSgDuTYBSCG5lrJtIzKgZDyDqLd+edd9YpOCYGzzzzTFVwiqKUBAJUforItVIaDrQFmSpjvo4UlqicZCGrksM3inuSaCryeMgRUhRFKSZE202ZMM481G9/M+yUbublUcND82WVhgHRo+QCSvQtuaQYYVGRyJDVXYnmHDVqlHVbkugbJ4RTURQlVz7/eLp56Z4rzGdjHzF//Do3tWW+BRcxK22+m+l8aB+zfIu5aQNKw4QCExSRIK0L44vke1KbwghVcuQpuEElHJZPRIvw1YxPzeTxT5ofvxhnfvzhC/PT91+Yf/7+0zRqvIJZcqnmZsll25k119vBrL7meukzFEVpiMyeNcuMu/9q8/bw28yvP35r5kkNqFttsKVZaNElzNSxj5s5//5jFm+6gulw4Jlmo249NUWpgYIuuvXWW23kJXTt2tVWCSL/2YdXyVEvjoxzknmJoHSTnXOB0jMTXxlp3nz+YvPVp69bpRbFvPPOZxo1WdmsvtExZvNtepkllpxbi05RlNqHKZFXnnjATLn3IjN75ue2P2jaei3T+ZA+ZpVNtrV/Tx8/2jx19SmpwfJHqV5rHrPi+luaTY4436zSZp1Yg2+luqGGJuXfqJSCdxFrjghMH/Od4ynsN3LkSFvzjzdgso9aebnywXsTzRN3HGReG3WR+fnHz1IN0pjFlmhiVlytk1m17bamzfq7mtXW3d4s22Ids+TSy5u//vwlJb+a336eaT6f+pT5YMpj5u/5m5rmLdZQ16ii1DCEh0958Wkz+pKjzbsjbjN//jrbNFqupdnysH5m+xMvN81WWdsqOJRY45armLbb7m0HzN989K75/tOp5v3RQ83sP/40zVZd1xafUBoOuCkxpqg/THUaqja5VZFcMiw5/qSAMgUzgTpilJPJBpN/r44dZsY82Nv89su3Zt75FjAtV9vMbNj5MLPSGluaJZZq7h1x/fHbLPP59FfMpBfvMFMnDzd//fGLmXf+hUz7LU8yXXc72/4YRVFqBwJI3p08wbxyz2Xm69dHmTmpvmPRpZqYdXfsaTrueYxZosl/pe+CcO7nb75iXhg00Hw25WXrwmy2+nqm4yHnmLU7dlYXZgOCyEqKdzMfF+aqhAwlR3Y5rkqqhVO/7oEHHoh8A0DBjXzoCjN59ABrlS3VdKWUghpg1tzgf2aBhXJTUnPm/GM+fvd58/zwc82n77+Y2jKPWXndvcyeR9wWWWNSUZTqgaCSl++7xnz03FBruS246OKmTeddzcZ79zZNV17LuiJzgXMnjbjDvHL/Nebnb78yCyy8qFl5655m8/1PNM1XyJ47pTQcMtyVLFVB5WfATZmLq3Lcs0PM+MdPM3//9YtZcbVNzV5HDzOt19rKzDf/gtZ6y03mNUs3a21Wb7eT+f23H83Xn71hvp/xppk1a7Zps9529hhFUaqb4Zefaj58+p6U9fa3WbnDVmaHk68wG/7viJT1NtfTk6vMv+BCZoW1O5pVN97O/PrDTPPNh++Y76a+Zj54+WnTfL3OZqll/iv+q9QuWHMs/fN///d/dmkhX5RlxqQXBTIlH4XK6dl4962XzbjHTk5ZcD/bebe9j3vUNGmeW7kVH4st2czsuN81ZsOuR6caszHvjLvJjHl67npYiqJUN3/9/pudp8c1uecFQ8xK7bdIDYbjrRmGsmu6chuza79BZuezbzILLdHI/PzlNDPzkw/SRyi1DkGSN954o3nsscfsqgU+MtyVlPBiwUSgIHOUoiMq6r6ruplPpj5nGi3TwhxwyiizzHL/LbVQCLg977t6F/PRu8+ZP/5awDz26jJm9m/RblMlO1TxZskXlmghapblK0jwp1ybohSbwafua754ebjZtOfJpssR4YvZ5ssfv8wydx69jbXotjprsFlouVXMK6+8Yt566y27ThmLA7OcVNQq40r+MNAgboJ0M1YKQF+wvA4LIstK98WExZ4PPfRQW1+ZEl++xW0zlBwrZotGJA+BNajCGPvMUDP67r3tnN0eRwwxa3Xont6TDD9996m5oW9b88dvP5uf51nDNGtzYOqiasRlXLDQedBpEEzYTp8+3a6oTkPdbrvt7ErBrBYu610pStKUQsmN/Gph894Pc2znS41D1kOjSgYDPFnXUkkG+hSSsulTPv74Y9unkGONWqEv2Xvvvc0OO+xQt9Zl0jBooVgzhZuJIXnwwQfTe/4jQ8kdffTRNiwTHn744dCFHnnz28/f1Mz45DWzytrbmh7HPmwWXDj5SMhnH+5rxow4zyyy2DKmx/FPpizF+K5QpT6E4DLKpYLA8OHD7WuWTyLwaNNNN1VlpyTOHaf3NF+Me6yoSu6ftruY9jvsbRe11VVSSgt9Cotqjx8/3jz++OO2mDKLVR9++OGmR48eRbHu/ve//1mLjgBF5uaCxDaLvp7xcUrBTTLzzju/6dD1qKIoOOjQ9ZjUey9pfvvlO/PF9HHprUoSMKplNfUjjjjCPProo9a3Te7Svvvua1eamDJlSvpIRUmGBReeu5p4Mem2czez5ZZbqoIrA/QprEp+yCGHmGHDhtlFtvl7wIABZs899zRjx461Vl4p8So5vgSCGyuM119+PHXMv2aJpVuYFVpvVHdO0rLo4suYldbYIvV6HvPhO0+bf//5O+MYlcKF/CIWJbzrrrvMRRddZKZNm2ZHXozGFCUpKNXla38qtSdMY5FjfdVVV5k77rjD/r3//vubW265pW41gaTg88LwKjmUGxJ14s9fvZg6Zo5ZvtUGZvFGy9Wdk7TMO9/8ZtV1SCGYY77/+n3z268/ZByjkpwwj4H5zwQuIzCsPJa0iGoLipIzqWbka3eFy7y2r/DvUymnoNwIbqPeJNYcWWusJkDgYlLwOWHEtuR++v7z1DHzmGWWW83+LeckLdC42Sqp1/OYP379yZYB8x2nkqw0b97cXHvttdZ12b9/f2vdKUrBpLoUX3srVFKdlc2d8+1TqQwhgpv1SPv162fuuecea9VRNrJQKOe14oorhi6gGntObtYPX9p/l1gqPPoyKRZvNHf9oD/+mG3++uNX+1opPkzk9unTx5xwwgnmyiuvrKv6rSiF8vefhXduSvXBtAhF/2+//Xbz4osvWqUnedlxofTkoEGDzHXXXZfeUp8MJceXYPIwW6jtn3/8kho8zTELLLiotfiKKXM/Y47595+/bK063zEqxRGKZB9zzDFml112sUvPM3GsKLFJuyv//fuvjLam0nCE9IKBAweae++919x8883W0osLOouFvcPqlmYoucMOO8yuzYNE5TYs2XgF++/PP82w/xaTn2fNtP8uuNDiZv4Fix+dpdSHxoPLkpI5FO+myoCiKEohMD930EEH2akQVr2JC8VLCJB76qmn0lvqk6HkCCnv3LmzlTDNCEsutXxK+85jZn3/RT2/azFk9g98xjw2lQCrzneMSnGF/BYmjEm6JCiFbYqSN0Wak1OpPsFLdOKJJ9plcs4991xbmCIOVOa67LLLzDXXXJPeUp8MJTdr1iybvY7wRcJYbJm1UmbnHPPFR6+av//6rc4MTVr4Dp9Oeyn1eo5ZfMllzUKLNMo4RqU0QhkwRl+33XabXWtQUfIm7a78cPxoM+3lp8ycf//NaGf5Cvw44xPz609zq/eoVI/gLWTx0w8++MCmL8WF9wojQ8lhOh555JFWUHhhtF5nJ/vvd199YGZ+8Y59XQz++fsPM+3NuasitFitk7XkygVVXqh0PWnSJPP888+bJ554wmbYP/300zbDHysnamBQ7TDyOvDAA+1rcl1q+bcqxWHFDbuaRZZcJqWUPjYP9zvA/N8lvc1PX3+W3ps/v836wYy5/QIz5ISdzY9ffGijLFGcSvWAJdetWzfrIaLGaNJkLLXz0EMPmU8+SY2Kfv3V1h0LW3F3qcbLmkljBtllcRZedCnTeq2t03uS5cN3RptXn7nezDvfgmbTHc4yjZZZMb2ndKDsqef53HPPmcmTJ5sPP/zQKjtuCMLae1g21G2jhA2jEyqHyGillsBt+fPPP9sQYPzpuiKzkg8rrr6OabHZLuaXrz8x33z0jpk5bYp57/nHUopvadO0de7ryf3z15/mjZH3mscGHmo+ePEJ8+dvP5tlWrUxXY69yLTeaFubdK5UB/SRyy23nBk8eLCtNYrSywfWPCXnjmBJIjeDxG4Jiy66mGm13gGp0byxyu7rz99M70kOoilHDT3NfsZyK61vmq+0QXpPaUBRvfTSS9aMxlKjPhq12Qh5xYoJCoVKWYuPc4gYInKIyiEsKltL7LTTTtaqpd6louRLy1atzZ4X3m+273+XWaL5yuanmZ+bERccae4/dQ/z7SdTU0eEewhQbtNfGWXuOLKreeLiY81PMz4xiy2zrFVue1/9pFllkx3MvDGX7ikG9AtU9+B5oT8R4W+2Fxo+XyusvfbadvWCoUOH2muTJLELNMOMLz8zQy7d1Mz+8XOz1obdzW6HDrYRkElAybBxIy8zo4adbuabfyGz88F3mVXW2SG9t7hwSYggZDE+XJCFgIuPuaxOnTpZC68WLDsezD322MOOvrDoFCUu330z04y+/RLzyTP3mr9S1thCiy1hNu15ill/14PNwkv8V3uScn4zpk42L955iZnOXF6qf1h4iaXNWtvubdbf4yiz6FJN0keWD54LBsEMhr/55hvbdxDbwMKeJD0zCGbASx9AZSG8IKyMQI1NnqVmzZrZ/naRRRaJDPqrVahzSd7cG2+8YT1iuZKtQHNBSg5GPnyZefX/zrT5a112H2A273ZWqmMvfN239994wjx4Yw/z5x8/m1XbdjPdDr7TzDdf8UdoNFTcjig43HJJwVIf2267rWnatGlNKLrLL7/c3HnnndZSpWyPosSFLmjyK2PMpLvONV++9aqZJ/XfCmt3MJ0P7WtWXG8z8+OXH5tXh15vpjw5xPz9x29mgUUWM6033t5s0P1o66Is9/PE1M7nn39u+w2mLYgSxFqTrjXb9+M4jkGxofCoNrTqqqvaKh5MDzBQbgiwesFuu+1ma10yiM6VbEouY06OgxiFwD777JN1zqVFq/XMN199bL794k3z+fRXrCW3/Mobpm5azBuTuuHT3nrKPH7nEeaX2d+ZJs3bmJ0Ous1GVZYCVkYn7yJJBQeM4pjrpAQNo7hqhwebtZuItmzcuHF6q6LkDx1885atzKpb7G7+XLCR+emjN813n75v3h8zwnz5zgQz7p7Lzcevj7F9w4rrdzZbHnWBabfLwWaxxs3S71AeZK6e/mLChAlW0bENN2QcGGDzXDHHT4f/3nvv2Tl/+gukFgbHUaDgH3nkEavsMQhyZdSoUXYgwIBg9913T2/9j4ItOfjmm6+t1fXVh2PmVp7e/GDTdY/zzWJL5OdC+OvP38xrz91kXhg+0Pz+6w9mkcWbmO5HPWKatcxvIjIuNC6WUY+KKi2UZZZZxt6IYqyrVEp4CLfffnsbEcW/ipIU0997yzxyyUnm16kvm/nSY2Usto77nGhaddjKLLBw+SKs6S7pHwhAQ2SB0GLCuo6rrbaaLXKMG6+WlR0F4bm++ax+wtQSbmB0D1ZwkETs4KZNlzX/O+I+s/I6O9vRyMQXbjW3n7+ZeX3MIKu4skEj+fCdZ8zdl21rA01QcEs1XdXsfvhQ07TFuumjiguTnaQFFFPBAT76MWPGJL7URKnB/cro6auvvkpvUZRkWKXNOuaPlTuZF2ctZRq3bms2P/wcs8fFD5vVNt+5rAqOjnTixInWTU9fgYus2AoOcH2++eabdv6bqh6s7l+rsIo7A+h8QLHhIfMpOMiw5AiTl2ALfJ3Zali6MLk6+tE+ZvzIK8y8qcHGvKn/LbH0Cma1dXe00rhpa7PYkqnOcb75zS+zvzGzvv/MfDz1efPexMfMtzPetY2Ic1ZcfUuz7b7XmSWWyn3ysVBYIBS3QykarZjjlMmqVphgZykeyn0dddRR6a2KkgxUwnj99dfNsAfuNwsvWn73PhbbiBEjzMcff2wH8rn0E1hcDATpfFGITFkI7MMqwx3pzt9lg/OYHthxxx1N69ata86qu+mmm+zqJ599lnvuJG5djBT6VV+fmqHkCoUGsHqrxc0eWy1jlljgW/P3X7lVG2eF8WWar2k23vY0s8q6O6VMz9JFF9HIcLsRBVUqiKZicrWa88zWWGMNc/rpp5vjjz8+vUVRkuHQQw+1c9jM+5Yz8IL+jOAqCj+gqPJRKkRTsxDx6quvbtOQXK8H70MeMsvPkHbEb80HChJvttlm1oWJO7NWlB39MBGW+fTF2QJPMloPHT6Tn0hcZv44v2m90Zlmj6MfNR23Odks27K9WXSJZmbBhZZIWXELmHnmnc8ssOBiZpHFlzFLN1vVtN30ILPzIfeYvU942qzefteSKjjAPC62mzIIIzgSyhVFyQTlgnIrp4LDs4Q1SWwClpxPkYR5ukgNoPNdb731Qn+DWHkMdkkz8r0/1klwO3NPBKJ88cUXVmqJYijrjKtPkctTTjnFShzfL18S43CelGW2QutNTKdu/cw+Jz5t9j1xtNmz9+Nmj6MeNv878iGz57EjrFLrecoLZpseV9scuHIVX546dWqdC6JUwpwclVNK/blJi6IUC197K5XI/BuRe1TTCO7HksJdT3UOlJW7Dwtu1113NSuvvHK97WGCQsT9SLWP4O9GCZJji8WHQsUq7N69u7V0sQRxWQbPqXaJQ9R5GUqOEHqiK5E4wRF8GIrOFZK5GzVpZZZbsb1ZcfXOplWbrqZ5qw1N42armQUXXiLj+FIKFhxRlb59SQgPA404uB1wXzC3FdxXTaIoxcLX3kohQEoACo44g+B+cl133nlnq3zIjWOgKvt43lnBRebLchWU2A477GCjrt3tRA42adLEKjSUGyk7zDuhSLHo3GN9wjG5HFdJEoeo88rnC6gQcBuiaIoBI7wNNtjAPhC+3Dgs5SSWf1cUJRkYpOOipBgEwQzBzpPoPxTOWmutZXPkgsvDME8t1l2+ELG8zTbb1PtMDA1SFVB0WHEoUbahXJnLI+KS+b4wueOOO6z49olQaYSgO4I9UNi1hvdOiNkYR6tyjpxfDcLcI64J375ChEa+0UYb2YlhXA6bbrpphluDz5YljapVFKVY+NpbsYWKJawqIhGPIsCAtUePHjbXlfl0wvrdYxjIbrnlllYRudvzEaw0lJn8jReoa9eude+JZUdN3CFDhphXXnnFBsUw7VGIEJ344osvWoVHgX68W/L55ZA4RJ3X4C25uBc1DJQ8jZ0UgU022cS6CoDFaHlIggOHfEJlFUUpHkT0UQzC511hoIoVJ0qBPDkUoQspAQxameN3BUXk8xZRISV4LOuqUc6LATF9BxGUUseR9AWiD/kOWHOuYkhC+I5vv/22zQOk6lUcI6cS8So5fpxYZPnCOXJ+NYiY5759+QqNkgZKtBRVtYP7seZwO8jfQMPlYXGPqyZRlGLha2/FEpQG7j/cj779WFDDhg2zVfIRFE3wOxKlLftdITpT0g9EYOzYsd7jJV+XuT8Gxyg8ojtRwHh/3PdJWgBFTU5gsT8rTPKFgtakDyA+Grwll9R8HBPHW2yxhY2qopq4D8KBuSEuPFSFrnSgKEp8UCi4HrGiouA4iYYOg/1BCTte3i/seOb98ArxN+5EFF2pIDXhrbfeivytlcJZZ51lzj//fNOvX7/0lvo0+Dk5CjH7tuciwOihffv21npbf/31Y/njGQFK4642UZRi4WtvxRDclC+//HJRXIBxhXQBIjR5jXLDRRo8pphCnAIBL8G5yVJIvuA1ow/G6vWRoeSwRliKHIlTjYMv6ZqelSx8V0xz375sgkXGRUW5MdlMqR3fcdmEkRouy2pNJVCUYuFrb0kLfcCkSZPq5qAqReh7pU/B00OuXvCYYgupVcVMrwqTfMHqJGAoLDE+Q8kRHivJ4NVccioXiCJCyeUDSgmLjetEyR5ck3HChYEbyqCClbYVRSk9WHFYLEELAgXTsmXLekIR4OB0A5DbFjzWFQJH8PAEYX7edzyfg0jQGnNjwe9HnlzwPN5PYPWY4H6WsgH6HQJp3H2+74g1l/Qq3cUAd2Xv3r2tzvKReO1K3o75KRbVRBFUMhRlfuaZZ6yr0IeMKlBiMgnMYoZhE5y5wMSyRFTy/szhEbVVjZATdMYZZ2jtSiVxDj74YBt9SO3KYsJcF32A2w0yuOfzSRVwodMnp0yCToBnmARtnoUwcPkRFUnwisB59I/0J2GIkiNvj0AQ9zsSub3VVlvV9VFA7hzfj/5sl112sfl6Lq+++qpNj6DW5eGHH15vuS9+G9/RjfbmvXv27FnS/om8vzi1K4ltwADJqXbloEGDDOuoIm7V7FpDwmV9Co6bS5AIyhpfL41x3333Neuuu25BCk5RlMoBFyADXVd58OyjHPDQoGRcQREEXWJYP5TjCh7riuTHBpE0gTDJRvB4V+HxOp/98h1937PayVByjBpeeOEFK3EiD7lIXMBKFxqrzw+PO4KoJlyI+++/v+nSpYs17WkEwWPjCErV/VsaX7WKohQLX3tLSgBLMZgyQMDHhhtuWG+bCAEgwblzPDyyCoBKMhKHqPO8k0mi0eN8IOfI+ZUqRFG988479l+UDMi+Vq1ame222866EWi87r4khERTec214qFy91ebKEqx8LW3JIWUAawzdxt5rsxtudtEqDUb3CYWX3B7klKKa1FJEoeo87xKjs5XlFW+cI6cX6lCzUj+Jehj++23t4pG9pG0ifKTv5MU3CMEu8jfKFEsR/eYahNFKRa+9paUEFBBRF7wcwhHD/Pa+Dw/bnGHYkk19KlJShyizosXFljlMNeGtYZbgklVN2IKJZTPpGc+4CJFgQpMlPqitRRFKS4848HIagadsnSNDwbALnSsuCuLTVzrJgnK+dlJ0SDdlTLhCwSYLL/88nX7sLaInnKPT0oIdJHXwOrgPFjuMdUmilIsfO0tKcH1GEz+5nmUCiNBASw5dxt9iASiuduTFl+hiDifKecIYfvLLXGIOq9BWnJBqPyN4gMuFhFXSVtzTHK7S9zzgDDvF9c8VxQlPqwiEOwY3dy0IMylBwsyM80h8/bFxNeBo6RZ6scV5hjlWApMBPeLexblTh/n7iPgkOpP1dgfnXDCCTbtICxPrkHOyQWFyWbcDvI3Lsvx48fbSWn3uLhCMif5OO5cHxPWJGC6x1WjKEqx8LW3pIR1JIPbWM8tuE2EqMpgf4DV51sQOWmRNCd3G4tbjxw50jzxxBN1wkKvchxKzN2HEGwH9EOsouDuozg10aPuZ4D7d6kkX4itYPqJSHgfGUquTZs2tqIHwkilIcDorUOHDnXWHLAyOuV+aNiFwOiPdAw3EZTPI/+u1ivKKEqlgtXiQudKlROUmU/EtSnwmqkOAlh8xwfFZzDwnr5jReQc37n0VfTPrvB9BF4H97tWKvl97j7+jqNgKgG8bsyXhhWwbtAVT1xQZk899VRdIVTgxrM8DgopzI0RBcn0LKfBe4qypCGxKCJRnW6jrEa04olSLIpd8eTiiy+28+8CzyX5sGHPJM8vA1W3eASuSjwy2ZQD51ADEsUlcA7eo7CBLhYiVUv4jHHjxtlKJS4UpmBRZheuF30Yn9e5c2fbz7gQE0AhapQaVUIoDSZwzuOPP56xIgoVT6KqsiRNnIonuCs5niC+G264Ib31PxKfk0NBcAOrTWjcm2++uZ18lm2MtHAzYspLJJZ7TpgAkZSU4sEipAHJPkaLfI6MnKpdFKVY+NpbUuJOHSCAEqOslU9kDs89B6WFYvEd7wp9ARafey4QyOI7nrkzvot8ntt/iKCgmO6QOpcIZchkP7Ur3X0IZbzYhxWIa9bdR/Adyg/kPcol+cL1Yg7SjXlwyVByjz76qLnpppus+FbIrWUYPbGitxsWTANjxV4WTMSPLVFZQWiQuCa50PjKH3nkkYzJbXz4VFKRQqmKopQH97msdKrpu1YiGUoOs5gin0gcJYcm5qZUowDJnTvvvHO9tAIE1yMRSBRYvuuuu8zw4cNtYVfm21jJF6V2xx132EEC1pu7DhNgweEiQIG671vtoijFwtfekpJq7qdqXeIQdV7i7spaAEvL54fmQuKioN4dC50SmEJEE0t1kFtHJRXcEr4L3rFjx5IkjiqKkp3gHDtKj21REnSl5XKOSPBckHzdoDB1wr9yDv2J73wlN7xKjguKxNGqckNqTaTR5SLSeN1t4P5dK6IoxcLX3pISguOC23bYYQcbLOcTlsRizkqOBbw+LJrsO94VPDjMkbmfhRAc4jseYdFq+TzfnFwtSxyizlNLzgNzbsHoHtaSI9KSBQZ5QIh6QplxcVFoRPZgAVIWiJXCWX5DQPFj5dFYFUUpP25kIfCMEpix2mqr2ajEoKy88sr2ORfkued59x3vilvsXeB8Akd8xyPu5/Hd4hgcyly8Sk4uahytyjlyfrUJuTMkTDLf5pbgwn1AY954443tqKxHjx52oURei3Tv3t1uZ8RHygHKEOQ9qCowatQoGwkkLs1aEEUpFr72lpQwRx7cJuHzwe2IeGbcbaQguKuKRAnnIkRVYwES0Uj6gO/YXIRBczAq0y07xpRKcD+5ZOyTdAh3H1GiUtFF3qNcEoeo8zLy5I4++mgbOAEPP/ywNbPzAWsFi6Za8uS44eSwkMvGvBrVToIWF2kFKLF8SvjQoB544IGMhWelkZNjxghP3CbVCL/h9NNP1zw5JXHIkyP0vlh5clQ0otKH++xR3o/n3LXYBPqEq6++up6Hh/7gwAMPtEFqUaA8yEFDsfLMYDHSDzB4xhuUDQLbSGUS6LLdKRGB7yj5uLLfhX0I5/DZ7rm8py9qvBx5cuTe5pMnd99999l+lvvBGqBBGqwlx0WcOHGijZbkQSJyEsVEI3CPw62x9dZbW/+4uz2b0JApN0NjdrcTuMIoiqhMbg6NnyAWqXBQbaIoxcLX3pISWQjZ3YY1E+ZloV9jwO9uQylgzbnbfELfwRwb0xh8LkWdJU/Wd3xQgtcCUGh8Pt9XhL/lGPoxdx8iCpD9wX3uueWWfNlnn33MoYce6lVwkGHJ9e/f30ybNs2+vvHGG62lkQ+8XaVWPOEmY5pT1y3oNgyDBorvnMhIhNEY82+MGtyREo0ORUWdShLHcX2QJ8e/0riCyCCC9+E98cUz98dnxBlglBqteKIUi2JXPGHkTy4wbj+B53Dfffe1y2/5oLgDA2OBZxTltcEGG6S3ZIf+gcRlXIv0P/QZKBj6D/oh/gX3+WdQzPEu9BVUPQke99JLL9n3YRkx5vVcKOD8xhtvWCtum222sXm7An0UA+/g8kPVUPFErh3XwmcZJ17Wiw+sJHclPw93ATeYUH/xW/vg5vP9paEFkQbFhWQkxr8yGuQcGq07WvIhijFM8fEdCFpZb731rN+e492GXEmou1IpFsV2V/K8PvTQQ3bu3QXlQMEG3zMXLK/FM05pLUr0+TpXgeNQbrhIUZLBKYw4bLLJJrZwhfs96ePwDvHbJDbA5ZVXXrFlvxigH3HEEfWmolC05PliBLjvud9++9lgnFIRx105YMAAO82EoXDeeeelt/5HdodwlULDQrkx18aDQtAHc29B5YMSwXKiIDWjsq5du9YtaR+EcxEUFBPONFyCVWi0uC1ckz8IShFXBSOoHXfc0ayzzjrW4g0+HLzH9OnTbVI5rkwe9DCFqChKPOjIsVCCyozqRmFKiLl5F87F8vE97wL7KBzMtMiYMWMSUXBKfbBOmW4ib9lHhpJjtELnimBK5ws3Xjr6cgquQn4DIxdKcTG6kX3AXNtaa61lFQ5RkfjLiaDEBUDkJAoP1yFBIrgsg7if5b6vC9FTKEwUKMVWmdTmMxkZMQrjc1kiAveIFGqV9xJlRyUVKqvwoLifVSmiKMXC196SEsCdRz/gbsd9SYS1u02EviDYv9G3RM2nM9AmWptyf779KpkSh6jzMpQc5iKuRiTOqIMPoyGUS7B6cAk89thj1vfN3+5+Gupmm21mFQ4KBt82E8HuMSgcRnlYXXvttZcVEkVxEaCkWrVqZefpiKoSwbXIQ4OFRgFmSoNxHgoTBco5ktwpgiXH+3EsSaW4F6SIKgI8QG+++aaNdJVFEd33KLcoSrHwtbckhVq1DDjdbUAVIzw17naEfiG45hx9JNacu80VrAv6IfDtV8mUOESdV1PuSlyG+MwJt3WX0QCUB8oGxYMfnYrdUX504MLh56Vho4xIBkcx4u9GSaKYEHnNdiw0SnihPAlU4cHIduNwjeIK4fuhFDlfltUXiPzEKmWpDOb+FEUpDJ4737qZLKhKkAlTHK4QmOF79ijcTpg/8uyzz9YFb2DFMeCOa50oyeDt5bkpYjHkC+fI+aUUGhRKgBw/d26MuTCUBkEwNGiUFrjn5iP8Ph4OAkR4OBA+g79FafrOy0V4b5Qxlibfl7wd93ryG5m8JoIKC9U9t1yiKMXC196SFgaXLBTtbmNqA5clz1lQZA7OFaLRGVgjotQQjpUEbJXcJQ5R59WEJccPJHKIZG75sSgHLLDdd9/ddOrUqV64bKXDdydClagtIr1kiX3gAcQFIkvZK4oSHwasDIJ5xlykw/VJEHefRF0DQWnB4xkMM9DGUyNCtKM83wya3X0I5wThfSUFQcQNUOO1uw+h7xAwBNx9YqHK96glaqLiCUEmfFcsHeBG4WsniVsst2qF20PQCWvUkQcjMJ9HeC8PQbnIJYWAh42HPpeHh2ODbuYgPPASpBMF1433yvX60CFFuYH5/rxX0LXlg3bIb8nls+lgCH8OPIb14LN5pnydnQvvQeg1bZ6OMxtYGdmW06LTlsU4o+Ba8zuY8/ZFJrtwfQjYcDvlIBJGXqwUAhf6LNyRDJSj7kM2OJcpCpKS8cgQqUnVI1e5rL322nbw6l5PnmuWNuN6MN1B8JvL2LFjrQfHhfsSvMcoLrmf7OMYF1FowKA/eE+JFne/K1RDCgFlFWnLPG//93//l976H1VvyXFTZP02gUAQGku1KzigITLQYC7QTcynQyH6spIhUIZ8J3JXsikvXDsHHXSQjWqNEuYsmRvJxqBBg6wVTyeTDdI1iH6lzYQJQUhUVZD6hmEwn3PIIYfYBw/PQhQoVpbu79Kli52PDRP2Dxw4MH1WOJSp4rsee+yxWZXXq6++ao/FNR4lpNQw1xQFgwMGOnhMBg8enN4azjnnnGPz0cgFDRNW4y8VDMIIKiMSOi6iHF3Fwbag0mSgQkSnK+68PYMoFJC7n21BhcQ1p/244t5z+sPgflFwQMBMcH9QwVULtDtWdKDClA+vJSeuMB5+RpD5wNuVsuIJN3bo0KF1FQFosASBrLjiivZvF24iioFqJ1GjyHLByIsITZLBg40aGGmS4iG3jBEWnXO5yFbx5MILLzQXXHCBfYiZnGcUGwYj2cMPPzyjU/CBorv99tvTf/lp166dVTJUo+CzoyBgiICBbGCh8D0ZiYfx3HPP2e9HJ3PZZZfZpNswGASgwHIZtTJ3xPFRHHfccVbJ0EmS5IwFFsZVV11l+vbtm/4rmhNPPNGce+656b8yocNEMWGdMbC466670nv8oDypOpQNFE8pLDmB9sKgyB0wC1ho0qfQRj/66CNrPbgwuOaZ5HvT5hl8017cZ5l2udtuu9XbRgL2nXfeaS0xBnK0WXc/KUTM97nPBlMxRHi7xzHwZX6Q44jmDt5/8oSpIkMfSSCd65Wgb6S8YDCivhyWXL4VT7IxX2pUdU76tYWERUbdWEHcjFxcQy5c4IsvvthaHuSZcROKKYxASASkgfA3vnU0Oh2SexzCg49bAvcAN7zShE6Ch4fkdHERBYXkdq4xr2mYdC7iDiy1XHfddXYUxeoMPlDarL7AqJ0BT5RlzYiV0G0ePAZWYUKqBoqD6NUoaA90QlhVdCxR8D0Z+HDdpXxbUBjl0zljbUbN72J1Y+2R+I/Sca3vILwPzxoDLjqsMGHgc9RRR9l7HQXfEUuSa83IlnYRBteRY3Ev0iGGCZHIvXv3ttcmDK4fn809POaYY2xnHwV5ofxmBkkEV/mE5xqXH7mkvrZXDKF9cc2CIf/Adu4/bZ22R78o5Q/lGL4vebe0c7YxjcLzKu+DMFjh97nbUE4kNPNcc024fu5++gQUIcg2+lYGW3wXET5XKrjQByLufqw/FDmuTAwB3KKyj5QplBzfxf1sjgnri4ohpEvhOUDRJUWGJcf8j5i1PNx8cD7Q8dJYSmXJiT9bTG0aCA+G7wFnlMZIptIh2ou8vOBvYPkMrFYZbdFYsX5ymScqBrnMyTEi4/vl4jrmd/lG0S64e9xAnDBo1ryfb+4hiBwbZd3zHnRsuVxrFCztMZdjOQ5vROAxrAcDtlwHm3y2DPCywWdHzUMCCixKWRaLYpf1CoPrQfqAz9LkecPyZtDGdaaEFkneAtecOABSjXhNpCWJ4O69YMCFK9vdhgLDAuc98czw/i5YckEXvZb1+o8bbrjBDor4Xb6+KKP1oqAYlSHuj80VzuGBLZWIL1n+ls7APUaEBuzbXmkS9j3pNOl05G8aJpPF7jGllmwwus1FwQEKCYshSrCMcmmXHINlkc+xfNcw4XNzHUygiHM9FgXChDm/PUzy8abw2bn8ZuCz6RiipBwKTvC1t2IL1w8LSYo0u/sYjJCHS6EJnlGKPnCNZD/9EBYZfRJ/M2iSfSJYS7fccks9YVqIZ5n9KLObb7653n48VcH3qWXJFyw/5qPduqIuGS0Yc5ZRDBJn3oovyUNWKmEE7v4tnWAtCh0nD5X8DcHfX2pRlGLha2+lEAYdzC2i6IL7UGS41G677TarmJhnln1A/8cx/M1+2SeCexoLFY+SiMQTsB8LJrifUmPB96lliUPUeRlKjslyTD4E/2wlQ4OiAbjaP2oOpNphlMnIXuB3Y8kpipIsWPbEJFCmD2vW7WOA+V5cqUyXhHWwwXOA90V5MgfGvwjzrgJzpLJfJN80LqU+Xl8ENweJo1U5R84vhYiSQ/hsSep0j6kV4feJEudvRowMRILHlVIUJS60H1x/RHST0hAk2NZKLSgk6soSXIUXxd0HuCwJLnGnS1zxbSeIiFgFhMU+EdJTmEdlv1RncoVISAi+V61KHKLO8yo5OlNRVvnCOXJ+sQV3Kv5v+ZvPxtJxj6k14cEDXoP7+8shihIXgtzIoSTY4IorrrDuPRdfeyu1MD1ApCoBIVhUvmPCxPcbsArxyLjiRoL79rPNfQ8RH1H7IJdzyy1xiDqvfLPKCcBIyU0yprG47rxSIQ2zFAQjC5mTU5RqhGeVkHzmwDp06FCyZyhf6FdwWxJpSMQif+dCXKskFwhgocoTC7+KUFuTPhGI7HT3IZKmQPQ8yfbuPoJfSCmpRaraXYklh5KTv3EpEInmHlOo8HtwIZDbAr5jCPknbQFXBH8DocKsTxc8tlChYxDXBlLp0ZWKEgbPKzEA5Hb5Qr997a1cAsyXkayNC1FyAYPH0V9IH1jMvhCF9NZbb9UTd806gleC+8nDZR/9JkrS3cc9EINB3qNcEoeo86rakiOnyrXkRAEkBe+FPx4h98UX1II7g1EeOYXy2TwA5NOQ60YuGZZeUvAbSSMQcFcG3TyKUskQTUgnTMfE80OycaVacUF4lgkGIY8PZcdAloG1KDcsKf4F+deFPgsF5QoRldJJ45mhxJ2731eiDeuXqieukP4ln0lfFdwvUx38Bq65u4+UMbdfEXy/odIgmZ15S/paH1VdoJnwWrc2YcuWLW2iZdgDc++999rRTC7wHlQ4YHkeFAlJlFTFCEIJLsKNeXAx+6VBUikCVwwKiJJRUqkkF3iImPD2KUcCbUh+l8hXGvuBBx5o/y01uSSDK4oL1UQItKBjpx1TG9NHuZLB8wWriAo3pBWQjM1At2fPnnZagRJ89BuuouCZDuZQ0mdKAQ76nWD/RYBLMJ2LvoXr6L43FVikMAZziMEKOSSDk0vGwIIiEsFkcEqL0ae678lvoT8qFXGSwbOR0YtyAUjeldI0lYzkjwhYOUl8ZxohJXFQcHwGiYY+BUeDlRBjBgbuiIsSVfjI2bfVVlvV5dMUCvcHEWjQrjWrKJUM5et4pujU6VCrHZQanhuqj1BCjkojkrzve95FobmCEhNQZsH9QQUHvDd9iyvu5/n2yzFR+2qRDCVH7TmK6iISjp8PXCgsllKIVBZAgO/LzXKPyVdQIERTMafGaIKlG8S1EhQsVubhOI7Cz+4+GiaVCiisCrgvpYaie1y+gksBq03+FiXnHlNKUZR8oPjwpZdeavr37289IFH42lulCqDcqFmKJcY2FGDwOGqGMo1BjUsRKQPGfgbN7j5EymoF36tWJV/woGEBUvLQR4aSwzTFzEVkjikf+JIyWiimgLjsZJtEHhYiVBonyARliQtC3Ju+Y7HOsPqoEhMsbIqggHgP3Agcx9xeEsVO3aouKFOUnLu/lKIo+UCfwnprrGyQbRDta2/VJCi74Daef2pTukLgGteF/Ux/MBBw91PUOfg+tSz5wjQUFWhwt/rIUHJk8uNjRuJo1VKCJSfwXWVitRCo+E3lfJQHYc1UH/CBxcdkJ+4EXJW+a4Wi5BgGDvi8X3755YzlOeLg/k6+p3sdFKXSYJBHQeBrr722nmuu1gnOrSnlIUPJDRgwwC4ngsSZ/EMT0+GXQlx3JQqFOTl3fxzhIZR127C+KNYqUTtyDBDRg9uQqt0yIHCF78MyFSx6yWvWNMN9iVIKHpuvyNyj/O1eh1KLomSDtf+GDBli16TLZx7O196qSWTu3LevGkTw7SumxCHqvAwlh2WC+6vSgxn4Ue6yLJj7wailuKCIKDPE2nq8L2vjSYAJMEJjfg13JIWs+deFc3A5oOB4L6IrfcfFhYfHNeu5Z4pSqRClTIg6y8Pgrmso0EdJn5ErPpdd8G/wbctGvuf4vks14r0D8uPiaFXOkfOLLbjt5DUWGG4RyRlzj4sjgOUlq0rjGxcLink7HlZyWIi6DJ5LzhwhvihhFByJlklcFyCPZurUqVZhyvYk5iLjiqJkY6eddrLPEukA+RRQ97W3ahdSjfASucK8vTzPBLAF94v1674PNTOZ/nCPI01JjvO9D1MxwMCb++HuGz9+fF20uisyV1hKiUPUed48uXfeece+ptQLEYT5wNvRkEuRJ0fpGtZfkp+AhUVyJgqJBMfgKCqfPDmBi0cgCg1AVudFgTFfh6WHhRa4hPYcXJWkFFBZILg/G748ORQmeTiTJk2yylWsQlI9yA1kcrrU4MYlp0Xz5JQgzD3T0fLsMDjMF/Lk6NwrPU8uCgLS6HNQKkJYZyx9RLb9QqHv49sf/AyiRZm2KmXfQpQkq4LnM1VG/8eC0rQzouGDVLUlR1CHG3lEY0IRkMQ+cuRI28hw5bnn5CtAYIkkSSIEpvDwYVGBezwCKD8UHAT35yqA5UbZnUceecQuDshI0L3GKBoUunteKUVRfJxwwgk2Wfnss89Ob8kfX3urJsFACEZYhpHr/lyPCyNqv+yT/XjK3EjuUkkcos7Lz2FcYWDFMF8mdeQErB4U0OOPP26GDRuWSESjC8oUi9CdEywGUsFg1KhRdUt6CNzUtm3b2tWJ8/X7K0qxYbDJcyIDvYYIFUWowlSN0L+Qn5frqv7lBEMHHRDUA4K3d8RSEGshXzhHzi+2AHNjVBlgcltKW8l+5umosIA15J5XLYKLFLMd5SbbgEKxzHNQEolgG/ecUoui+Lj55pvNWWedZa688sr0lvzxtbdqEvpC+iXmtXz7K1lQ0Ez7lLI/F8mXiy++2Nxwww12isxHhpLjR2EZVJN1wGiDWpHUWeNfTGwaFlLtVg7fn9+B2wO3JC4g5jpJYWC7olQKdFDibcDLwHxtWNHchkKrVq1slHW1PKv0/wyct95666qJhCXwrlGjRqFBTRkagInG0047zUqcCWMaOheqHMKPparIAQccYEvnoBC4WfkudlgpQhQnvwGhBNK+++5rA1okhaASRFGAICvy4Cj866vzGgdfe6s2YZBK2S6eYTcavFKlcePGZo899qirtVsOyRfymglAJErUR4aSI2qQBGjEt/RCJSPmLkqAESQ3CnFrPVYD8l0ZSclvQOHxwFTT71AaDoSnX3XVVbZ+4H333ZfeqgBWHB4mFl2lf+W5pk8iepE+Fi+NeJ18nX4+wnuI8J4I7+8Kn4lgscm/pD1RlJ6Sa9VmfV9yySXmnHPOMeeff356S30yUgiYv5LSO5iAXLh84O1KlUIQhMojsvqtD0Kaq6FiP9ePCeuwa88Dk29qRzHQFAJFILiLKvwESPHsMxdVCLWQQuCDvgmrl34W1y55vQToBOfd4yJ9hig9eS34tqMQ6esrIcikGCkEGUoOlwNRfXDdddeF+jnD4GaVaj25ICixESNG1MtLqTUYme21116hkUSlBCWn68kpAh03Ece4vAqlWtaTU5IlznpyKDkGWVjHOeXJERpP0jNSbcqCuTdZy6lWYd4xW/V2RSkFjI+ZD5FKGoykk1BwipIk3tBDMZtdMzdXOEfOL7Wg5FigFJ8383K1JkRX8vuYwPb9/nKI0nBh1E36DvP3Ug0oSXztTaX2JQ5R51V1Wa8o4l6sSibOoKOY6Jxcw+aaa64xffv2tYOup59+2gZIJUWtzskp0WhZrzzEjTKqFfH9znKL0nAh0OTqq682gwcPTlTBCb72plL7Eoeo87xKrhQQoEIdRipwUwuS8j9u5CNFiJnIDsJkNBW02a8oSvlg5Exe7bbbbpveoiilB88h0aGIj7LMyREJc+mll5pu3bqZ4447zuY3UAKIJO6HHnrIzJo1y5YFov6ke97kyZPtHADlrDj3448/rrdfpfSiNCx4PnfbbTf7b7Hvf7CtqTQMyZf+/fvbXLmBAwemt9Sn5O5KFBhL4TNnRwUPHhZWDbjrrrvMySefbBNJO3fubGuRBc+l2DIWH1Yg84ZPPfVUxjHVJqRrFLpSQjlFaTjgaeG5ZI1E/v3111/Te4qDr71FCbVeWbHDty8XYR7oxRdftP3M8OHDzSeffJJxDJ/x0ksv2blCYhZY6QRInaCQOsJK/cHzooTrKufy2ndMMYR+lOXCmMdiTst3TDkkX1ZeeWVb5nCVVVZJb6lPhpKj8C+Z+YgUPM4HvqSrlV3hol5//fVWObFMzmGHHWYjIkHqT9500012TTgaSvB8VtsmO5/PIFOf+njBY6pJvvvuO1s+jQfHt78aRGk4EOHLOoes8o2LMk7/kA++9hYl5MgyUM73eSJV6o477rCD61NPPdUqsAMPPNCWBGS+kX6L46jmwjEnnniifc2cZJcuXcwtt9xiPVEE2iHHHnusHQBwDu9LWa82bdrUyaBBg+o+mwEuyxHJuUcddVTd5xVbyIPu3r27rXJCf4+i8x1XaskXPHoYC5LKEsSr5A499FArNOokIdOfmw4oNd/7E/5/4YUXeouD4iZ54IEHbKN48skn7XL61QoPFiY2I09FqQYIfiKSlpXuUQZxRt3FAqVC38JCyqxynQ+33367/T10lhQ3ILqPzpaYAaZNfvzxR2vdHXnkkdZyQxGh1MjJxfqjP5LFURGsQQawwBQMSmTGjBl1ghIWiC144okn6s597LHHrJJLkueffz79qj5DhgyxSpbPY5VxqtVUIxgK3BPWMPSRoeQoM8MPR+JA4xCzMygkmiMcg7vx1VdftecEj8P0ZM4Npehu5yEjT4wfRQ04d181CY0Kt+xtt93m/f3VJErtwyiZpG/6Bu45g1OexWITbGtRQl8yYcIEW5KQqQ/+9R0XFDp2lgPC3Ui/JBWeUGDsp2YsfSG1Efn9cgyVh2SQTtH0Pffcs65WJJYbg3TO5zph+XKeiPv5HIfFKOdiKScZSY11g3Xr24cVh0eM13jRmjdvnnFMOSRfuC8iPjJa6o033mhHKQguw2JB8EmvXr2sXxtlFgQlF2dEwznUsHzvvffsit4kqfrePxs0bEZtvEe2RVf5TEZ7HI/yZt4Q098Hx2KNoqjjDiTiwkiReQYWtPQt+MpoWH4DUawcrzRsaAcEe7E48d13353eWlnQueEClP6CuS0pTZgNgtvIx3Np166dnZPDMmT6hHKBWHUu66yzjnVrYgVi5V122WXWMkKYr8zVlYuiJAhPzuXzkhpAML+H5R3Wj5900kn2NzAoYNDt857VAhlXk06dkH4kTDNGgSZ2Ry2uMFJo0aJFncbGdCfpE/83Jj6dvhzL0hQUeeU1HTJuA/zGjD4QRk6MLuV4hCU+uHGcy4PJDcbFich5CAnvuAxYnoF5QXffnXfeaRUBx1CVG5cooysmaN3PEkEpEN3DEiMoLr4X33vHHXe0D56MEBF+H3lFjKxQKFwDFCjXgM/mX64Jx+Cfl+/E78aVQmPlYerRo0fdPs7BZSKfwUriuEdkPzJ27Fj7e/v06WPXtuL7UTFezkE4hpqY++yzjzX9qWLBQCebn16pbWi/0oZdN1spCLa1MEGhMX0h/QrPFs8BSs93vCvBgAu28W/Hjh1tH0LMAMe4lqEcs/7669tEZEqZoawYCCC+ikRyrpzvClM3ci7KMbg/jjCwJ9owrN9CUKbMMdK/8Rt8x5RD4hB1nnfI4N6MfOEc94a6gguATll+DIK1MHLkyLoOW1YRcM+jAdFxcz6VFURY9VuOQQmwaCojKyw5lBW+bvy0uDE4fsqUKdY8Z7kJzqGz33zzzc0zzzxT957PPfecVY68N/CgcB7K0/08hLkJ1l5iEhoFwr98Jg8G1hD+fVyScjwWFIMH8ovk97PdXf6CRo6Fy4Ml32n06NFWwfHwsA8lLPvwt7sPIN+HaCPZj3BtqEzCCJO5Ah4AIqrkHOYTUG5Yv4xeuR8od6x6lD2dnBwbFKW2IQiMZ+raa6+1ba+U+NqbT3jGGEDLM4XgLWEA6TveFRSMe17YMbgSo47JJtk+IxdhACzRkPQJ9AO+9+N5JS2L57eQzxPBpUs/w+cy30mEvO+4KGHuEQubyFy8Xr5jROIQdV7xHesOfBEsHhRaEEZfuAgYPRF4Ehw10vkTmeQDi3PAgAE2jw7wkW+88cZWeRAFxgMAJJejeChHhMJgf/v27W3EpkDkJ5YfZjwWl4DLAqXmggXHdhTHpEmT7MhopZVWspGjgPKhTA03FagKgRJhBChQNo3oLNwFWKuywm3YKgO4FPiMMFCU/H4XlBifw2+SaFbmGoBr1q9fP9twWWh2zTXXtNeaRVp5sFF4dBhKwwWPBt6WSiwMjhuRqEqitt1kYBQC/UkY9Dc8hwxeXY455hg7+GVAymCZaROiJXmWBQJTOJeBLJ4cgvT4W4SBZrYpDuAzGNi75/J5wWkC+hYCWPCw8AzjzcHrQnwCQS9u0QwGxwzSuR7yPlwjeX88TfRZp5xySr3PJUo06LbFQ0QfR14yv5mgGL6DRJSiTAU+i20YDe77km7BlBTfFQ8Un89v5NqVCq+Sc0cc+cI5cr5PeFCY6OViyaSnKygEfNS4Eel4g+fLcSDbaNCMMGQfHbjsYzFAGj/bsYZQOrIPkfeSc7kxuAr5bgTAyHYsOtyh7rn8zT4eAB402e5OHKOseaDc8xDZH9zuStQx2c6X/QgNn7BnJrh5SLDqGEhwHA0TJc1xBPPI+ShTmVgPXjNXlNoDC4FBDp17qV2UAu2RZy6by5EBHEqJYA9c7G67v/XWW73nIAzgGNRtuOGG9c7hGWBgTD+F5wj3Pq5L95leb7317Ln0K3hN6K9QiCgPhOtHp+9+nvsZsm3VVVe1HiD6JTmXQBH3PKZkUA5Ybkx/MEBnDpCBNNYR3pmLLrqo7niULoEuDGrl83iO+b4ISohBP5Yev0k+l/Pox+R98Pb07t3bTmuwHc8Yg3C+A78PYwHDQqaYeC8UNgMieU/kkUcesVHkXEOuOdeFiHKUJsaJfJ4rcYg6ryiWHBeWxhkGlgo3hpEBjZML5MIXxoK44IILcvrR3BA3uMQdcfJdXCS0NwwmnaVzDxIcYWEBkYBIQ2c0x3elsYurs1KgE5BJZR5qGhhzowwoeIgEFDsDC8QdHdIoUdRKwwALiE71rrvuKluKC30EHahrQQWRQSvWF14ZrE3asIDnhXl3H3hvzjvvPDvF4cJ78Fyz4gffAW8OpcvooAWsKM4Vbwv9Tb6F7AU+A/HBb6cPpE/heSRnD5o0aVLnnQLJ5QNyiVkTdLnllrN/A9+P74uguHC/8vtRhmHgvaF/Bt6Tfo6+FG8Uf/N5KFg8XwLXCMXtgpKjPTGYxksn4Hb13Vvuqdt/5wL3XsRH4nNywAiHEaC8T5h06tTJWkD41FEuKDs+U4S5ALEyRGQfyDYaJJ227HPPQfm5IxS5WUGR/fnsY8KWOpq4E4i2wjrCFKdRRr0fkm0/EnVMtvNlP4IL0ncM3xMrT47DwuOeIJRbwwrGKubaouTcc3noOAe3r1JbELhFR0YgBN6McoBbnTYWbHeuMP+9wgorWPc8fzP1wCBO2jNC5wrBc11xj/ftF8l2TNR+2Zdtv7uNQbVr7RBb4O6X7QxKfb9R9ge3u+I7BjckFqPsow9AgbAPRSZBKig6rOXgnL2ch+A6RSnTt7upFPw2PHDueQh6I9fIVAGrEsWOVeyjKJYcDdRXQBk/bDBRk4tHhBKWGyMN16+OgsplJMlIiFJhuBeAc6TYM+a/fBceCEZlScJDyIiXaEoZsQTnxMqNzMMFCY6UaZAUzA4KDxcKz4URF41VlVztwdw3lhyj+XKFlRPwwryWdOBB6BtIaaDqiIzgCegiQM31DBHoQJpANYLFhUsQNyxuU6YceF5JeGeqpFjgZmS+UJB+FbCUUVoCfYPEHPhggJ0PuE2D1mA2GJDhEcTV7CNDyTESIqwUCXPbRYE2JjAiOH+FYDlQpzK4HUF7U1EA/zY3VzQ7F9A9TraDu515tCuuuMJeIBQbFQywErFOeFiYa+OhQNG554nI++azDysIVwkRnDyM+K8ZTUadI5Jtv5QvCzsm2/myP+oYPkNGaEhwPiBKZOV4OiOl+mEgSPScBB/QLoLTCKUERUvggxSPCAqDZaKGaYMoMhEsDQZ10qYZ7DJv53sPETkW8e0XyXZM1H7Zl21/cDv9sbgOUeL0NwSNYOXGfU9XfMcQZS3bkWAyOyL7GOQH75F7rrs92z4UOAOSsADDMAiswSoMmybKaMVMHpLdj+RrNgospknuCl/a/VEI1g4XJbgdoYES2cjErvxwN/gDke3gbuehxFeOpYa7jcaPQmUkQZIlET7BSWZX5H3z2cfkLQWm+Sxcl0yuyr6o90Oy7cdyijom2/myP+oYRmR0CHIcnUSUe8gVSbaNcmfxnkRvksPkzvEplQc5kaSR8PxXArjImVci5SbY9nCTMWDlGPoTXoswR8QgW9o0wrMfTP9xxT3Wt18k2zFR+2Vftv2+fbjwmAqhb8TCYhqHfq2Q9xTxHYP7UbYj7oBbxN2PSzVsn7s92z4GLRhCRMbnA25KDA3clj6KMlQjxwpFhukZhJwLom1wlfnANJZJXObpVlttNfs6G3TOzCPhOiQRlBwRJmQvvvhiG1UUd2I4DCxMIo4Egk/cyekoxL0CKEi56a6LIGwUjbLwuYLjgG8dxSxQ3YLoqSBY11xfFwJWeNBc93IQrALSReg8matE2fE7lcoD97P7b7lhkMeIfty4cfVC1YGKQkxJEO3HMx4UAiLc5x2v0uOPP57+q7rgGWK1Fvox+gqmQ+hriokb1BIEhYaFLdBPJeXSJr6BfibfmsRYcgxicrbkiFaiU/N1bLmCJqZhMgqTDlwEGHExMsGVENxP4+U8rEjm6PABu/tF64O7HZMe5cYN4MdiRbrCzWEE6J6D8D3ZLu+Lr1/2yWvZ545wUDaupUrSNYqdkSQ3S7bjxkQpyWej4IjKkv2SY0eBVB5aeX/cgHIMAwL2c2zfvn1twrzs43cx0pPzRGQ/wncI7pdjcBETzcRrthH1SieBixelx+iI++QmzfJ+uItwaUfBQ8k15DtyT1F25MmUMkdGyQ2q7HDfce1VAgwYKRbPnA8dvbQ9hBB6vDVuqpArDL5om9L+gb6B/sx3vBwnz0CYZDsmar/sy7bf3cZzQ9USqhEBsQtMxwTPyec9g+I7hiA6pqpkH0pE9tGP8UzLPr5PsFqK7EPc7VH76CsYiKDg3MjQXOE9wshQcoyciFpCgiOoXCHakeQ/3AR00O4Pw0WGxYUbi5uGS5GRFg156NChNqQXBYeVRM6FXAx8tVwE98JwPOYtx/C9uQH8jbuT0YUrjAoJYUWJ03g4hzk13sNVXmT2U9oMRUlOmft5KDByRAA/tdvg+HwsT7L6sV5kO5/Bw0pDlWtA3gsWkBxD8igT6FQXkWOwPmls7KcBEMqMa5DGxwMu5zLyxmXDv5yHoiVsV/YjDAD4TbyW9xdhrpLBhFRhQXkzj4nLh6WMUKwoOvccwn+5zriHo2jVqpXtNLEWUe78DgYDdED8Hub1+EylPMggBLCcePaKbSXkA30IFhnzUdJ28QRROIHIT7dNBoUAFBQl5yEMJHlGfcfKMQgeGt8xiBzDIC9qf9S+bPvdbfSJVGOSfVwLOTY4YAf3XPpQdz8Dcs4haIV/5TjZ756L0sI1Kvt41uX9OdcdNOOhIfDPPV/2Ie72qH0MfBkI03e6aSC5wnuEURR3JR0aHTnlsNxoSjpS5rHIQ2E0xjwAFgoNEoXH/BYVUVAm0ogBpUTEDxGUuCFFiGik8wYCPqImylFa5MygYDkX6GTpyBnByntSAQGlSxAGykm2I1ghuBTpHLgR+MZRRuSOkF8jiY8oCSoUMKLkd6BYScIUiAai82cej/lLbiy/3Q3iYDTDMbwvx5CgSrguobL4n+U7UW6JgYM0RHKDgt+b92AymYbuo1evXjZIh+NQ1CSacj9I7eB8NwCJTpHvRSQTvy8bKDQCGgjKkflVBhX8FjoxQpWjorOU4sDgk7kMBljBiOdKAUuNTpT2xmCL9ou7joEc80RRYBHgfRD4vXhKgu7YYLK7byqAY3jmhWA1Ezp+99nitXs8n+0ig2rguOC5vB+wz30fjAbuFf2O9HsCA0+ukeBO86CU6G8p/sw0g0yruEYMn0M/C+xnYEuQHqCA5DrxXjKtQl9Bn+wqmOD15Hjg97puTpB5ej6be8xAi/udOKkPr8dRRx01J9UxWUndzPTW/En92DmpDn5O6kvPSTXKOakfWFRJjfDm7LfffnNSim5O6qJHSsqqm5Mywb3voxItqVH0nJQCnjNy5Mj0nc6d1EBjzoUXXjhnlVVWmbP44ovXyTHHHDMn9YClj1JKAfdimWWWsdf/+OOPT2+tPFKd+ZzU4G9OanBq20lqcGmf4Y4dO85JDcDmpCy0eu2T5zpl/cwZMGBA3bEiqcH3nEMPPdSekxoUzhk6dOicTp061TsmNWCdkxpw2j4LSQ1c53Tp0qXeManB3ZzUwNX2OZ988smc/v3719vP5/Tt23dOaqBsv8uGG25Ybz/9T2pQafefeuqp9nh3f8oQsO/L+2+zzTb19jVr1mxOaqA7JzVAqdfXLb/88nOef/75uuswatQo+5y659KnT5s2bc6MGTPmpAbHc1IDhXr7UwprTkqh1b0H3zGlLOeklJ7VC/ydGvzaz00NcuekFG7dsamB6pzHH398zrrrrlvvPbm+KcVqr3VKadbbt/fee8+ZPHnynJSCntOyZcs5V199dfqu58fuu+9uf1vK6Elvqc88/C+t7yy4zGSUgCsxLMcqF3AvUp6LUTxWV7FgBMLohpEaLj6q9rtZ84xYmF+66667rOXIKIdVD9yRnpKdVGO2VjfuDEZebv5MPuB6ZlVirFdG1li7RMDGcVMo8cC6wJPC/C4WHRZ3pYL3h3qNeIDwmrjg8XBdrDzrzOsHrScXAiuYUpFat0HwCNGPpDpi6xkRCycIXiAsL9pzoBu14IHB6uS5CcKzw5SAL4ePz+Vc+l6mR/B6EMSHBwgvDVMveD+IbaA/4xow3RG8NsQGMFXBe+B5oV/kWCworpFYjC58J7duLi5TphhYrw8LFmuLWpbk7dEPCLyXa/G5MLXDfKgvqAkXLFVd+D30B0wt5QteJ74bLlq8RkGKquRwbREZhB+dTowLVAwIPaWjJFcCc1wKJAdhnpF8OlyWzEMpuUMjJvLy8ssvt5P4zJcWAi4KHkIeUgZA+SaAKoVD541SYBqhkqHjpJYmnSSDKzpNpfqhD2B6h+kcCtejPOOQTcnNdw4JcQ4cRDQNEA0Xd7QOzM0xIiGIhJEDnVnUvFlc8M/TYRJajIJm7odKHMwl0Tmj/AgIYcRArhz/FvK7GiIE5DDyJw+RubtC7yPn4/NnRWJ3RKgUD8azPAdYF8x3cQ+yzW1VAjzHzGkzp4Rlxfw0fYtS3WC5kRqBJ4EgNizYONDXE5NBVD/6JojXkpMQbyY6k8gvw21JAWM6SIoDx/0xUWA1UhqMXCwUHWY2Co6HmCg/XAs8HNTlK4airWUYPBB0g0IiGKXUI3/uI6IdW2HwHPIM8sgT3MWAr5pgoIUnBmGJGTcgSqkumC6i8AABiqxKU8w+OUPJYT5KEjd+cLRkEhAFiNFI/TVys7SBVj40DaIymVclTJiRV6ldRcx5sOI60bVYkHgDdC41HrjrUXJ0KETThtX6q1Roj7jMmZtj2SjqOhJZXIxBs1IceJ6J9OTeEQGLq7LQ55k8XgbBtANclkEylFyx4GNwE6LsCJ1nJBZnklEpDfjLKdKL5c1EPZ1LVAmvYoGbm0luAgkIbeY1OXayKK6SO3QEWENct0LnVMsFvwEPE65z2iVFKyQ1RalsmFslZYgAQCw4yc8tFNIdSFVAWVK/OEjJlBzQQAlAoWoHwSEoOiKCtIFWFkSDcZ9okMyF8G+5JvsZpRE5hhWC4gW8CyT2s2pCLrl6DR2uIXPQtfSckdSMV4j8UNoBwQe+UbxSflAx3C8UEINWlBLTV0lFU3PvKbqBwswpupJwURKngXmYpN2KfBzVP3BBERDCF+QHMxGulBci7VAmJNzisu7Vq5dNbM93EcOkoZPGvYbvnsADAVcVfn0SUosVuVvt4GLG2sHNi1VeS2ka9B9MrzAgY7CMKxY3ZrnbayHwDBKuT1oEBairGYwaCoIQOYleweLG1czAOck5uLKmEESBIsUfS0UNLgaRnLvssouNjtHAkNKCG4HyQUTBsn4cLkEqv5CXU0kuQUZrtBksSxmIAQvhUguVdbeU/8Dy5bkiGItBJB2NmwNVC/AbCWKgTVD1g4hdgstow5SsSyqmoFQwIKECEwqBsoLVprBJS2GFEkqooXCw3PACHXXUUTZgKKqge1xiKbmkoyujIJyZm0oHy4idRG1qMxISymiGhxJXS6WGOlMTj7XriN5MysdcTFBo5BtRtoxEVPIKJdFz0003tWtVcf0recRPYj8FhSkAwMgXCKKgE9d5uvpgmeMmovwc5eCkpFOtQUADzyJ1Lem3mKOh0yP/kkEQlj5/V/rvJweVZ5PvimVaDKWQNPQnJHvLYqsMRlErm222mVVsxGAUs1/M211ZaiUncJFwSZHHwyiADHg6MEYGWHpKMmAlIwwamKjFcsZ9gGval2NSyRD52b9/f6ukZTFJRUHhUc2EfgT3NoM5BnF0xpXel6Cc+f7Mn9L3VoNXC+VCX8JggjlyUlMYMJcq/zWWkiuFuzIKbjLFkylHQ9FRcuDYVokwcsQaAuYZpahppSINEn8/lnKpBjHFhPahyf3/wTwIAwDct6R+KNUDBYpxuxJ5/txzz9kcXyWaindXVjtYEITEAiNH3JaKUi6oVkSJO9xGuCdZj0ypHrp06WKXnGEe66WXXoq1tlpDI5sl57WFMZWRgP5TQtDrVfngnWCpJeZ9axnmnHBF0x7Vuq0+mJ6R/qRW50+Thvlm1r8LW6ZHwxiVmge3N4XCWTuNhwE3UK0OSJgHIQKVAAYsOUWpdajIRFsngtNHhpIjmof8I0RHErlBh4kw+lIqD6qlkOBOIBMuZaotsKitzD3XGkQUkheH+0apLmir9CUEnOjSU8mQoeTw4bOcBaKT1tmhQ6FBsj5VOa8XwRckbmOpUFBZ+Q/SUlhrkPlS7hUuS+abWZmcBGk3564aIaWCvDAKkBOwpVQvPMeAgaH1fXODlQyoohW2fFqGkiPPCJ9+pealVRqYyIMHD7aLE7LgYLnAKiEA5tlnn7XfRakPCcK4KckZa9mypVV2hJRff/31NtyZRVxlOf5qgzX5ZG0+yicp1Y14hHSOPzfGjx9vCwLQ/n1kKDnySyjiioStiKv8B5P7RPdQHaSckKNCVB01QflXyYSRMXUwadvUPZRSYFhyFPyt1jw7rDhqebKwKApbqV7cPD4GYkrhaApBDUGJI3z6hS5d0VCgnVNt55FHHrFJuFRooASWopQLcle//fZb6xWiJJaSHU0hKDJUUyBy7/zzz68rMVUu8OOrgssdrN6rrrrKrm/F6sS+ZToqFaxPFrAlp0qpLTSALX+irpnawwVChW1WXKaWIjXnlOqCOWhcfCz/gdKrFqi+TxHtvfbaq2KrASlKJeBVclhwiI4osoObi2tFxJ52NkqpINWHdoeLRp/T2kACn7iv1bZ6QrnhmoWhlpyi5AADGJbsp5D1yJEj7dxnOSH1gflDoml15YXaQwcuyaFzcglQDdcLi5OEaCUerEB9+eWXm6eeesrOwe63335mwoQJdauVlwIUKxPsROCJm1UXi60d6D8QVXD5wbqBHTt2tKsf+FBLrgHAOk+El1OVngr1Sv5QLotka5QLig1lR9g+aQesol5s+EzSHMj3YyVspfYgEVxSCKior+QGQWPMUeNp8ZGh5Li4rEaLaJ5GbUCiOMnCrK1F8jrLFyn5wXNBkBHRmKyZxWibZPJBgwbZElqs6MwKAMUCK46lr1hdgIVQldqDvGTxBmlJr+SY75wU6dcWSh9tvfXWdtRPqSo1naNhNWKWxCAQ4PDDDy/ZQoH5wNpUrFE1Y8YM63bjXyp3a23S/KAKULt27awFR/4ogwcW+2W1dSousOAv1VQo9ZY0WJAUHuB5ZKCi64zVHgyabr31VpuKRDvq2bNneo8SBYNPnj+8VLgug2Qkgyv5gVVEWS86tl122aVird833njDuiyxNhglsqL28ccfn96r5AuPDXUir7zySnP33XfX5UgyL8AK98WKjiMARkf5tQnPJpWTWACUuqoU41Cyk3cyOCP9jz/+2EqlLxVfCWAlMS9DYeRKdu9igeBSwyKgo+T16NGj03uVfMGiWnHFFW0C+TPPPGMtY1yanTp1Siwhn+fvoYceskvnyLOoCq52YeUX+hEWTFUrLjm8Zb1kCRLmAJZeemn7WqkNmKS99tprrSVCCSHuMXUvlcIhcCDJhUpxMTNKZT4OlwyvFUWpD88F1i+DzJzLeim589VXX1nXH0sTlTKcPC4oOZbYByq0YIVqakEyJL0SN0s3McdLEBgeA0VR8ser5BjlIxp0kp1bbrnFuqxOO+20qijrRUfM92WNNe4xLktcl9WgoGsBViknv07WDYtivfXWs8WjmePr3LlzequiKEECDsl6eJUcyg2JOlGZC3OYXCsi7Ii0qwZat25tFxokQpDvfuONN9q5H6W40Fa6d+9uI5f32Wcf6470zXsTzCQVVdZee21vxJiiKP8RZZCpu7KB0rVrV+uqlEAULFHy6JTiQQQmEXRcb4JVUHRHHHFE3Rw4UOx78803N4cddpgNKVcUpTDUXZkA1Xi9iAQ98sgj7aQt3x3rgQ73xx9/TB+hJA3RmLi311hjDXvNKbV2//33W8uOuVImz1944QWbmoCV98UXX6TPVBQlDHIKyRtlDT4fask1YFgpG7eluMPIpcO6K3fx4VqG0mAkrl500UVm+eWXtwMjcnxYqokcKf7eaaed7MrlxUgqryWoEKIoVCFibcXrr78+vaU+GUqOPBw6P0TJDTomhNF5tUHUHo2DHB1+A3NzzNFpjmTx4Nk65phjrLXGv3LtWRH6pptusonkvXv31oo0Efz40yxzzoMTdUCm2GcHzxT/+shQcswF9OvXz4quaZQdySMkR6NaBwbrrLOOLXDKAIcoy8suu8zOGSnFhbJ5F154oX3WKAsnD+n777+vg4wsPDLuXXPl63+aCW9PT2+pfrBMb7jhBnPGGWfYAY+SGxRLpzpMWE1XLetVIFSgx+VH0V4S6alvWI3QDJgXuuaaa+zfpBgMHTpUXWZFhnk55uTefPNNe627detmdt55Z7t0iOJn1qzZZrsbJ5vxM/4x/1t9ATP0yE1qopj8+PHj7b0nveS8884zxx13XHqPEkXeZb1IDGYUgaj+yw7h+DfffLM54YQTqlbBAVYEI0hq5vF62rRpNuKyWtIiqhXyFlu0aGFdk1z7gQMHqoLLwv9N+MC8NvNfMyfVTkd8+I+Z/F7l56fmAkFfkq9Kp63kTpirEjKUHO4TqukjjDKVhgOVNVgYlHJfQKI4KywoxYOBEZXnGcWj4JRoZs/+2Vw7+U/zd9qb++c/c8wFLxRviaNSgrtS3NQ8i0oyZCg5FBujCEQtuexg6VBAt1aUAXUsqaxPOSmCUlZYYYX0HiVJ6Mxk1M58HGkFuRR2piOk9mivXr1sukFDm7t7etJ0M/7z380C885j9mrXxKT+Mf83/U8z6d3qn5uTRVPpdzXoKD+idJXXkY3ph6iSyw6RiczF7bffflVR1isXSBSfOHGiTSlYa6210luVpGAqoEOHDqZNmzbmtddeS2/NDcqCERhEFCxLO1GtniT+hqDsfvvtN3PF6/+Yf808Zps1ljbX7rGaWa3pIub3lDV36Yu1M70S5XpT/OTlrlTygyWJAMuX0l61AlYcBYKV5GG+E6HMFyu25wMRmSznw0ifTp0KKSxyfNZZZ9m2WMsDU6y4lz+ebRaefx7Te/MVTLMlFjQnbLFCSuWlrLlpf5qJ79ROpCXR2koyeJUcDwqiI4rc0Oul5APJ9yR7H3DAATaaLh9I6yGXjqLaRGPS7ij/hUdhxx13tEnltRh+jmv3gldYmHaO2ax1I9N51Ub2t/fccFmz4tILmdl//GOufvHrqrZoGbhIH5LUmoQNBdpCGLqeXIGQzMvK0EAli3XXXde+VpRiM2PGDDNo0CBz++2327JsQCdJOsu5555rq6vUCk9NmGp2uPcrs2DKinvgwDXNrm2bpvcYc/ULn5sTHp1uGi8ynxm9//Km/Zqt03v+g5JpX375pf0XtydJ5FEdYzngHpIziULn/rF4aiVDWyM6GKuTggZU8CGMv9QQJElkKt+DdReDqJIrEFVySi7gmuQBxPraY4890luTYerUqba0Ec8rHTgQyELEZi3kj9Hpd71mghnz6R9mi5QV99SR65qFF/jvd/34619mvcsmmk+//8Mcuu4C5qaDNrbbmVd+9tlnbYDOp59+WrdSCAWyG1rATrHA+iRCGAVDABUDrC222MK60Mm1LQUzZ860bQSlu9xyy6W3/odXyb3zzjv2NVnkLMeihIOSu+uuu+zrcePGmbZt29rXiuJCegAuRqrKECjiexgLgahL1qmjJubzzz9vA1Kuu+66mnChPzH+XfO/oamOLPX6wYPWMrus02TuDocrU9bcKSlrbulF5zcnLT/VPPPwvfY6Y2lstNFGdm0+BhhECzPXjDuwFq5NOWGgwKCBeITPP//cVuqhDU6ePNmubrLppptat/wmm2ySPqM8ZCg5Rj0sBwK77rqrfSiVcE4++WRbWZ7rhCVX69GIWA1URqHDwKWi7SM3WG2ABx4XFOkmxSqZR8eDxcL710IYOsp7m2vGmxc+/ctsuOIS5qXj25v5yRsI8M3Pf5qOV05KWXO/mwU+GGV2WPBds+8+e9tV8LE0VKGVBtofBUVGjhxpPVzvvfeenSumsARrIxbDs8BgBvcz7d3nSctQckp+TJo0yVbu5+Kef/75NR8VhWIjhB2IDETZKblBRCVzF+odyZ0nX33X7DHsG/Pr33PMowevbXZtm2nFAd3Ypc99Zk4f8ZFZYkFjRh/exqzZTCMUywlu4eHDh9u8Tiw95s5QdkknulPWi7lW+t6cynqRkPjLL79YUbLTvn17W8yYBOpaV3DAyJiCzozOmGhWwuFZIqyfxVKBAUGlKLivvvrKTkvIHF4lwnW75pUfrYLboOXiptvay6T3ZIKltt8GzcwqyyxsZv9pzK3jvzX//Kvj93KCl4f558cee8wcf/zxZvDgwXYBABReKclQcoQgn3TSSVZqKe9LSQZWrR41apR1RTQEpV4Iffv2tYn1WPiV5DBBsTEV0blzZ5vGgPtUqq9UEs+/8aF54bO/zDxmjjm9a0tb3YTrGCbLL7mQOajjcvb4B9743nz0wx/e41RKK8yBEutBcBQFJlgRHxdjkvA5YWQoOSoqMIGI4A9XosEXzDwmc1UNBcKEdS4uO2PHjrU5a6+88kpFKRHaLKuPYymxTMlee+1lK97zzFcKfMcbJ/1srbj1WyxhdlizsbXWsknPDZuZFZfGmvvX3DL+G+8xKqUX5stIaWFxU/TKgQcemOjK93xGGMnPAjYwiKzcc889zd57753oTVOqH6IpsZSw6Ig2qxQI9Sa/jnBvwGODZc6SP1idzG+Um/FTPzNPT5vrSj25Swuz2IK5BdGslFJwB3Vc1r6+e+K35stZuqhqpYAiIvqcwgV4E4444oiSrHLiVXJiZkZpR2UuBJ5wwwgq0OUxFBdcu0y682+lwZwqbmeUGiXceN6JqmZtRPKc7rzzTmtNlQMCFq569Wfz+1//mg4tlzA7rjl3Lk76pSiBQzdubpZfckHza8qau/almd7jVMonzE3juiTd4PTTT08kZ5H3DcOr5MTEjDpR+Q+9XgrghiHhm6oVbgWSSoW5kt69e9ukceZM+Js2zJQF28kBReGUmgnvf2FGvP2TvXbHdFreNFpk/rpnLBdpsdRca4715u6Z9J359Mc/vMeplE823nhju6wbqTUEphQK7xmGuiuVxGBERudeLgug3Lz11lu2UDKjVNyB1QK5e1hwTz75pNlpp51sAjVMnz69LjK0VNCGrpzwi/krpWzbt1jc7BwRURnF0ZutYJouNr/56fd/zG0TdAHoSmS33XazieJ4OwoJciQAjjiBsJJi6q5MAL1ec2FUts0229i8wYbYqTRt2tS6YnD/kWZRbTBfcu+999p5ZuZL+vfvX7Sk9TAmTf/CDH/zWzNf6lE6arPlbQUTeb7ykeUbLWjdlvOkXt8/+XvzsUZaVpwwT01qAWUkKUkXl7PPPtu63WmvPtRdmQB6veZClQPmJocNG5aIn73aoGTU0KFDbcQic17VCFFwBKAQNEOKQam5YMz35s9U01lruUXN/9ZtUvdsxZHeW6xgFltoPvPVz3+bO177z32sUjlCuTWiLlkdP25MAwFU7dq1sxVVfGQoOZJ9yaFBdLmH7EgoPeVqaqEYbiFQ0YDO/ZxzzqmJklK5QvFfqqADNSlXX311+wAr+fHG1I/MyKk/2Xy4IzbFiissTWW5JeZaczBsyvfm0x810rLSoOQa6QQMjkm1iQNR7RRdIC3Gh5b1KhCqnRx55JG2rBdLnhCe3ZAh+KKSwuWLDff/4IMPNq1atTL33Xdfg6kCQ7dBztOrr75qV8VPwurreeNYM2TqP2a1ZouY8SeubxotXHg7+vj73836l020c3NnbLmcOaPLXKWnVA5U1yIFC1c/Fl2+xsL+++9v016Yk3vggQfSW/8j491ovLiaGqK7KQ5bbbWVzd7n4jZ0BQcNScEBFRxws5BIzXplDQVGzkTHodh3331329FQjDfumHniW++bER+nzk1ZwCd0bpGIggPy5g7eKKXYUt/rrte/M5//pNZcpYFyIm2FdCyKO+cLSpKFgxEfGUoOTYq7CdH6lbmByd3QOndlLocccog54YQTzHnnnWfnFxoKyy67rP29uKWx3gkDZ6qDIIB8axOiGK8c+5WZ9ecc03Kphcz+Gy5bb96mEJl33nnMYZs0N0svtoD5YtZf5t5JOjdXicJySFEux2zwHmFkKDnWAqIcEdJQQ8HzgXJNH374Yd3yRErDAuudteJQdg1poEPYNlVSLrnkErPSSivZbQyKWcOOBTP5N9fKKZPfnW6e/GxuV0R1k8UXSvY6rtZ0EbPv+nNX2caam/mzliusNAja4ln64IMP0luSw+v8ZGSFRGlHZS4sLLvllluaHj162DqFSu1DQeOjjjrKPPfcc+ktDRMUHcFGRJOyVh7LCNFvEAhw5plnmm7dutk5yygYJN740gzz/a9/m1aNU1Zch2Xr+p+kZG4gS3ObN/fFj3+aeyd/5z1OpXzSuHFjuwRP3PqpvEcY3pXByVsAcheWXnpp+1rxQ2FbqlwwIKDzq8b8qFJAjToiqFgSv5qjdnHNkcQ6ZswYu0AuC+Wqq3puJ8Pc9DXXXGNdl7KEz8orr2xee+210ILeb7w33Wx11wzz3W//mN3aLjPXVZn6L2n+SX2/y577zIz/ZLZZbvH5zfhj1yw4elNJDtoLgyK8ABdccEF6a25kW09OlVyBUPoItw3Q4flWpm3o0MRoV48//ridYGZQUM2rGJB0esMNN9glQ6hu0tBTR1woA0YoOHl2zz//vF1PjKhjn1cIK+7o218yt7wTL1ilEM7dZnlzwubLpf9Syg2BjlTbWX/99e1AKR/yXjQV6JQQdVfmhl6vaOjMcEOQSzZixIi8R2qVRp8+fezSSqyQrgquPgxeKEhNQQAsu5tuuin0uZj60Wfmgekpu41np8Ryw8szzU+//V337KqUV6SNxI3q5z3CSN3v+nsZcbNiMDDfpEv1R4MlRxkkGDdunC2NpGTCvM1BBx1kw3wXWmghW9sRt1+1MGvWLDtabNmypSq2BInqnIR267U3O2y/vTnr7LPSW5JBh6SVBYUkiNglaCkfmCZiFX6i3H0rfnifVrQqkksDVPR65cJ2221na1oSck7ULktsUNC4GqBIMcnOG264oRkyZEh6q5IE5EVJIWh5jjLEMNJPdVap/yUp3s9SKavEYbPNNrP5ymFLWmVYcixoR74CkCsXVtlZmYsGnuQO8zVUB5GlNahAfs8999jCxpUMUbMEmTBaJIpwwIAB6T1KIaDgiEomMIVO6qSTTjIdOnTIsJSpS7jDDjvYHLykwbPw+uuv2+WGiEWgjcbtbGsZ1ATFuok56NSpk2nTpk3i8+pYctzrfC05PCy4OWk3vhiSDCWn5AdzDyeffLJp3bq1fV3pHXa5IZ+QCWaqY9CZ4MIkSAFXQyXz4IMP2uhQVvpuKKW7is1XX31lR99ff/21/Zv17AhUYeC4yiqr2G1QDCVHt8ecIau2i7sLVMGFI6qCKSwq3DAoYcWNpIir5GgvDJiI2mYOOIhOLhQIkT3PPvusrT6vCi47XCPWj2LExUMjS7tU+lire/fu5owzzlAFlyCsY8cAZ4011rB/M+85ePBgOwhifTtZeLYYEDhEdCx5fO6aebRDFb8AgwACyPD4Eb9RzHuUK1TYoUh6zgWaSRuYMWOGfU0VB1lAUVGSgiaHYqMcFnlnjAwfeugh07Fjx/QR5WfmzJnmiiuusEmquCirOeWh0sEdjHJjBC/LreB6IqcSa4GSaTvvvHNilhxKjeWEqJUI5Dky34r1qJZcOLgEJ0yYUFeVhGtFcXruTxKrjsQNPMHQoN0wtZZznpxGV+YHHTUPpUbd5Q5zH1hGt9xyi/0bdy8WcZLuj0LgQaNqBw8y34tOUCkedEMUuCa9hMV3paQgnSedKxVmklJy5DiygjvgWcAqoe6mJvVnh6IOeGIYAHKPMIKInMbNWCjFUnIaXVkgJLyyWB8T6LhblNzAMurXr5+dxKatffTRR7Yjq5R6qSSlki6AK01qMyrFgzZA/UIUzujRo+0K86SaSN6U9EmFCnNvTC3Qt9EGL7/8chv5y5ywDFRVwoXgE6KkCSDjGlKphEEJr33XO1+JS9S5anoUCNYu7t1Ro0ZZv7CSOxRkZUS44oor2r8ZEZJgHTchNEk23XRTW6Sc+pQ611pa2rdvbxUR69Uxb0bHmhQ8qxRUB6wGAloE2t0nn3xSN13jIoXYffVpGZgRlCQL57qgBNjnWwZm9uzZdp+UQBNQGLyXpFa4sI/vwKAQb4gL+wji4TfwfV34bVjKzF8Fny+Ope/id/MeLnip+CwCxmQfg4NDDz3UzqmiXF5++eWMz6skvEqOH4MUolkbCjQ0rhU3OdhAlOywdD0uKkry8PDhCvG5HEoBrhjmaaR6Pq7TJDtYJXdwHe66667m5ptvtoMM6ZMKFdb/Q7nQtxEOT4ct+7j31E4k8IU0Kvc8rEtyJffcc8+6Dl+EtSSJEiWGgZUY3H1XX3213UcEtvQVCG2dyE72sS6few7HMW1ECTwUvbsPZdmzZ0/7XUjFcfcRrcrafl27drUDNHcfFYdQ6FitTEe5+yjDxu/melNc291HKT5cuSxqiqdKtrPUkgxOWbkGZeieF1fiEnWuuisTQK9XYRBUQBgw7hA6CeZeCO8uNeeff74NSKCKTXCUrJQXecYKFdyVKBieVeZw3H0U3cYSQsG9+eab9fYxL0uYOkEXBCW5+55++mk7QCItJpjUjnJkH8qVgbBs5zvwnrT3iRMn2u8j+7AMqYOLMiaHULYjKDmCP7D0UMruPpQvBRbkX3cfkYdYZPxLZKm7D4sRBcn3x6Jz93Es8118JpGUsp0VA5imcfs897y4Epeoc9VdqZQdGih+/m233db+TSdDRRSf+6eY0IHhOsItpUquNnE702DH6HbYQTehS9DdVyi+DjrsOxabXD+P45KIqEwCrEzyV/fbb7/0lvqouzIB9HoVDhP/uCpXXXVVey0ZVWNZ4QYpFeRmoWxxMeE+VSoHecaSEOBZ9e0L245E7QPfdiRqX9zPi/r+pd4X9fvylTjstddeplevXmbfffdNb6lPhpITXytSKZpaaRgst9xyNrqOtBUa/K233moDEIqNjMxZ+4yIT5biVxoeuMuBjjuYFymdOchxgrsvSNx9YXBOnPNc4p5f6OcWCwbCeF7CBsQZSo61skjURfC7KtGQH0KuCHleuvZe4VDPkjaIZYfyobZlsaw53helSqSY5IYqlYl07kkIMIgKbicIhCCX5s2b2+fa3UfwBf0h6SQMxtx9BG1g+ZNMTmkpdx9BIGwjwArFKdtRlHwe+5jb4m/ZR9unhqfsk+0In8NKJ8wnBvcRKMV3oB+itqS7j/QMqvXw2+ir3H2tWrWyRQ84l2PcfXhWCL4iEpX3dfchYn0Ft8eVOJx77rnmtNNOswNUH1q7skCYJKb2HQ2fhqwUDteU4uBPPPGEzZ07/PDDYz8AUTD3xjwggQTk/bAAqlJ5JFm7kpyuI444wnbOVNyhg3SRmqpSasyF4BHSXlAKLrwXwSMoEpSICxYGBaBRFsFCBwSkEOBC8W/XoOD9iGQkIpKC7yg7gX20V6Ig2efWfGUfgSMErNAXuZ44BozMOaNMUWauNcpgj0Eeio7f4D5rfP8pU6ZYz16TJk3q7eP6yYK4BK643zMOcWtX5r1oKqGn5H4hlZKYW8nQyBjlqYJLDq7pwIEDbfRZsRQckOez5ZZbWjcl/yqVCx14UgK0Kd8+lNvqq6/u3UfKAZZccDtssMEGdqAb3EcqBOXqUCDBfSgF9mEpuduBYtVU2cFLFNxHuyWX0E1/kH0oI7EM3X38Xn4Xyjb421GGWIcoOHD38f0pjICCC+5D5NkMbo8rcYk6N0PJ3XfffXbiHSG8VVHKAQ8eHUOxFBzQubDUPkno5AgplQvtICkBOkXfPpX8RJSLb18ciUvUuRlKDkSrFvKhDQVcGLi8iMoLVi5QKhNy8HAFAS4OmWNRKhfpk5IQ4H7jesQaqmRhsOf7DZUi8tz49sWRuESd61VySu7cfffdtqwNvmmSLZXKZty4cTYYgMoPzKMoDRciyamPWcmColMKw6vk0M5IIZq1oYD1xrVi8rZYUYBKclDRgqoXTM6XOtlciY/0SUkI0Lf59kUJ5xCI4dvnCv0AgR6+fbUmoiN8++JIXKLOVUtOqToIiJJ1x/KFEmIUgWbOmfp/ipIrDIyoFxlVjJh9Tz75pLeQs1IedE4uAfR6lQ4sZ4rd4m4cMWJEemvuEC122GGH2RJAun5Y9SDPWBICPKu+fVFCmD+5Yu+++64NyqNqP6sIEJrPa7bxN/NoRCP63qPWRPo83744EgcGq1tttZWNcveh7soE0OtVOsgRoiAuhWOJiswFit2SS8O8adJ1B5XSIM9YEgI8q7592YTVyqnMT04ly0RRio68riuvvNJuI/VK8tB859eaSJ/n2xdH4nD88cebPn362OA/HxlKjvwMRiuImzCoKJUAuTwk85IcTAJ3Ltx44422GjxLmmhajBIXLLbBgwfbhGuSsVkRgDk6BFcm21jL7d5777WrAOigtzLI0GJUFRg0aJAVFJ4SDatH05gZFOjaY8UHF+OJJ55oOxKSVHMB1yYJtCjGQqsyKOWBZywpAawG374wIWDpjjvusJ6EFi1a1BXwdo8hcZtkcZakoRwdCs/dX4si1pdvXxyJA7muDGCxrH1oWa8CwTJ48MEHbdUMFjlUKg+aOBFvzJWod6L6oNQT6/wlVdbryCOPtK+pWyqvo8DFzaCfxUEZzLIM1AsvvGBGjhyZPmIuzA3xPelsWdMN1ybrJNLu4kK79eXfokDpd7Ai8wXFtP/++9s6lUAfNmTIEKucg5DGQJV/qYbiQlkvFD8wJ5lEWS9qZMYp60UgGvU8fWW9MpQcJjmmN9C4CrlBilIueOhYDFJKIynVS7FqV+LGzkXJ4Z5kzo3UE0rObbPNNjb4hNqnriVDSS1Kfz3zzDP2WPYRJEVB5Lj4lBzbWDmc3xKXAw880FpAfEeUJUXKw+aru3fvbm666aZ6dTKhamtXcjO5MQhFQhWl2iCMe/fddzfdunWz6QKKUggM/GXFb9JX6EhRcEFQhgSliFJCaVARKWlQqBR3LgQ3DSIqJQL4PdUcsOX13XARERmlKOFQ5YRRFVFWcVwHSvLwQJLozcOL20ipfqRPSkKAvs23zycElPCvINuD+LZ//vnndduTEualzzjjDGt9kQqTr3AeEYnA+2GZslSN71iCu/gs3JbB74GIjvDtiyNxiTo3w11Jh40pDg8//LD1QSvh9O3b1yYW4w/GT0+lb6V84KZklIuPnlE01hy1KZXqpdzuSpbfwR0WHPTzHm4nD+4xbCO3jiVx4hI2JweBrjsvfL8ljOCxQtW6K5X8kMobTN7ih1fKB1b1brvtZhex5H4wYlUFp+QDnT3PNDVOcT/yNwEZdOJBIeLSfe3+Lds4l/fgb96TfwtRTi4ol7gSxHeMSLWj7soE0OtVfuiYGOnjhaCkEisNKLWDPGNJCPCs+vYht9xyi402JNgCRUUhbwoQ5CsUK5gwYYIN5JP3vPnmm21+ne9zq1Gkz/PtiyNxiTrXq+T44tIIlOzo9So/rAQhZb4IOunVq5d9rdQG8owlIcCzGraP8HzmdVFOiLsvXzgPDw8DL+aIseQIXpH3rHaRPs+3L47EgQWrWfSVFdZ9qLtSqQnIr9l8881Nhw4dzLnnnluXrKso+RK3sw3ivk+hHbkSzvnnn28D/y699NL0lvpkKDmiaJhARDRxNjcYzcjIUCkPJKtiyeEmatWqVXqrUivIM5aEAM+qb1+1CJYmKV4//fRTUQVLls/yfQdE+jzfvjhSDDK0GBn6F198sRUtU5Wdpk2b2htNCTRNOi4tRFGSePvxxx/bvylcoMULahOesaQE6FB9+6pBgChCIoeJOi2m8BlS2cX3XUQx+fbFkTgMHTrUVl6577770lvqk6HkKE+FfxPRDiM7hx9+uB0YUDuNa6eUDson7bHHHqZnz55auEBpMJCPS6dOmTECrIopkyZNsgE4YWkMlQBpIXfeeaetF+ojQ8kRpUauEVIs87GWoP7beeedZw444ABdn6zE4E5hMl8Sv5XaRdxZSQhgNfj2VYNgfBBkEdfyyQc+g1JllPTyfRf5Dr59cSQuUedmJINjlZD8CJiBSy21lH2tKJUGodgPPPCAXY2gffv26a1+mFd49dVX7Txzx44d01uVaoAE4VIVaKadHHvssfY1yoT+kJW+pUBGvrC2HMWQCY6QikgDBw40yyyzjH2djbBkcLaxnA8u+2IpO1QDsRkks/sCuaqlQHOGJcdF5WYghWjWhgIXl3qfBD3wgCjFhWtMHUFgzviQQw7JquCAgJSddtrJljB65JFH0luVaoGOPCkB+jbfPsTF/Tt4XDaJc06ugtJhsLblllva1Q+KIbz3RhttZJWH7zsgoiN8++JIXKLO1fDJAsFf3b9/f3PMMcfYihtK8cAlSQk18uAYXeeDDEB4KCk+PmXKFPu3okQhyrBQRBnIv0rp8Co5bkRSN7fWkeKt1E4rtDK4Eg0lkphgHjt2rLnrrrvymofr2rWrLfkFFG2mQK0Wb64epE9KQoC+LWyfTNEQLY34jstFgH8XWGABaw0BtSyZuw8eW60iOsK3L47EJepcr5Lji0sjULKj16s0UCx8zz33tHM0+OHzif6ls7rooots1DD36vXXXzd9+vSpc30qlY08Y0kI8Kz69iEEkXXq1MkuFkpgme+YfKRRo0Zmn332se/Jv7jZfcdVo0if59sXR+ISda66K5WqgRExy3488cQTNnUgX8hppPI8nQ4PJ4tFsuKzDk4Ugc6yTZs2VhlRPUesrkIg2InB1d57720DKzQ1K1maN29ui0H4Vi8HdVcmgF6v4kJU5PPPP29f00GQeB/3WhMOTfkfzqeGINbdmDFj0nuVSkWesSQEuP++fYjsB/6WFbGDx+Uich6471moMDXy4osv2ucirjz33HPmzTff9L5/rpLkb0LicMkll9jYCAIAfWQoOb40HYmONpRKALciUZG4Jx977LH01sLA5cm6ibR1cux69+5tPvvss/ReRanPqquuWteZu7BNxAfbi1FijiAqOnaei1133TW2MEe91VZb2dXMqxnmO3EBy7xnkAwlR/X2008/3YqW9coOE8k0ZnJEcKcpycNIOslBF+911llnmS5duth7R1kwFF0lV3Vo6IgySUIAq8G3zyebbbaZDadfaaWV6s2n4VFYccUVrTBfLNuZ/2XbJptsYvP7ZHtSQsAVCwIHraA4wgoJeEp8n5OL8B7g2xdH4vDSSy/Z8n5hHpmMZHAlP0gSPeecc2zCJEvIU+BaSRZWXMc9Q45bklVl3n//fdOjRw8zffp0+/dJJ51k00HiPmxKcSj3yuDA8SiXe++914wfP95uY3HeXXbZxb5+9tlnraeB45jTo9wffUGhbcmXDM5nkPSMqx2XeyE0adLEXHPNNdZazZeqXRmcKhK4cBDVf9lhLSOqbvTt21cVXILwcEv7IzGVTi7psmmrr7667SgYkQMPlyaKKz7oyAkgCSotmdphn7RXjmFboQouDN4XVyW5ou4irXHk4YcftlVZapkMJXfZZZfZxGaEZRYUpdQwoc4o+cQTT7TulGKCdcjn0CkxKj7zzDPtZLyixKVYys2Fz8B1Sk5fIYJrtRTft5xkKLmZM2faBGdEy1Rlhzwr3BQESCjJ8NBDD5mJEyfahG8SwIsJI3Dm43A7MRL/8ssvrdIr9ucq+cG9SUqAjt23TyU/EQXp2xdH4hJ1boaSU/KD0NUDDzzQ5sB8+umn6a1KIXTv3t3mE1HYljmDYkNgC+HHzKUAcy7MzUlBXUXx4XNfCrVuHVUTXiXHDZKRjhINwQtYvEy8Mo+pFA7RbJTuok5lqeY5GzdubAYPHlwXJcfaVLfddps+AxWC9ElJCHBfffuySbNmzezcsERQyvYWLVrYwAvc3ssuu2ydAqx1kefDty+OxCXqXLXklIqAMH5W9v3222/TW0oPEbIsfksqCAOXCy64wCpbRQEUF3PFRGcSs4C3Aehg11hjDev2Zh+ub5SdUhl4lRzaWUY6Snb0ehXOQQcdZMOuTznllPSW8kBKwWGHHWZfE5bM/JwWci4/8owlIcCz6tuXTbDi1l57bRuRKBGVCO9H4jcDJbwP7jm1LNLn+fbFkThQpk8CaXyouzIB9HoVjqQHyENTLvgeFEIg+Zfv8sEHH5i33347vVcpF/KMJSHAs+rbp5KfSJ/n2xdH4kCeMlkBLEzrQ92VSkVAJOWQIUNsYy03zMsRiELZo549e5oNNtggvUdRlEqDSjRY1mEl1DKU3M4772yjBRHfkudKfZi/YTSD60L98PFhSRPa3jLLLJPeUl54aKjmcO2119rSbUp5IGeRAhU8Y0kJYDWwqj+5kZUsRPj6fkOliFhfvn1xJA4sVk0AoFQuCpKh5KgswfwIohU8skPqAJPOLP1SjGKstQqRqFy7TTfdtGLdgbgudeBSHsjXPfXUU22gB69RSEnD+1JswBUU6i+//JKxHaE4Rti+WbNm2dJzYfsozRW2z7ed49nnS2MhKCosvYXSY1QL8hG1j+1hixDzWZWcM007Oeqoo2yZMR8ZSo4fRIKzLiaZGxtvvLF57bXXbLh5WBVsJZMPP/zQjBw50rz11lu2vJCiAJ07bmuKZ9988832b3fOJgkBrIbgdtKAWKHi0EMPtcrO3YeVQG1F5mvpG919kyZNspVzWBkAReHuYzkbKv2zbiHIdqCkFvsofgCyD4Vy6623mu22286eL9sR+mcigLt162YmT55cbx8KmMAtFnv95JNP6u0jeOqQQw6xv41CB+4+IpsJuKJ2K+/h7psyZYr1sAwYMMB+trsPEesruD2uxIHrJeIjQ8ndcMMNdmFKhButKMVgtdVWs/NdXbt2tQ+s0rChg5owYYLZd9997ahclj5ioVs8SuQxFhsqF6FUWHqGyvwud955p902dOhQq0Bcrr/+eqtwyK3E+nJh7UIUBa5v13BAGZKiwj7yM11XHYodhUkVJd7TBYuW/NFXXnnFLvrrwsCRz6EiPwsLu7BqAXVZkWBaDH+PHj3a/sagV4X6mC+//LJ121MNqBrJUHJTp061IxMkzLRV/oNrRAmqYMNXomGei87h0UcftQpPabjQefbp08dWk6ezReFRhYZ8MzplVn6WOZskBLAagtuxYgAFhDJx94n1xnfjtW+fu02EebVs+yC4T6ym4D4+X6xFd7sI2xGOyXcfhO2Tz/Xtg+D2uBKXqHMzlBzIxSjkQxsKJDBjzjO/hLtDCYdOhJFpta/EzXPBZLdWuCkMOnlckyzgyQoQP/30k91Orhnuf4SV3KU/SkqAe+jbF7YdidoHvu1I1L64nxf1/Uu9L+r35StxiTrXq+TcH6VEQ51DJqQx8zVpOJq77rrLVoogqIn8s2qFNcWYS6FzJkhAyR/cZ8wDUSXkvffes/0N1j2L2bImGNfWDXyTPikJAenbgvvYHtwmErXP914iUfvifl7YPraXel/U78tX4hJ1rlfJKbkjF7eQG9RQkGU9EF5XK7j0GdDQUauSyw/mrPr162eDKnBNYs2RfkNUNwuPEgtQivk3CN67li1b2u+Cq3TllVdOb53LCiusYP8lZSiYUuLu43wXUmMAhe3u4xnADQvB5W6I6JXC5MHnhM+gwgcEU7z4DBkYBL8jv0nSnIKVQdgH1N6UtRUF2cdnuoF1uGg///zz9F+VzXznkC7uwCiK+oFcdEZaha72WuswwcvkMdfr4IMPtsVZFT/t27e3C6BizZHAWa2QMkLnQxkyfpOSHZQZ869Y8QQzMOdEp8t8LIEUWHAEmbidvcBKHxy3xRZb2P2FCHNLLHLM96HAMgn/so/PIE9z9913t9GS7nm4TVEqvXr1Mh06dKi3j79RBscee6xdiNfdt8kmm9i2QtQjCk+289tJn0EZEQIvhcERUlc4j77k5JNPtspF9vEdKE7ASt5HH310nYJEeI+2bduajh07mv32288qRNnHZ7du3dpsv/32NkqUz5B9vNdyyy1n9tlnH/ud+G6yjxJmKDiCgXgt+xjksaI4Lnu+J9/F/bw4guua78H3ywfmbbmfXBt0VpB5UhZIPROEL/vuu+/a14S4cuGUcOiw7777bvuaxT55GJT/YLIady4jRB4QpWGBUsHiJex91KhRtj0A1hoh7SiGbH1Mu3btrKV39tlnp7fEh/B5Blosi0XnjcKl81Zyh3tKFCcKGPXB0likPBSaU4py414zP5sPBEliWaJkfdWJdE4uAfR6+eFhYJTO6JHRONdIaTgwyj/33HPt/Bo5kUQi0xGhsIYPH2769u2b8yBanrFCBeVKe+RZxXWK4iRPzHesSqbwTDOYv/zyy+19YeBKVCz/+o7PV+KAN4V85bDyexmWHMEBsvgnmlrdldEcf/zxNs+Fm8zNJzJMmQvRlDvttJPN92GNONwKwTkGpXYhuViSoGGttdayfQqpAW5QSTaStOSAfDIKcBPNSffHYrm4IXGVKdFgNaEjpAJNp06dbO7g4osvbv8uhLiW3Ndff20HUFiSvnuYoeSU/GAOkwixNddc07otSzVpXg3QtJj/IBqRVb6pxKA0HJj6IGUEtyDzl0icOeuklRztku913HHHWctEukD1xGSHa8V14l8CbujzsKCSuHZxlRxVXBiwMCdHQnsQVXIFwuVjVMPINInRTC2CvzyfkbtSG+CufOqpp+ziogR1xJ2TpePDxZiUkgPmBslxxWXKuoFKfjCPedVVV9mgm6RAydFW8lVyuEvpgwnQwegI4nVXfvHFF/Y1rrhgmKqiZIOyQoQXkyDf0JQb8zwvvfSSHd02a9YsvVUphGIoOYF8TYImCIqZMWOGWnMRoCpwORN9esABB9SlMiRFyZScRlfmB+4OIraYawrmpjREyCGjHiV1T8877zzrym1IsKo4Llo65mCNQCUeSbsrlcokrrsSJYc1jkHmU3Ia010gRI1ttNFG1mqRydiGDA2NXCMsuEpZG66USF3DWq77ShI1dUcpMBwsSKwolYamEBQIcw4kRhJZWa1VupOEqhFURyeSsiEGmlx00UU2XSJYPb6WYLUA5rLIfRsxYkR6a3GRPkmltiUuUed6lRzKTSJolGiYwJZrheuyoYJ7EisGqPpAygBVFRoaVJag2gQri9cq/EbKXlF6imoZpUD6JJXalrhEnavuSqVgWGeLKhJUPmB+UqltUOC46fFeUEJKUSoZdVcmQEO/Xiyd8/7775sXXnihbrFLpbYhcpQ8qVK1eXnGVGpb4nDEEUfYTABKLPpQd2UCNPTrxWrOzL+dcMIJtnixUr3QhiV4ppKQZ6zYwrw6BZMpIE6IvCsE2/i+C6sn0Mm2atXKHkf92tNPP91W4ggeqxItcWBFCwptE53pI0PJ4YogFwKhzpwSjSS4FnKTqh3maFjgkjqFWgaueiEM++KLL7al2G6++eb01oYF1umll15q23NwSZoBAwaYp59+Ov3Xf7C2IBX5SY7mHKpuXHLJJVomrERQPpAi8MQF+MhQctSWY8SCaAWP7DAnQRIigwKWCmkosNAlnQG17JTcYIFdOr9KWzAWy41lcMhFO//88+33vOOOO8xvv/2WPqL8YFmWSoBcT1b8d60MlnM57bTTzLRp07znUSgYTwaGgm+/SnaJA6vFsZRRnz590lvq43VXKrnDGkysKUcCcEMaueGOGThwoDnyyCPTW5QoUBgnnniiTZCnWsTMmTPTe8oLayFS+w955513bGdOAQhqjVZSMW1X2ZRCKPZLcQcWNnU74Y8++si6JqmVGDyHaGJ3fTeV/CUO06dPtzEBYYPHDCVH1BSjOERCwpVwaNiM4FiAsSEhQQctWrRIb1GioJ3Ias9vv/22HXmW8/miriRWG3MZjz32mLVSgPJZVDpikcy4nU4tgUILRpBSto1EeLlmSmWToeRI7hQlV0nuCqWyuOyyy2yNShZPVLLD/DbJ07i0sQh4zpjHKQePP/64Xfma+TcKGfB9GKTdcssttnbthhtuGLuYcjGgeg5VVlyLqlRC1R7KTLmrerOddk+BZ1nFIFchxYYoZOplIs8995ydU/IdGyYMUBiYMG/6/PPP21xd2ceK66+88oqdUxw2bJj59ttv650blF9//dWMHj3afhcGN3w/33HFFn4DEje3lvcIQ92VBUKDWn/99e16VDTWWoZGyEMElO+iMySaTMkNKreziCwKj7JfV155pXV1lwrWUSNRHXcpc6p0DMwnszo3HS+l6SpxvT/chuUsH8Y824033mgWXHDB9BZjnwOqvrz22mvpLdF89dVX1irEUsZbRo1X5pCou7j55pvbeVCXl19+2Qa04C4VIXqZ3ETWcDvwwAPt/CDFkolsxitA+s4ee+xhowxZyw8XNEUZcEn74J7zXrwPblgCx7BaUaClBquYZ4L2mDReJeeOWJRomItjIpqJe1YYrlWIXCLZm2omlDJT4tGtWzfbAfF8cU0JV2c+oZgQNUmQEAn7WJCyQneXLl2sksXCrOQ6o6xBV+5wfK4V0ZW8FusDi4qC3LJ6QZhgHTF3j3eMAQXXm/uBkmPgSP/BIJn0BTln0003tUFKKFOsLQRFSMHzHj16WOXIcZzPCgq4ng866CBrkXMMQYN8R76bFLaW90aefPJJqyBRvliquF/xLDCYQDmiAN3jiy18LkZC3JU7eI8w1JIrEPHLi7ldq/BAMxfBA4uLRIkPio0RPTD6ZoRejDXNaJu4JlGsBAkRLAGtW7e2HdpDDz1kvRCVDmvRYWmUGxZ9JSfURQJRcKeGwUCC1fGB6869plPmPggsbxa05khHcCPcCVZiUI0FiVJy4wCol0pSNAqrf//+tmi8wByw3HtgwEAUPf0V5dlkTTiWh8IzQ7vBqhOvTSmguD3fkXudNF4lJyOVKO2o/EdDuF6Mps866yzrDsFVosSHOSbmNHGD0W5YkoeReJKDJNyRdMrcK9xVfM6SSy5pO0I63Z49e1ZNHizpOVgcdM7yrJVDiLik88cFyLMuQu4cVlfY/BzXWY5lnUViHWSf+z5Ya+55wWOYR8WTwjbyUd1IThQmbks5nsR02Yeycufm8DqhVNm35ppr2nkwtjMFwW9kO+1HXNqlEFzpeBj4fXHgPcJQd2UCNITrxYOKxTF48GDTpk2b9FYlLozCUXS4CWk7BDLce++96b3xwUqgwyWhG0uNDo6OC3fb0KFDbbAJQRTVBJYGHfq4cePqnrVyCRGyV1xxhb1/0kEj1157rV15w3cO+XZY0kSykjDOgBEXJce77+E7F5H9BAOF7XMVKcLfsg+hHcg+4ghkO9Yha7CJSIAPCpfQfPc9iyXAvaXYdxx3JdeXwTfX14e6K5VQ8JETKEEFBxq+kiwEHJx55pm2Q2IUy9zJ5MmT03vzh5E3DzquLKIm6UAoT8U9JBKQeZ5KiprMFVxquLF8C2KWAwZ5zKm5iyQT+MFcG279ILgcjzvuOPscbbHFFtbdyJxauVJI3nrrrfSruW0Gy16EwRFWPm7ZUg2GcFWi5DbZZBPrbcgX5jOZh2R+1EdGi8cPzGgFYQSoZEdGRTIqqRVwa/Tr18/mdNEIlWRB4Rx88MG2Q6H90EHiYkRBxYF1/Jj7we3Jex9yyCE2KAGXZTGi1koFzxXBFkQWMocpz1u5BLbddltbEEHcewhuSOazfOdgSQ0ZMsSeh8XOHBrRrHIu4jsPidofZ59r1eHWlApXQcGCDp5bDJk4caK9ryj+YpCh5JgbYHITiaNVGxr4kGnojHpqLZyeRG/aAL9L6/AVB6w4qqBIwvG7775r3cJxRvnM2eDywVogh5EUhVq5bzKHSC5fJYCCIGGeqMlscC/POOMMc/TRR9s5Oe43VnW5cMsPfvLJJ9aSKhe4RUnPwIqLGwSF54J4AaJffWQoOW4eo8BqdGuUA8pakUB7//3314t2qgUIOSeUmMCIWl4EtNwwiOBBZ66G5w+3HHM3+S7CS0QdtUQ5n0i5WoLBFlGMJCwzEBBLpJyC0sVFyQBFrJLgMcD9IDmb+4n7GJeg7HctGvc8V6L2x9nHKgmyD68BqygEj8F9jlUa3J6kAJ4G3Ke4cwnIigO5iuQVsq6ljwxNhunIKBDBrFWi4cbssssutrRXLcA9J99Pqt0QtUUiqlJc8AgQ0EDCMe5G5tGYI1H+gzywxo0bW1cf7VQ66mIJ6TLcC98+EZQv1UJatmxpO+7gfhTb8OHD7Wv2oxgxIPibZ8zt9MOiM2V/1L7gufwddh6BGrQz9vH7GFBh0cl+ri2BNG+88Ua985IWVg7gs0l6x/tQCLxfGBlKjhEH5jQStnSBUpvQUOhAcHtRBaFcE+MNFQZLbqI4QSlYLUAQEGHfDRkKR2PNkcgskYnSkSctRKliYRCJiCLwHSOCdUb+GwEmwX3SoYsQsch8F5Gu9LXuPkp8iTXCuShBt5wZSlfel+/kKmBSLOR78rc7d4nC433kXKqckKcp+9988007b0twEgMrCol/+umnduAu5yQtfCeii4nuxD0ft5yXwHuGoT7JAqET2nPPPa0/uNqVAg2Ph5p8JAJNGGkppYVOXBZ/ZHRN0A85TsxJsTgknWNDhmANIkgJyQ8mTycBioQ0GSL2WJWBYBESp7nuKBEfdLCkaBA1iaXmwnw931e284xhJfGcXXTRRfVC5kncx3oCFCzxEW6SOYE3DEKZQ8MCcissoZQJEmPOD9c3UwwC815Eg1JKDFAoeA0YzMq0FAFLTL2w+gRwfYO/JUkIvrn77rvtQI7ygMVknpQmr2fnMTnKzQWi64ILByr1YUKZkRl5PDSsas8hY06HhxwXApZF1AhJKQ4SaUZ4N5DAzT1hjoRoTFyZDRmUPvU3sWzvuecea0klBdcYq8hHtjl3FJJUmHFrgDK/hZXGFBDzrkRY0k+gAFFq9LN8LnN1G2+8sVU8lLnypSNwDoEjzKUFlS7PKnmXVA7xTTXh6nUrqGApMlCQSkasLLLlllvaObtiKjiuBXqG5HWsOX5TIfCsoPiJIPalmaiSK5BjjjnGBp4A1k/btm3t62qGJqHKrbwwYKKYMiN0Ok06RlxZWHYaBDS3nBYJwHTmRFxS/FqpbOhXmJ+kZieRlATrxQ02ccmm5LzuSjo4JKD/lBCq/XpRdZzVdXFTgiq48kOiOHM2WHG4oXCf4YZSBTcXEsSJtMTdh7Kjsr8bbKFSWYKVS0oLgzTcpBgGSSg4gc8IQ+fkGjj48Al2uPzyy60olQOdAe4c6gsqmZDITOkyrFxC0JnDwtWLslMqA1yq1E5l9QXWv2POmekdt1pMoZC0jpvXLUrt4lVyWCTqssqdar5e5GgRvk4otNakLD3Mu7CqA1F3Sv4wnULnSfURlhHCdUUnyryaPJcqpRcGGh988IF1TRKYx2CagBvuU5IWHBC8Qr4iHg8fGXNy7vpWmJS1VsUjaZiTI0oIiH5i0rbaYCKfdaekIrlSfOgECESgYDK5qQQ1MA+nVYbiw0Bh0KBBdq4HS2Hrrbe2ofIM3kg/UIoLbZopD1ISCMChkATzZERtEhVbrjULM5QceQsStioJjko4uEjoqBhREjVULXMmKDaimvThLz2kBlCKiEl4WU2eWrEoO70fhUFHS1Qqof9cXwZvRDRS7ozCBkQQsqRM0tZEQ4X2S5Qm6QysrMC/BEuxPJKsWl7sQs/MXZNXSkQrc9hBMpSckh/cUCxelBv5TdVQDo1K94ysWJOKGqVx13BS8oM8SiwNcpQYTArkCaH0qN+nJAPdGmH4WBW4g8k7w9LDjUmnrIUOkoEBA8oFTwQDCcrJETTFqhHsKwV5pxCQe0IjAEY+WsOy9kCxscQ995bK9QQ4KMUD6wJXJHMG5CHKI0fxZKLNqDbh5lXlAiH0WCnUTVQXc3a45twHRP5WCkc8ffQlSDk8f7Hy5KSUECG66j6pPTDtCeelY+V+0ziU4sCKx1SbGDZsmE34BUa4hL1TOR33Wb4QQYjXALcn95EldRSloYKSw6PGc5VznpySO19++aXtrFgQkcoG1QBVDyhBRJCRKrjigKuMKD8CHyhhhIJjDpRwZwIj2BdHwQHvJRUtqG6hKEo4mkJQIFQgJzSWMFZcSJUKVWzIh6OwrVI8yAti6RLCpin5hkuRZ4kgLoqeU0WI0kmFwDQC7Y5KHyyyqigNnYBDsh5eJYdyQ6JOVOZCAAHXChegzGVWIiR6E/SAotNJ9+JAYANJyZTjYn0r2gXBPcy5UVWGdJMkkmB5Xyb3CR5yaxEqSkOFZyIMteQSoBquF1FPFF1t166dXUtKSQ4GN9ddd50tsEukLQMe2gNRk8zFUTGeyDNFUYoDz1sYOifXQCB/BJclkZU6eEkOinIz73b22WfXrfdGtXdyJ1mbi9XVNfpRUYoHq1CQwkU9Ux/qrkyASr1estAmATEEPZAUq0mwyUE6AMsRSVoA0V377ruvXSuMqNV80wKUeLz+5quptq4LPDdUiDAmIRxvio+MFAIKaMriekSBFbLUzocffmSuvqX0izwustAC5qIBJ6X/Ki6VWtaLqjXM2YwZM8ZaGSz8qCQLScakAhBsgjuYOn0ElailXBrousa8NsoMGn2+WWOF9cyRO/U1TZZpkt6rKHPJUHLkyElYMuHOhSxoN/7V10yP425K/1U6Fl94fvPW86X5XELxmXMhFB+FUinVQwhhp+OlwgOldRjpKMmCcpOVulnzLcnK6nEhvYDK/FjxrPJcq5Y7Sd1Pjxtuhrx0tfn1j7lWXNsVNzZHd+trmjb5b7VtpfZhWoDVz4k1wLMSJEPJJckr4yeYfU64xb7eZIM2ZqEFizs3MWPmD2bq9C/MYgvNVzIlR602WQ6FcO5irqibD9xWiqSy6i/RfbpcS8MAbwI1A4mgJXeT17UGCu6JsQ+boa9cZ37781fTpNFy5ofZ35h//v3HrN2yozli+7NM8+WKWy9RqRyyJYNnKDmsOKnMQNHYQlwvrpIbP+Iy06xJcVc0GPb4S+a08+8oqZJTlEqCGo0777yzjfAkJ7JTp07pPbUBCm7EC8PMQ6/eaBXcysutYU7c4wLzyrvPmgdSz/zfKUXXZvn2pvfOA8yyzZZLn6XUMnlXPCFhlbqGCC6vQpBgjFJLQwWTfeDAgbZGoubCFcbbb79t3dCsiVVNrL322nYJH6I+N9tss/TW2oBne/jzD5gHXr7W/PrHL1bBnbLnJWa5pVuYnTfezxyw9fFmgfkWMO998bq5engf8/XMr9JnKrVOVL+foeTw5WPNIQ1ZYeQKI+bBgwfbtZPKDYEQJH3TOZN8rMSDwQJJ88y38q+U0KoGGFhSEYUq8LUUAENf9Ohz95n7x11j/vrnT7PmiuuZ0/e63DRtNNdam2/e+cz2HfY0+6cU3YILLGTe//INc/FDJ5iZ3/y32oPSMClqCgHny3uVUkoJNQiJSGXeq9xlvSRXpHnz5lW5eGulwLwqZbhwf7Rq1UpX4igzNsDnqcFmyEtXmn/m/JNScO3NSXtcaJZp1Kzecz+vVXTdTa9tTzKLLLSY+ezb6eaSh040n3/5WfqdlFolqt/Xp7dAPv30U/svSz3Mnj3bvi4Xa6yxhq2biKuK1ZCVeKDkyL2hziRJ3YVEGCuFgRX9wJODzaMTb039NY9Zt/VG5oTdzzNLL+FPFZh3nnnN1uvvbg5KKbqFFljUfPLNB+byh0810z6sLrezkhxeJYcFJlZYIXC+vFcppdTI5xZ6veJAJ/DGG2+Yb775xv7N0kjlWma+liAdgEVMseaU8kAA3F3DbzTDJ99u/vrnb9Ou9cbmuN3OtQrOfd6DAl3X29kcusNpZuEFFzGffT/d3PBEf/P+tLn5v0rtIffdh7orE0A+t9DrFYc77rjD7LDDDqZXr142wkhRagEU3N0jbjKj37vf/PPv36b9qpua43cfaBottnS9Zz1KOq+7ozlip7Pmui5/mGaue6Kfeee9t9KfoNQKTZs2tQsQU9HJR0YKQZKLppYrhcD8+5dp9Mfk9NbiggUlbkrWByt18q18Pi615ZdfPrE8PeotLrnkkjaNhCAGovbWX399+7qa3XcTJ060gTn8rgEDBtjf2FD4+uuvzYUXXmh/++mnn14xOZ1B8E7c+vBVZuy0R8zfKQXXYfUtzNG79DOLL5L/vfp3zr/m5befMbc8caFNGm+2REtzfLcLzOqrrpE+Qql2vv32Wztvy9w5Ci9ITSq5+VL26R6dGqe3KnFgJI3yZCkhEt4///xzq8AJbOnevbtdTiZs5FSJMGfK/BqrBBBBjKIeMmSItYIbCjfeeKNVblg5p5xyio0erTTojm544BLzwrRHU6//MR3W6GyO3rlPSsHF7zvmpBTda1PHmuuGD7CKbv6/FzbTn/3ZfPP5D2XxvtQaDJYaNWpk+wNW2yDojfQVYgRoa+UmQ8lRIUPmd1g6pJDRXtmSwRdd2Lz86AXprUocgg8/rlACWkaOHGlTFUjKpcILtTsreQ6QGp4M1s4991xbrFoeuvbt29varESiNhQoHE2tTQYvlEBi4dVKqoiCBXfb01eZ0a8PM/OaeUyndbY1h+10pllkwcLnRWnPr3/wYkrRnWt+/u0n88fP/5gV/mpvVmy6SvoIJS48Y7QpFggmwvyzzz6zaTiksrB4MOXl8DIVS+FNnjzZDsrRVTzXQTKUXJKokqtNcHsxF4glRMM69thj7ZxgJS3giRJ+7bXXbHEDlLKAZwLFfNRRR1VErclSc/XVV5v+/fvb64OCf/DBB03btm3Te8vH73/8bm576irz/ORHzDzzGtNp7e3MYTuebufTkmTKR6+aax7pa3765QfTePFm5ogdzzarNl+7IiyOWgH3IdMCTz75pH32WAWF4iIHH3ywVXZJk63iyXznpEi/trAAJJoZzVjo/NIXX84ww0a+Zl8fus+2KeVT3Pmqt9//1IwaMznV8c5vDtl7q/RWJWkoRo07gnXUcANS/JlyUhtttFFFzHExorzgggvMGWecYd5//327jWVvKHeFyw7rpaEuOcRCrtOmTbMVXRh9MzXBfeSelouff55tBj99tXlhymMpZWNM1/a7mEN2ONUsnIAFF2TZpVYwrZu3MZOmvWx++Plb8/anE02rZquZZZasHtd7pYOyIWd3u+22M7vuuqsdUN17773mvvvus3Nn66yzTqILN7NGJnqL92QaJUhGdCWT8lR5QHgICgEjkRGSSm0K83MoE3LKsJpwS5DOUC5o6Cx7hJv9hhtusHNvTEYzR4BrbtCgQTaApiFDQNGll15qrTfuIS5MSsGVqwwcCu62kZeaF94cbuaYf62C67XdyVbBBdtbUtJ25Q7m5O4XmsZLNEspum/MrU9dbN79bJL9Pr7jVeIL3oLTTjvNrpDPMlQXXXSR6d27t53rTxI+K4wMJYc/lZEegpmpKFEQwIElgDWH9c+iofjISwmDqVdffdV+NtVnaLvACt1nnXWWTerebbfdEh09VjPMobLAJP9y7RhlE5BTxJkLL7NnzzKDRl5sXnrv6ZSCm2N26NAjncRd/MVmqZpy4h7nm6WXaGq+/3mmuWXkBeadlFVX6mvQEGCgSUAKg6lLLrnEujD32Wefuue02Hjz5LjRSJR2zAXOl/dSqV0BrKXbb7/dKpZDDjmkLnip2OAuJWIQv/zo0aNt8ALfiXWlCJJhFOkLK27oMEF//vnnW8uOwQnpFAwUSsWvv/1qbhxxnnnpXRTcv2bHjj3Mfl2PsQou2L6KIdCmZTtbHqxpo+bmp1+/NzenFB0Wne94lcKFATFTBiwBxXPLtMGHH35o70Wh8P5heJWcosQB18S1115r3dwoOuZ2iwW+fXzxzA0yzyYL/bJoLb5/AmNYQ6/QgVqtwnVhMd3DDjvM/s314zVBA6Xg2kf7mVenPWctuK3b72b2TSk4CiuXmjVatDUn/O88s+SiS5nZv/1orh3Rz3z0tVZGKSbt2rWziw3TBglGQeEVE6+S48PFCisEzpf3UmkYwoQzRasnTJhgrYNC21AQJrGJ3GIUSAqDpAWQ4EygCa4QVunGQlGi4Rr16dPHdO3a1V5D8iGJOi3F/Nxmq+9gllhkKfu5Uz6aYL787mO7XdpRqeTPv/8wL731tPn5t1n277Varm9aNFk54ziVZIUKJcyR0+ZOOOEEm3JQCLxnGGrJKYmz8cYbm+OOO87O9bz55pvprYWDW42KHbg8UGYoUKIkcU0SOnz22Wc3yLSAQuB6sbI9qy3AqFGjbGAKg4li0mmDrczh2/QxSy6ytJn54xfmkqGnmQ++eCvxQVEUv//5mxny7A1m5GtD7d8dVtvSHLrd6WbB+Rtm5G2poYg8c3S0Obwxce89kcFIWAqTzsmpFEV69uxpc9KuueYa61pMAqqu8DDgDuUziJQkahLX5FprrZU+SskXSrVRDYZOgntFUMrw4cPTe4vHJut1Ngd3PcMsvXgT882PX5orHjzTTPvynYy2VAxBwd016iozcsIDqQ4v9V3W3MYctPVJNqrTd7xK8gLbbrut7Suw6uIuVYY3gqjNQDZcHequVCmKUOaHpGsSQglTTwKCWjbddFNrdeCapCMmalJdk4VDebOTTz7Z3jtcR3QcSVrhYWy2fhdz2NZn28Ts72bPNJcPO8O88+mkjPaUpLDo6h1PXWFGvf5I6hvMYzZda1uzb+djbOK573iV4gnBKKzFia5A0cXxIFA+jNw75uB9ZCi5rbbaykaqIYssskh6q6LkBw14xx13NCuuuKKNpip0wARLLbWUjeB85plnbGqARk0mCy5mXL/AOolEphY7KAA6tN3MHLldH9NoscYpRfe1ufrhPubtjyem9ybL73/+am594mLz7OThto12XmdHs9+Wx5pFF66caj0NDfoIcmypoCTFG/KBtDesQFnbM0hGxRPcPlSuQAodIWvFk4YN82VE7T3yyCM2UATrrlDIdcP/TgelJAuj6s0339xa30RZ0nngGt56662Lvjp682YtzSrN2pnXp79ofvz5WzPlw/FmpWVXNc2WWiF9ROH88dfv5pb/u9CMffNJG9W5xTo7mX22PMYsOH/x8/KUaCgsQY1Z3OVdunRJb80NFhV46KGHzHPPPWcjhoNktFzMRT4oqXkUpWFDB/nzzz/biijZoGKJtrvygnXMvKckimM5kyheCtZepa05bY8rzVKLNzXfz/7GXPnQ2WbS9JfTewvjl99nmxtHDDRj33rK/r1t++5m/67HmwXm0wIBlUCzZs3MNttsYxUdlYrygX4DF3tYhGaGkmMiv1+/flby/bAgOien0qJFC5tW4BZJ9kFVErwHhBNrpZ3y0qFDB7tqA5Y4zzDzc6RqlII1Wq1pTup2iWm2ZAvz8++zbD7dxA9eTO2J35fM/u0nq+DGvTPazDvPfGbr9nuYPTsdbuabdz7v8SrlEYJQqDtLXdV84fwwMpQctQdZbgehekQh8ME8JCoNV3AtMiH83nvvRSaHP/bYY9avTpWSUiUkK+FQdumggw6ybkoGHcVM7A+y1urrmKO2Pcc0XbyFmf3rT+aalKIb/97clJF8ZdYvP5ibH7/Anj/fvPObHTbc23Tf7FD7u3zHq5RPiJbGg5BtQOyD88Mo2aKp1w483Cy1ZHErnY8Z/7a5dcjTutROhUFIOpPKL7zwgo2Q9EFJKcpM4d5k6Z6okZlSGpiPY/BB4i4BaaW+J2++84YZNPoC8+VPH5lFFlzMrg6+UZstc/4eKMirHj7bLq+Dgttxw31Mt432VRdlBdOjRw/bR9xzzz3pLdnJttROyZRcKSmVkqPuGku4FGONJIE5Uu7HCiusYKMLqxFckUTqUakk6loxH0fwg6IIUz9419zwZH/z5Y8fm0UXWsz02v4U07ntjlkV3axffzTXPNLPvPHhK2b++RYwO3fsabbfYC+zwPyq4CqZM88801ZLGj9+fHpLdrIpOW/IFHoPKXTkxvnyXrUoU6dOtZFos2bN8u5PQj744ANbEeC7777z7q8GIRWFaiXZcmBUwSlB1lhtTdN7p/PNCkuvbH75/WczeORlZsybI73tTOSH2d/afDsUHHNwu218UMqK29sqO9/xKpUjDIK/+uqr9N3PHc4Nw2vJvfPOO/Y1I/BCrAdG5lHBK48NH2GOPba3eTWluZdMtBzTPEVPVwDC4ykGvNJKK9lJ06Q7aZQn70/wBsm6xQ7jLha4KVkGh3bVsmXL9FZFyZ3rb7rWPP7uILP4MguZhRZcxBy07Qmm63q7ZgzEf/z5e3PFQ2ea9z6bnOoF5jF7bX6E2ab9HgUN2F988cWSLx9VaRD5SNJ1sSGal2mLfFYx2WOPPWw+J/P/jz/+eHrrf3h7TRqEWGGFQKfPStFhssjCC5k5//5tFl90YbP4YoskKAvX/YZiCnlf5HRgbcnAwHdcHGGy/9lnn7WvmQ/hWgaPqTYptD0pDZfffv7DvDn8a7Nis1XNH3/9Zm578jIzetKjqTb1r21b8M2PM8wlQ0+xCm7+eec3Pbv0NtttsKcdHAbbYj5CIBSeiIYseJJ81yZpIaKXz8uHU045xfTv39+6On1Up2lQIXBTWAyQ6MFx48bZ0QcdOW45Krn/+OOPNvSaxQFRgowGmZd6/fXXzZQpU2zEIRGFX3/9tc0lQ7FxPkKUKxn8BGJo5RlFSXVW/yxoeu8y0KzafG3z9z9/2dJcIycMsx6jmdS+TFlw07582xZY7rHFUaZz253TZ8aH95ZlnBoyXINKHaRusskmdtVxlt3ykeGuvOmmm8wnn3xiX/ft29dO5hWLBx980PTq1csGVmDZVStEoVHVg2uFwqNSBKM/GoYkOHOZZbTCa7nsjDKpLENxXIJ8iGTj37Fjx9r32mKLLarWTSmou7L2YN6E6Yy2bduGdi5Jcvnll5urrrrK5lBR+uvWJy8yH3z5po2a/F+ng8xr7481H854zyyy4KJmn87HmM3W2jb1rBX+3DDdwmoaPOMNGQLf9txzz6LPmxNViUWWz8ACVyWGBX0rKQhBMlrBkUceaZczQYqp4ATp+KtVuLhYbAsssICZPn26je7BYqNiPg+GWGfAvxwvfwN/Y55zozgfi5BcMSw79snN9n12tYn7u5XqBqVz6qmn2grypVh/jrYj7ajJksuZI3Y4y6799s+/f5thYwaZj76aWk/BzZtQojfPIb8vuL2hCX0Zg3XfvqQlXyhccuKJJ6q7shhgrT3xxBO2bhrWryixuHCDeQ8aE0IoLYEnhNOWMhlXUbJB+S88DIycy7EKROMlmpnDtj/TtGmxnv174QUWNQdudVKdgksKLLlCi2LUAij7Sr0OX375pTUqwqryZLgrhw0bZkurAMvhF3M+qJrdlXxnAkNcN4ZcShmNBP+OCy4CQmuJ4KzGyvvqrqw9sG7eeustW0G+FG3SdVe6UPrr5pHnm87r7GQ2XG3z1JbCnrUgkyZNss+5D9oyJevCYK5dco6DELW+3npzFbQPBrW+JarwGLEocZjbkPvCd/YNihmUtG/fPnJhYbxQeKZ8UAWnmDnBEMddSZ6cRFfmlCdHJWeSwJFSuCGqDSwsXIpYcKLgRJlJFJcQR7n5zuEzGakwKIi7sKCiJAlRcBtssEHZB12LL7ykOWm3C1MKbovUX8kqOCDJOAxSh7gGYdK8efP0kZmg5HzniKy++urpI+uD1dyuXTvvOQhKLGyaiX6KBXJ954lE3c8w5VfpeN2VdLRIwMgrCvJZ1SC4Iik/FazryT4eekZ15JJg/brnuQT/dmEf7h+WOyIAxR2tcS8Y3ZAHIoFB7mdUg5SiPSm1CW3H16aQpObfggIoOd8+RJZ8ChNcnb7tCMrKt12E/sW3nevAPL9vH8JAOyzdCKjU79snEvWbsJZ825OWOESdp3NyOULjIuT/5ZdftpaVCwpuu+22s0mJrJvGatVsCyPshrCmEm69XXfd1boGiK4M3ngenKeffrquAoqiKMWBgLCoYhbZAvOizo3qHyBs/otnPmpuDAUX5sqEqO8EKLkwasqSUzJhFBO2MgNrIZEvJ+5KfPXLLrusVwmxzbedhokFJ42Mmpi4JdgePJ7vwjwXIzpFUYoD81pRAV+FKDnm1qKIUnJRz71YcmFkU3JRv0mVXA2D5UYSN8rFp6AY8bkNT9IC8oH3DTZAcux8n8c20g0QRVGKAwqOZ9AHSopV6qMIW8QTsim5sP6DZ78QSy7qO0GUksN16+uPKh2vkuOHIFF+zqSQz6pkQbkRJSV/C/KaSickb+NCZN5szJgxNrIqH1CMKFJcoig7AkyomRd0jQpsZ35Q8vCqQUrRnpTyw3pghxxyiBk9enR6S+HQdnxtqpji5rkGBQXHvJpvnwgKxbcd4XzfdhGUnG87/US2Zz7qvaO+E4KSC7vWfCf6Jt++JCVfyNU8+OCDzYEHHpjeUh+15HKA0HcZ0QU7am4KDY/Q2zvvvNMWGCW/jW2y38X9O7iPh2rEiBHmlltusbl3M2fOTO/xw36qqyhKJTFgwAAzdOhQc/rpp6e3VCdRkZWi5MLACoxyKxZiyUW9L0RZmNm+lyi5MCrRZUkKwf7772/22muv9Jb6ZCg58iAIgECizN6k4IJWstAgKMAcVEggxwD7SbmgEbnHyn7BPSe4Txow7xF0Sch57jkc8/7779vX7v5KFd81VGqPTp062dJ0FBZPCtqOr00VSyAqspLAEZSJbx/CM4y3xbcPiToX4dn2bec6hO0TQYH6tiOi5Hz7EFFyYVKKCMt8YUBA3xs2MMhQcn369DGDBw+2EpU02FDgpiK5kOsNitvZc17wXPLnwm6uopSDc8891xYhv+SSS9Jbqg8UVFRCMkouypILm08X4gaeQDZLLuq9UQZhUyDA74o6P8q6LRcDBw60izJT3stH2d2V0nFXqjDfhutR/nbx/e07LhfCzpHt7n73M/CRl8JPnoTEGaUp1Qf3uUmTJum/koH39LWpYglKJuq5kgAN3z4Ei8ntN4ISNW+GMHD1bUf4br7tIlHvLUrOt0+E3+bbjuCu9G1PUvKFKjis2vLmm2+mt9QnQ8kRmk5lDaQUFgKNt5KF0Rz/EporKQIiwb9lm297Ngk7J9tn0OBZXDV4TCVKnAasKEDb8bWpYokoOd8+JFsiOAEeKDnfPiTKpchvjXIp8t1820WiXKGcm+38qN8W5cJNSuIQdZ53ZXCpt0ZpL3zrxQJFSlRMJdeu5LsFA0CCnTUXWB7CbIQdJ+8p+4J/C8Ht/Et+XdIj5ySR2pVS61BR8uWyyy4z11xzTUbtymJBdDR1FMNgCawOHTqk/8qEyGcirsPYb7/9bFUjHyjHxx57zHz44YfpLfWhdmXU8kZYNVGRrd27d7clycKg/iNR3j5wZx5xxBFZ3a1x4ZqfccYZedeuRPligfpqV3qVnKxyzXpR1FgrFtVcoFnJHS3QrBRKWIHmYkFAF5HOYey44462IlEYpFGQEhQG/V7jxo3Tf9UHJYeBIeX7gmy44Yamc+fO6b8yoT+ltm4YO+20k2nTpk36r0x4Xl977bX0X/VBuRHJWCzjpyQFmpVMGAdUsihKtUB7zRY4UQlEBZvhPZE5uTCyJV3jUgwj2zXKNo0U9d7AsjlRRP025vOqrfJJg3RX8pPxS7O6MW4JbhzuvhYtWlhz3HURspbbp59+mv6r8iDNY6ONNrIr9wr8PuYT+N6MiGj0/LZyrf2l7koFaJfnnXeeefLJJ+2Cq9R4zZVSuiv5nk899VToZ/EMkZMVtcrAAw88YCOfwzj22GNtX+ODvol1JAl680ER+G7duqX/yuTjjz+2ebZhZLME8biwcHMYpIZELRNUCMVwVzY4S44GzCgNnzcN8ZlnnrGuBRoFf7MAH8cINLRp06blLJTa8m0PSvC4qL95Hfa++O3dUSPfferUqebuu++27hYUDP55Gs+oUaNs1JeilAOeuyFDhtgouOOPP97OW1UiDHoJ5goDJZfNEgsrBwYMTINz7UFQdGFE7QPen8C0MCRqNIxsVmq1WXLeK8EFQLLdiCSQzyqV0EBYMw+lgUuAbfjAERQcFf4x591zcsE93ndecJvvb5ewY33bXcE6ZRRKQ+Q3sY1/cXFMmTLFrqIQPKdUUor2pFQueIW22WYb+xqFd8IJJ9hnLhdoO742VQwRJefbhzAvhRXm24cQpk8/49uHSNCGb59I1PlR6QUIShgl59uHoIClb/AJc1u+7SJYTb7tSUm+dO3a1S4ovfXWW6e31Mer5GhQ0qiKjXxWqQSrJ2itsV3g4aMGZfA8wX3t4h4XPAfCtgX/DR4TJOxY+Zsl4MOsNRp2OdeiK0V7UioXOl4SxSUqEff12WefHWn1CLQdX5sqhjD4pcSebx8ilpxvH4ISikoB4HzfdhFAyfn2IVH7EN5frEWfiJLz7UOypUdIrpxvXxKSL7h+CVY58cQT01vqk6HkmBsj6geJMnmrFW5Ots6WBuDiHu87N+7NCRL1vYLvz7Hyue6+4HcX5Jhsv11RignR2jfccENdygsR3PxdSe0SKy7sOQIUXFQIvZTOCoNzg8+zC9cCRRaGWHlhZHNXipILg9+HogwDSzWXgUmlkHElKI1CkWGkUaNG6a21Q1TjgjgPG+cU8pC652Z7H/f75/OZhXw/RUkSAidIB6AzxjVIUEmSKxYUSrbSVcxZRfUj2UpnRSlI4Nyo5xUFFaVEc1Fy2fqDqHk5lGy2CM1SQlsioOnSSy9Nb6lPxpXgx6HcalHBxSWbYoxD3PdUZaXUAjvvvHOde4lACAJRwpKfS022wIrFF188/coPllyUkhNXZxjZUgSyKTkUXJSSQ0lFWYp8t0UWWST9VyZ8P+5ZpcDSZhJA6CPjShDOT9STrFXW0PA1vjiKJZsSy/c95fi4ylFRKgk64VNOOcXssMMOtm0Tbt+7d++K6DyjFABEufIg2/nZnuFs52cjlz4iSglzfrb3iDq/0shQctdee62t6IyUwiSlgVeCCL7t7mvB3Se4x8lr92/5V14Lwb+DZDvXJ8F9Lu72UooqaMUFr9FFF11kK4fQPhiRE5jimy+i7QTbk0ptShyizvPatKLJ435gPshnlVtcfPtFBHkd3OZuD/4t/8prCB7j7hNke7Z9USL49pVKStGelOqCdStRdAS60UYGDRpkF1wNQtsJtieV2pQ4RJ0X7rhVLG7HHOykoy5stg7dd0M5xz0vuF/OCW4PEvXZ2b6XopSaLl262AooBGTgqiOtIKruo6Lkg1fJSWebrTNNAvmsUksQd5vvuOA5wf2Cb5vgniOv3W1Bwo6N2o7IvuC/wdelllK0J6X6oF1Q2X6PPfaw7YRVP0466aR6Za04JtieiiUEXfi2i0jFkDAhutK3XUSiG8Mk2/nESkQdw0BBIjTDhHxh33aRqPdnPpXgGd++JCQOUeepJZcjwQ5aHjqXbDeIc4LvA773cpFzOCbbZ4QR9tmKUglgxZFKsM4669i/WVn8rLPOyhppWAxYAifqWaFYRFRwCFWHoiBFASUSRrbzid6MigBlX7byfVGfke39F1544aLWNE6aBjsnJ58tBF/nepyLe06+5HJe8P2Dr10R3NdC8NhSSSnak1K9UIiC/FwKidNehg0bZm666aa6wV2wPRVLll9+ebPqqqt69yFURZJVqN3tQDUlasq624OClTVu3Djvb8LCYpmb4HZXCMwh+p0BQHAfypN9HBPc5wrH8FnB7Xynl156KfR6Y8VRnJl75dufhOTL2muvbb9T27Zt01vqo5ZcDnDDBfd1kFxuUPCYODcV4p6nKJUMkZZYdNSGpKO++OKLzbPPPpveWxpIEaAeIp0nbrkg9AHUgMXaRFHwPVE4KDeq9+difaIkiSYlgp3zsQwpyUcFmFzSKEi5oEYtViVKE0H5Uns3avUDgc+gSP2MGTOs+5PvwHfhO1FuzQdu3E022cSuYlBJDBw40CaEE8DkI0PJYYoS2otEJRQmBQ2mHCKf7SN4XK5EHS/7gu8ddU4U7nuA/O3b7hI8rpSiilnJhd13390ceeSRtr1QYov5ORSAr00VS0j4ppg0S+qw8n5wPy49ko+JBH3kkUfsvyzzInUdswlKheAaltRhSTNWQeFflI7v+KBwPgu78rmch7CKCtt8x/sEq5PlzhDO57vwnXjv4LGbb7652Xvvve2q5AwCgvuTlKTJ0GJUBqc8CrLEEkuktxYPGnI5xIdsDx7nvo6Le34+7xd1nPs+8trdBu5rCB5XSilGA1ZqD8pSkSjOumW0m48++sjce++9Ge2p2ML3WHbZZe38k28/YEmxfpusS+k7LkwAJU7RdJS4z/2YTbAkWTcS8bkfswmfyWfzHWR5Id9xzFNKmkexJV9QzqSesJyYjwwlx6KWjFyQUlhylYbvIhdrhJELYZ/rfs9sDSNOw1GUckJZQVyV1LmEUgy4ywEBN82aNUv/FQ8sK5RQQ4W5WwZBKDsfGVqMkQkms5jNxUYUSDkkSNQxufztI2y7i7yXHOv+K69dZHuUCMG/wT2ulKLKVsmH1VZbzQwfPtwWb+7Vq5e3TVW7MC1EniDBNr79uUibNm2sGxF8+6tN4hB1XoaS69+/v+nZs6eVfJYgjwsdX7nER9hx7mvw/e0jbLuLvJcc6/4b3AZh21wR3NdC8NhSSdwGrDRcmjdvbjp27GhjBXxtqtqFdesI52/fvr11j/qOiRKU5Hrt2tUlz/uOqTaJQ9R5GUqOSUcR7ZTmjhDyvfBxb5TgOz/sXkR9VqHfQ1GU4kI/O3nyZGvJodAFpopwZbKAKUEwCNGNuCbd53r99dc33//wQ04RlQ0V76QbHWqczj0O8lnlEB++Y3zH+raBe15c3PfI9l7uca7INvdfcI8ptajSVeJC2/G1qVoQPGZTp0611hyKjpwvIju7detmq8CIEHW644472khHXLkrrLCCWWmllWxenS8islolDlHneZUcDUoaVbGRzyqHCL7XUcdA8G8hbHu+yPvwb9R7yv6gyD75txKkFO1JqU1oO742VQuC1YbbkkjOnXbayWy66aZmlVVWsQoPCw5rDmFV9RYtWtiqMESebr/99jbHjRw73/tWq8Qh6jyvkqtlaFD4vl3czpeL5VsvSh6ySsf33V2Cv11RlPJB0jvJ1VtuuaVNPPcln/ugH+Nc3JwoRiy7auifykGDc1cyUcvyHvLb2Cb/so3RFCG9crzs8/2dK8Fjfee67x3E3cbrKOG3Sbg1fwu85vdRUUL+LrXoQ6jEhbbja1PVLAxIN9tsMzuvhsIC33FRApTYQkmW89lOUvKFMmxYuIiPBmfJYckQsisNi78ZFTGCIhQXPziRXC48YG4HHfw7Cm5a8FjfubIt2/uyP+oYXBr/+9//rL+e3yWC26Nz5872dyuKUl54hokaJQ9Qnud8O3g5nn8JUkFhugP4hgJl4G655RZz9dVXp7fUJ0PJ0elzwZBSIJ12KQVrjondww47zOyzzz6mR48e5tBDDzW77rqrTUINHi/fMw7B8+K+DwS/T9jfJIaSAnLwwQfbskT77bef/a0bbbSRvb/usaWUOKM0RQEZLNaKtGrVyrRr167ubyqPPPfcc7Y0GEvxuMcGBT795BNbiuvtt9+ue67oszt16mQHur7zqkXyBaOEyNOgcSLMk7pA9XqeSZMm2UKfwMg/2xxPIVAzjY743XfftSZ3JUKjo5hqWAfNTQnblyTuzXc/j4aNcsYnX6m88MILZt999zWjRo2yFmau8DuZWM8XIs0osZQvdC5RS6iEQWHbfD+P30awQb7w/fie+ULJp3yvJd9RCgjnA8dzXr7PRdRve+edd2zpKTr1UvPKK6/YyvxJwTNLpGSTJk3SW4z54IMPbNI714wiyERahsF9HDFihC3YQUAKA1k6eYH+iu+b732LYs8997TVsIoNpbnOOOOMvHK06V+oJYo3Di9dkAwlV0pQclQyqCYl5xtpsE+2u69dZHvY/rgwCKkWJUcNwHwCX3hIs62L5YNOIJdK8Ep1gYVSC0oOFyWrHEg/wL/U52QQSNvFuFh7nXXMnBAlxXPxxBNP2HqVXJPu3bvXC1hhoMAKA2KsJEEpldyZZ56Zl5JjeobfisKnvw6S4a5kdMmifoh07MWEG1zJEvyOPtztYcfJtuC/gvu37/wwOLZahArtlI3LVWiDPLD5Sq2FVKvUjjA/zlp1/CvboGXLljbKEhcm+1Odb73zXGGg2KFDB5tKQLoBCs7dj1VHEIa7rZokDlHnZVhyffv2taYzMJlXTAurWtyVU6ZMsa+5kLkofrngwWPd892bkst7hoHrY7fddpv7YFQoYsnxQEoUWS7QEfDARjVgHzKvnC/49HMN4Rb4bowg87FQgfPiFB3md7muqVyJ+9sIWOI+5APXIs5SXfy2sHmVO++809x///1Vb8nRz5HY7buHvr4hDI5FONZ3PCsL0HfFcff7qGR3JZYcA2LanM+Sy1ByRx99tPV/Awv4YQ4Xi2pwV7IwIm4E9zLJa1/jkobnEtzmO0Zw3zvqOGA/DwvrPFVyFXJRcpQvYsSaK/z2fDtKiHueUrlcfvnldmHMaldyVCihaknUc50ErBA+dOjQWPO+PmrKXanUp3Xr1naE4CINVBSSEKaUgtuyNXD2y3sHPwNkG8eR1+dOYFcyWBL5CCN7rIJ8RRWcUqnwrGZ7/pOAZwcrXAlRctwEt6MtJvJZlSpYsltssYXtdF1kv0vw7zjIe8j7u+8Z3Ee6AxPYNGjZVslSivak1Ca0HV+bqjbB2vBtT1oISEPJ+fZVusQh6jwd8maBi7fuuutaFwNWE3NKbMNayPWGcJwrnCvnI0GC292/sVSwLLEwCUNuyIslKkq1wWoB48ePr3OBFkN4b4TgLSXVf6ZGSPWG18zJMUcGJBsS9l0sqiHwROAyEc6O71dCcwnlfeutt8xnn31Wz0pBIcnfKCGqjIS50HjPsWPHWh+6D96LnBlK1/CejNBweXBfsOCqAZmT41qVwq+v1B5UtbjmmmtqIoWgGqnkwJNDDjnERm4z+L/77rvTW/9DlVwBoOSeeuop88Ybb2QoOWH11Ve3eWxYYD6YGL7jjjts8qwPlOPOO+9s1lprrfSW6kOVnFIo1abkmOagT2MQ+80339j+gX6BfFamGYoNnzVt2rS6ATkD4qZNm9pBMhbeL7/8YrfnSiUrOaxjokjpY32BbV7zghsiN6XYyGdVu7j49meTMHzHVquUoj0ptQltx9emKk2AAekuu+xipzj4lwomMj1BfVxy3EohjRs3tt+JtAxZn06+E8v4BL97pUi+kBNImbSwyO0MJcc8D3UckWBUYTHgxteCCO5rIXisT8LwHVutEqcBKwrQdnxtqtKEYI8NNtigLr+QgDWStpluYH+p4TOpsIISwIrjO+Gd23jjjet970qSfJk+fbpddBbL1UeGkkPjU9wXCUYUKtlxO/I4N0xRlOqF6Mlg6D5utHJOx6DUgn1RLQWsnXrqqeaII44wxx9/fHpLfTKUHDX/8CPHqRmoJIsqSUWpLqKskXJ5Mnzfp9b6lqjfk6HkrrvuOnPaaadZCQuGSBJufC2ID9kePNYnLr79tSC19mAppYO242tT1SDg267ilzhEnZeh5PBrUnUfibPsSL7QeGtBfMj24LE+cXG3ucdUu8RtwIpC2/G1KZXakzhEnZeh5JT80c5bURSlMvEqOTptGTkVG/msapYwZF/weJ+E4Tu2WqUU7UmpTWg7vjalUnsSh6jz1JKrUOLebEVRFOU/vEqOUZOMnIqNfFa1CmkW/CsEX2crnkzeCvkrQdgn/0q9zGoXVdxKXGg7vjalUnuSL/SPJLyHrVWpllwBcEMolOzmE7odOQpulVVWCS3pBSTck6gZdoOpWrDCCiuk/1IURVFcKAM2cOBA069fv/SW+uicXAECLILYpUsXs8wyy9QpM/4lAZMleijj4ztXhGvcuXNnWxUBhSfKDsVJrbiddtrJjlJ851ablKI9KbUJbcfXplRqT/KlXbt2tozZeuutl95Snwwlt+mmm5rtt9/eSpj5lyTSqVeroNC4uPvss49doZbacLvttpstSLzhhhva/b7zXKFKAtebFb4pxsx7UBCVZfKpMec7pxolTgNWFKDt+NqUSu1Jvnz11Vfmiy++MF9++WV6S30ylBzlvDD/kEUWWSS9VYmCG7PEEkuYVVdd1Y4qWHmAMj753DDm5Zo1a2bWXnttu34dVhwWXJybriiK0lA4++yzTe/evW0BEx86J6coihIB3hS8MrnImmuuaQesQVl55ZVt4WaW4PHtT1rwIBEPwHdi8MzfwWOC3z1KGMRXKj/88EOd+MhYT461zVifB0466aSirkRQ7evJKbmh68kphVLO9eSU0hFnPTmmiVBw6Kr/+7//S2/9jwxL7tVXXzXPPPOMlbDVqhVFURSlGtDoSpWSic4vKnGh7fjalErtSRyizvMqORqUNKpiI59V6cIS9l9//bV3n0puUor2pNQmtB1fm1KpPYlD1HkaeJID//zzj7n66qvNVVddZf7999/01nBGjRplzj33XLPrrruaTp06eWWrrbayq68z14CL2H1fFCrzD8ccc4zNtfOdj3Tv3t1GFDG3+d1336XPVhRFUQR1V+YgKJ1hw4aZ4cOH23wM3zGubL311ubMM8+0q9UyUS5LFyFXXHGFufbaa63yevzxx22mPsrwyCOPtJOtnN+kSRNz7LHHmgsvvNDmKrrnr7XWWjY4iMnZGTNmmJtvvtkcdthhZrvttjNPPvmkVZbB71MpUor2pNQmtB1fm1KpPYlD1HkZ0ZVHH320eeedd+zrRx991Ia8FgsskF69elV8dOVNN91klQpccskl5vDDD7evs/HJJ5+YLbfcsl5oK0qPMl1c9iuvvNJafEK3bt3MnXfeacN9hVNOOcUMGjQo/ZcxhxxyiLn88svta5IgqZaCGxW4hg899JDN/q8kJLqSdtWyZcv0VkXJHdo8npQkoiunT59uRowYYT00wc6R0HoGmPwbxbfffmvuu+++jOA8atEiBxxwgC3JVwron9wFrsmv3X///U2jRo3SW6oHoisxEPKJriRI8rfffrNVorbddtv01v/QObksQiO+9dZb7bVA7r77bjNr1izvsWEi5yKyjQdh9913N02bNq3b9/TTT5tx48bVOxfxnY8st9xytkKK7KNh0BH8/fff9Y6rFOE7Kkocgm2/EKFow/HHH2+LNjDQxJsi0r9/f+sR8Z3nCoPJPn361DsXZUPFqOOOO86W+fOdVwyhH7n//vvrvgcDAgbWvmOTFpRLkvcGyRemfjAQfAoOMpTcaqutZtq2bWvFLTzcUHnqqafsaukCLkMUURJQ39LNQ0ShvvHGG+m/skODoLizC99PUz8UJRoGmdtss40tycdrl1tuucVaeWFgNT3xxBMZXomuXbuaTTbZpJ4nphQw2CXRvNSg4PA0hSVhl4rZs2fbAT7/+shQcieeeKINekCoqVhsxAqpRGF+izkvrC13lMGc2J9//uk9xydyLpJtP0TtD+7z7fe9RyUI309R4hDW9gsR3hOFhMtfnh+EQLApU6Z4z0Fee+01u8II8+PueQxYfceXSuR7+PYVQ3DXjhkzxruvEMmXc845x5x88sm2vJcPr7uylLiNpNJk4sSJZubMmTYAxL0Jzz77rPnggw+85/jEPdfdjtvz999/r9uH5YwF7R6DhJ0PFCV191P3slLXn+P7KUocgm0/SSHwC2tIniEsFOaGfMdi4Q0dOtRW2QiuDuI7vpRSyu/BQOCCCy6wg33f/kIkXz766CM7z4r4yFByRPzddtttVuiAGzK4LShYjVsD/72AO5AAERpUIZBqQOSmQJDKZpttlv4rOyjJkSNHpv8y1vImcIhRpqIouYHbkTkdF8pDEUkdhIjmqVOn2j6hoTJ58mQbDY4BUA1kKDl8zQRXIKVQciiKSgx7x1IbP368jQokwrRHjx71Rhv33nuv9QH7zg2Kex5/49Pn+oqFyHYmT2+44QYb1eWeK/vd85H33nvPRlp+/PHHdjsT3aQmMPHtnltJwvdUlDi4bT9p4b33228/s/jii9vXCMqMCMzgsRgBHTt2rAsYk+OR4LEiBIIRVEalfAaxsloJUdrMwQePx4q8/vrr6wnfh36SqRJyZHnOX3zxxXrn+b4HlicD8uD70W8Ej0Oxs8QXcRkUZR4wYICNInWPe/nll23k5ocffmg/65dffrEGEe/Jv7/++mu94+NIHKLO87or3YtVTGhUWB0oC/nMShBAiRGtQ84a23BPoEjkRvCdOSZ4rk/kHISJaXz5F198sV1w9cADD7SpGuThuXN/YeejHAk2IS+OQtr8e/7559vGx/pzTKL73qOcglJn2abgBL+i5ArtCOjo3baVlLRv394qIPdZGzJkiO3E5RgG/Y888ogd+Mo293jZ5greFtaaRKFh/eG9IVobDw4RkSyKzDb3HPodcnIJpRfBJUfkJFGhzBdS7Byl4p7n+x48c7zf6NGj7fvw/emDWrRoUXcMv5Fi/KLocUWSe0tOL2tjfvrpp/Y4FDKeLfod+SyebY4777zzbKQqSk7eN46A/JsPUeeUtdfBvYblUmnVOsg7I4yYFRKkY0axsJipy+DBg/O2dl955RXbaGikzz33nA3wYWXxbHk5Avk35N8hvBfzA+T1MKcQp3GUAh4i5i9KHXWm1A7kgKLgaEvFgGeH5919DnlGCawQeN5QAsyb5wopCURoY82xXA3BKTzvWIOAEmTAi3IQWBqHRZRdyCkmz/Sggw6qe45yiX7nd5Gvx/fefPPNrZW4/vrr1/1OvhdpR1iIzOUTvEHUN56r1q1bW4VKLi9TNESi4kFyXbXLLruszV3E0uR6YRQUAkoz6WV9vErOHREUEzpmbvpnn31W95mVILgkUMA0PG4ywo3kJtPAuC4IqQUkIvrewxU5HvHtzyaFnl9uYRTKmlxuuoSi5AMdNS41wtV9bSwJoVIRc+/yrPF5WHN//fWX3Y+CYJDpnpPt2ZS8Vzw/zPHLdjxYch5FHXy/S/Yjzz//vI30phgFYftEhDL/7jve3cZvuP322+uqI6GU3P24HflesMYaa9QF4DAoZa6S92MKi+Pc83yflYSg9OP0E5wbRlndlVT+YITBRK58ZrmFxoh1xGtCU88666w6wa3IKEtuCKOgu+66K6sLRY5HfPuzSaHnl1P4zsxv4h7RleaVuLDoKMqGztrXzpIQFA9uOvd5Q7m8//779nOxpJgecM9xj3W3i5CozYCZts88F9uISHTnroLniLjvTWAMFUzE2mK+kHk93/HyN/0Tc2Uci6JzXZQiVCP68ccf7XlYcK7yxYvFdqxnXJXuecHPSkoYELPYa75wbhhldVeisTH9mU+qFF566SV7wR5++GFr0QWlX79+9dxuTP7mk8Dd0MAVzSAGF4lGfSpxIRiCTjUsTDwpKHruutywLB544AFr0aFo8h2oYXWRcoRQy5a5Mea1KNqQD3iRojryIChR+ioG6ky/oByDMDh//fXX038Zm/+HKxIrkX8nTJiQ3mO8kaZJg1LGO4ZFmQ/MGxIwQ0yCj7K6K4FCxYSkfv/993WfWy7B70xgB/5o/MK+Y/CVs7o11wbBh4y/3HesiByL+PZnk0LPL6fQaMnlYz5AUeIic2HMi/naWVLC3J8bWILwfGMJBV2ViHtccB/C3BedNq+xEgm932GHHeygL+o8xH1vN48vTORY4gSYp7/xxhutu5JnkEhucbuKsI9BqJy3/PLL2whv5ueIyJQBPEIkt3uunONuK1Sw4ugrNt544/Rdzw3uC65b5lR9ZCg5fN9cUKQU0XBEF2EZYSWVG9wRKNyoXDWuDyMHFyKhuDlKfWi4XBvcDySpK0ohMFDC2sineG8cCO5wLR+sGCwplEC+YC0x54ViIwAF64r3z9ergULJFdyhu+yyi/3OApHgwT6W93S9UgzYmTsnyC4opSj2zL1FQeeTK5wLGVqMUFBCW5FSrAyAVcSELyMHfqCMEEotWHGs7Qb40H3HiGDK00hlBEK0JI2I1+5xvCe/SY5D8g2xDebi4R/nX9+xlSYEFJF7w6CgmKtZKA0DPCwEaWBh+NpbUkKn7hY+B9Z+dIPOROSYsGcSC/DUU0+18170c3vvvbc1HtgXdR6S7b2DIsfSb/PMYcmJR4q+qG/fvnV5tQhWJmlMch7KnAhJ9z3DRM7x7YsjuCpJb6AgBgZWPqCzWFeTSFYfZZ2TE6g7hqlKrlg5IByfhsgELRbZRRddZMaOHWv98S6U+yHKkrwWbooLE7woOs6hEgC5JkRCuaHBwEgOlwsPaxg0SOaxqA1HKoMLo0FcquxnxFap4AphiSDcTOTfKEqh4PbDlUWUI89isaDzxwUmYfZ4ISTkPx/4jvQlAktglbLo/Zprrlm3RBgwGCcdwL12WMcoGQHFSP/jQv9I6oDgHo+lKgov2F/mA/0lXjQGAXLdc4V5ReYPsQR9ZCg5DqYjRfDhlgLMaurH0SmSJCkXrVSCtUTCJEoKBUIEFSMvzHf3OBQWobRESXEcx4tcd9111lrhHCKxmOxlNOUeg9Dh8xujFl/F+uNzUBCiPEWoaoLLlIivoI+9koR5AAYtuGZ0DTklCVAQzDVRU5ZADl+7y0fooBkoIsF9POMkTdOhE9CAdyd4DMpALBGEv939xBm4c14MkOlDGNBLxRA5D8XjnovIfsT3HYPivp/0DcwDUk1J9j322GM2elyUE65BN0qTMoGXXnqp7f8YqDKYxkLie3M8CkgKZCCkPtDf0Z+xxI98l3yE384yRWuvvbbte+PA+4ThXTSVRUyBCEPCSkuBhOdSAQTLLl9trlQOPJBMsPMgU86ISjGKkgQMACkrRbkpBppx54p4HwbyRx11lI0mJCGbEHs3DgGLEcsHbwqJ0QKdP7mz4j4VmHvG+0KuHe/D1MI666xjFR2gpKl2hDuUgTU5toCyYKBP5SJKdqFQjjnmGLtmncAadaQO+KI7UUi4V90obwwGlDMuVgYEbhwBzyOFLGT1Bb4HgSUoZeC7t2nTxro9GZCzMg2Dc5m/w63I8eLN4trwvfj+Xbt2tdvygevL70PRYezkC9WoULZE6zM9EmS+c4gxdaAKB5oZmLxMOvs8DC48jQdzmZE/F5kboFQXjJmooIAVx4iQKDJFSQoGvyQ0E8xBJ4xyyDdADi8DMQAoBfLvCDLBM4LCwsUn70cQBkIEuGzDYqGcFh4vcmZRYiIEppDigAJE0aGA2YblieJiGykKp59+unV/Mm2Bsub3kFZAf8tcP/N4KEa+i7w3lhnTIL514+gzee7c78L70qcyv8U0jPtdUUq4IFG2WGX8i9UqlifflYEq14ZSYHwv1+jgfCxbriMuSjxLGCYEEebbZ6NEuR5cG/7NNyBH5vL4zrSHvfbaK73nPzIsOUYuaH4gQz7fnIVC4IuecMIJNpeEhlSOhQCVwsD6ZxKYRs+/OlBRkoaOjSAKQt0Z/VMmq5LBysCFyPQDIjC1gWDhMdWRr7JOGhQpSgsFh7LBwPHl1wFqgyhXXI0ovDhBitxH3M9SnhAXcb7wHUgdQDkzoCCfMUjGVWXkIuBuKiWYm0zUkvjJj883YVIpHzR63A50Poz8CORRBacUA6yKPn362KAJBsVYFJUMUz5YVK6CA/5mO5ZQuRUcoNiw/tABWHhhCg54tlHMHBtHwdFfMIeHQUVUexwFB1jfDCCAClo+Mq4sJioXnB8hc3OlhBuOKwKtTKQNHSeTpHwflcoUGhn3jArp+PmpRl4JD61Su2A9EOxFP8FIXqL/fO1TpbIEixELHE8h3h7m1OJCEA/WJO9LOoSPjJ6ItY4kpwlfMgqm1PBlydMjrwSLjotR7ARQJX8YjTF/S/QVy22QS8QyIqWax1UaNswzMbdGe2NOi9Qe5vWVyoV5P7w9DITp2xkYFwJzeRhD/Bs2vZUxJ0cjYW0hJk+BMi9MgJYDIqCIesJKQPlS+41wWK1mX36I6CIcmXtDFBkFrImM1ahYpdSQroPbkmVx+Jf120pRoUPJHYwlPIMkbpNwzsCY9CIssCRgfo/3ciu4CBnRlbiZsJow/0le3GijjcpWrYIOk8gmEkDJMcFKIGmQZSAYxfGvUjoYD+EDJ1qL0RgluyhXhBVHnqGvgSlKsWFui/QjAtcYlBMhjnVH1KAOusoLfQaLrF599dV20Vf+xs3M6gyFKjhWN8Eow3WN3gqbIsmw5ICwThRdJTUSrDpGaiwyOn78eLuKNmGvCPkp5LjQsMnXSGp00JCh8TDXhnuB8lwMelgbi+oC5PjgSiZ/hhBuVW5KJcBontB+Bl30FbRNKpdQKkpd6KUHJYS3h9xB1AyeOHIc8y3b5YOIVVIO8Cjh3evVq1doNRmvknPBzCTKkaz4SoCOlw6XyuBE5pBEjiImMojOFgWnSq5waBYIHQcTxYySyHmjQTEK01GyUqnQXinLR54m4ekEs+GRYkBMShTBdcFwfiU+pBxghFASkUAQynOxZBnVUuiTUUAUGSESM6m+GcWJZ48+irk4VlkIy7GLVHIkDGJaMj/Xu3dvu55SpYEmJ5GTUQM5J1LQWCkMFBhzn4Q/0zEwsZvvWlqKUm6YB6JyCIufMjimQ0YJSlkrJRkYBKPQsKaYD2WKCRcy6US4E5OEe0r1F6w5FBtpZ1FFJyKVHFUrCPWkQdDZkZuiFSwURalG6BSxNChUTNg5AVNK4TAgZgAs1VOIji+Wl0cqpHAfsQrxLPF31OdFKjmUG1qS+oOAmU9eQ7miLRVFUZSGCVVN0EeyYjl1QAcMGGDjM6KIzNjFBKWAKUtNoDVZi4g3ZVJXURRFUUoBsRgXXHCBXU4HXUTwClNo2RQcZC1LgZuSOoRSw5KcFHLXqACOpacoiqIoxYQSYwQPoeBwixLZnatHMSNPzgd5ckSwkO9AFW4mb/lQVshWFEVRlKQhXYlqV8zxYWyxMg2pTaSFtG/fPn1UdrKmELgwWUuFC8rnkK/GkgtM3rKwJxE1FEyluDJRNv/f3t3cRBLEYBgmEjIgASJAhMCdZAiDGzdO3JGQiIJcVk8v36o1a5sZYKUVqlcqgTSenmq3q+xy10+3MG+xWCwWiz3ckMygzSYs/7D0w/IwAyobTZhcwq+QO3UZwklOLlgPYWNUWA9hMGg9FZyNZIaN3axV2g7VPK9ppKb5Pzw8bHIVpqxbLCjPak9EKVE3WcGJ2q/u/Px8W0ZAdtrf0qGC1vq5nv3upF07HFxoASkc3TCdxnBxcfHnoL+np6ct+uhwTp6tr2BhdY40qqADejNrKesCO6z3oTc6N9J22KNp0hVmIdGbxfMWetObZRcd1sQ5sdc6mPv7++1Mqw46ozu4riUoHRbqZkmKnVOyjVwFe1JnaADPz8/b/xXsj95kGmwf9Pj4+P7J37BNehMlWvBOb93eh6Yqk2X3ObBzmp3n3DCRp1046M13OswQs4YLbFNdOmRU7DID52jZCajDJgm2uIJdQLTVDu842Kb7dM6aXW06ZHboQmDrGTuxvnt14TmQdX22Q8d00mEfQlv4WQ5EbznIs8IUdbsy+W16Y/sdUl3JPGlL2lSH5TI5l8yxXzrcDvZAbzpge/06WbuDndEFuzM7kN46tHs2z571VexNG+wgq504KoesmaQd19fX2yx5fTa95fzQCnbJPqHv1od3SB86qBUOpM0EkQr9D71xWNq0yY0yhWa+7m1JP88ebAd2zPu3ik/N84yDA2PxQBglf+mB7B2I4w80eE6Oc8xpuBUePmfkZhi3htk9WMph5Jyc36Yo00s7TJ6Jk2O0k+Py+3FyDHdyXDrFODkd9XR/nEWcnLV9k6z70tDo1sOfZDUedeDkzEAi2zk5jfHq6mozMs7NJKKpI3EEhnp78fv6+rpNPupgF3FyXhBPjovxxsl9pDfPLU6OvU2yGroTm3WuGswkK7dPb/THCenQus7a+h+dg3sUTNGb4Krj8vJyc3KyHwKayXFJx+hMtB/b1olgO9xXnBxnNDl89YuT+0hvHOLNzc3m5DzjSdaWeoIfTk6bk9npsPUevXFy6mO92hRUaXc6NY6QU9ZndJDj5LRBuyBZfNyh/4mTy2LlDv1JnJxnMemCQ8yp2RzXJGsxNCegnzNimWTVV/vg5LRPepuCKvfG9snoC6cgnjOKk6O3yXEJaOLk9IPss0NfHScnwJzuTx04fHrzjF9eXt4/+Q27YTN+21o7OvssX84p6rTv7u7Obm9vt+icUzOy2K8+z/DSXw15KvuhaPV5yp58p5JL2dcBlUzKIZVMyr6+/q9kUvYcI7u/diWzL3tZVDIKjpVVQr5TyaQcUsmkHFLJpOw5RW8fySp7WVQyCo6VVU6RDafIhkom5ZBKJgX5fVQyKTj2/nCsrBL+lWyoZFIOqWRSkN9HJZOCvS4qmZTI5G8lsy97WVQyKeEU2VDJpOR6+KjOkYFgSRaPUxMYCrbMpPQaTHD7FQeHT6UrO0RUhskiD5GY0YQI2EhAmiy7k3Tw6mR5cd8XRXWRNayT4FCNzqRtutELvD8UubseWRF2B0edA/hEh1Ma1OhJFAwR8JTOU1d1hhTBFN3TAV3QCZ1O0RbdkhXli+TsCNDpjWGJotTF6IwukmquEC3bFsmz9TwmvRkdZpSvDlPEbrRs3SWMqqd0HiNn/JCSmtJSRr50TG9GtW9vb++f/I1AjCy9id7VuWsORp70JsIWsdLFpDfvpo0QyZCdUk3S2DmsmKy6dBhFidjhsNBpFK7zyKxo2YBpVKSToQv36VlMmQ5tmqy/njG9dbgeWddnO+6vSwlDfdWb3tgmG+0wAjbS8cxcdxrp6EBlR6AtTek8oxcjNGijUzrPfWl72pW2P2U62BldsDtpxSllSm+uy57pjS6mvpBt2p9TH0i2e80D9sOO6I3slD7WnrVr6Lun7AV7Z/eQxp5Gk9qR+4P+VZv2ff0pu/pOvtXJLRaLxWLxP7GmQC4Wi8Xix7Kc3GKxWCx+LMvJLRaLxeKHcnb2C8zO2mhp06J+AAAAAElFTkSuQmCC;" vertex="1" parent="1">
          <mxGeometry x="460" y="150" width="201" height="216.95" as="geometry" />
        </mxCell>
        <mxCell id="nkzgsVoT-bIxv0UpaDIv-2" value="" style="shape=image;verticalLabelPosition=bottom;labelBackgroundColor=default;verticalAlign=top;aspect=fixed;imageAspect=0;image=data:image/png,iVBORw0KGgoAAAANSUhEUgAAA1AAAAFyCAYAAAD74DslAAAAAXNSR0IArs4c6QAAAARnQU1BAACxjwv8YQUAAAAJcEhZcwAADsMAAA7DAcdvqGQAAO9OSURBVHhe7L0HYBxnmf//aHfVe7Fsyd2Wu5M4PSEJaUBCSEho4QIcnWs5/nQ4yt1xv6Nc4IAQ+nFAQgk1gQQSEpKDFIf0OHHiJvci27Ks3qVd6f98n/d9d2dXu9JK3pWl3edjv5qZd96Z2Zl5532f71tzRhlSFEVRFEVRFEVRJsRnl4qiKIqiKIqiKMoEqIBSFEVRFEVRFEVJEm3CpyjTyMjICIVCIfL7/ZSTk2N93dKAMJ2dnTQ6OsLro7wcFT9sY9054xdZwgGc1527uLiE5syZw/tGZDuW9vZ26u/vD4fPyfHZ42WTfD5TxhLZHzl3rF9paSmH97NP8kmKO4eizDTc95QsGpcVRVGyBxVQijIJIFaGhoZoeHiYgsGQiKFQKGiXY10wGL3PfW5r1qyhkpISKzVgeEWML4TbsX0b5fhyyCfihEUNr8NAwzZEDZxs26VzANdwrrCoiKqqqnk9voBqaWmh3p6e8O+Sv259nGX0OpYjfE/ryOeH4DL7vPTwNRp37Ij8dizdvbCY9PE9+vlYt9/rcF8QnG67sLCIXaE981jwm3z8vJTsAO97aGhYvk18O2OXY/1wDNZN/DUO25WVVTSvbh6N8rrDG5t37dxpCzei47j79kAy6+CMM8+UpfdaDhRq4NvEt+GXeG/iv/lG2M9+K/gucnNzKRAIjDm/oiiKkj5UQClZDwwnCCIYVjDOw3jsERg5R48epYMHD4qhEoDRAuNGXEAMGhgxZtsftQ4HYwd+poaGxQ6H57+w/mxD2gla0zojiw/B9Y2wMl6x4JSouRrhFQRhM1GMwIk+dZwX4fHLcHKEh/GG68S7FvaPjubwdZwByIESXAPPGMLTGK2oWWNDFssQH8uHGL+IYTueq66ZQzU1NebE7nKeH7jlpc1igDrBBSfPDO/C4xe1L44/3mv4OnFAfIEz4SNiVhkfvGNv4YNZNwUNWEc8cM8W7xvLRYsXU35+fhxhk0ODg4P04uYXwu/NvDt8cxHREfstwkl8t+/evbf8ggIq4jRAvhzx4jCeOI04jN8fec/4tvhbsX8RHt8mwgAEc+sA684Vl5RK/OdPaAwDHH9bjx+3cd48B3kWdjnieTZwAOkLxFSsq6yspIKCSIFD+KcriqIoU0YFlJLxwNCA4TMwMCDGFpx3HQYIDKKioiJau3a9HCMGERsaECJs7YhpFIKxw8tcNsLGgloPNMsba6BEjCYJxX+MeID4ECMtGYuGD3ZBYazn8LlkGXMsrgHhJA7N/+CHe0jiEgKC2gthwbYnG4Rj78vdkzwf/h2mqaG5/mTAOWHU4rq+nBHeHntPAOc194OL8LpdAhisXlDr5wxOcfitMELt0vxuPP+xYg1+znCHgFqydKmcE5fgXQa7RA3B/v17zYYFv91roLv1WBcVjh2aWSasVePrdXd3h4/xPh+36vXzEuuP4wOBXLs1FnfvsTjRm4zDdwJRXcBipLOjQ84ZWxPrwDMOBJy48a57xY6fqqqr5HdDQI3yPUnsDL8QrBpRg3ccFdf5ViCgUIOL7w5h4j0rHGbiML9/XEN8x4ZLRA5/kDitpAH8D5fjs465Fq5jrsXPSLZxJXM1SQ8sOEx2uV8iv5vP734Troe4wIFcnEUhkNchzcNzRyFAWVmFOS6Mecc47/79+yk3L0/eV0E+O17imSmKoiiJUQGlZAQwFPr7IYqMMBqw4miQhRIMCRgKKMGGg4Hg1uFyc/PJz4abFxjqMAT5EzEeYsigZNlshb0B+8GAgqDxxxUbxsGoNIaTCSDGoDvfBMg5Ib5wHd6QmpSY6wBzHWNUBeX3Y1sWkwCGnzm/n/+geZ1c33MtXMdci41uESf4fSiDj9xTUiYYjFs+wM8nN+Ig8T3BRd6JDZToIu5H4HfZoIgDci94A3Kdsca0XIsPwrvBM8C9xcJPxq4Z8E4RX2SJ38hxEVd3Yg1O3rvd79bhYPjCr4YFFIxXIIax/C57D8zmF16IOoe5/8h+h9kXH+wrLy+nlStXW5+x7N+/j44da7ZbEeTZiZhJ7CJhjPApLimhIf4e/VIbC3HETkRRRCA58FXIOfgfxJo8A6zzPt7kd2/isru/8G261+d9jyaoOY/EXbNEXMYZcR0vOCccDpNCEj63OLN7DPGiHLQPfgF+hgg2Phjr3muFr+PcCAKYdMDsl0UU3tvCD5Jt/oNv0zwvOQV7eQOacxmHmGmEnBSkMCImGexDoCNHj0g6iUIlpKGo8crLQzqZL6IetVeFhUZY5bHQir2WoihKNqICSplVSGz15t/ssWvXLmpra5PmKhFhxCKJDYB8W7KKfQkNJxgWbFSEQjA1eJXdiBgc1hKzwChyeAqLreHkRA2McmybfcBdh80YNsiN8SS3If4mzETgfCh5x28zQg2GqtkXizG0+Tp8PXftyeHuAfcEY81sx4LTOqNzKvcEcH4gtWn8D/cUzxiU8/MyiHfCK9YWTAo8JjFw+bw+/pWIB8mIQlzCGZ380wy8CWN8jBUtB5tVnFOMaF7JESMezy9yocg78fG1zH7EC/ghmOwKE7UhiLjFc+J/cow8N1zDBogB54ODYQxhYohcSH6L9ca6ecTud/Mu3K/ZyddBAYExyL3gODkPhzXiANvu+8HvDK+y8xxrgzixw2uyG+dH3MBx8i7kgzNxwB3tzj4uHFjiL6/6sY74HOfDkW9GrmXiFl9Zlvw/fD1H7DYwt4TnZZq9Ilqb5xcdWgQw+yGtwXPCDbn7CD8jJt41BLsDBQ7uGeG3xkvb8PvNu+Br4kD3W+S6bhMXxYq5ON7BSCjIYqpfmsG6QiiIKzhcR2qqrIPAQs09lrH3qiiKksmogFJmLCid7+vrY6NmhMrLysQoEEuPjRQXayFyBoeGTOk2O2OIGpNEDE3YDbIOF23QiB3BDoYGjDTsCdkTyz5eynHGK4ooW4E3YKThWq7PUCz47eLEaLbruEiYOBfx4O7FrJvrxbuOA6c2hhODcNgOG7TxEUPZhpXnxCeBwZToOrgGnrUzNLFubskZ9hMg98D3Ihu4VnzjFjhRyHan4J6dXUyI3AOuxc4ZnRPFB1wD68niTuWaVuFejKEb2Qci1+H3wcsgNjiAt0bSGz4euIaPAyMu4ZEZQR19P8Bcx34TvM8VEoy5AH6KhLHbFu91cIipKTTXiffscPYgatVwIt7vvaeJwNncKeXZ8XVwrIgAdljHe5vofJ6fJWIF9Vw4n/tmvPsd7l3LtWzNbbLg57jz4hty4hzEXgvXiVyLt/F84v0gIPcpf8K4sHJPrAj5auFre4m6H16RbdkhuwV8afDzHhsW2HyMiEE05eNj+MlJONTwOzEFgYUl0micf/78+VRXX2+OBzgu5ncpiqJkCiqglBkBDGSM1AaHDLm3t1cyZ9QcVVVV0cKFi5C7c0ZtjBsYBw4XhcNevA1DA3m3T0qE0S8hCYMZnnb/KBtRUiIOe0ICirfdbTfkCvCDYc6GjA/yyBgasYR/I34bfg3frz08crpxEKMcJ+aw7vzxruOQ68g1rUEUTwXGI1y1Zp5z7DPzYm8pssQ/uS+Ex+8d/5pSqzBqakXwtnBYonvCNYwRbd6jq7EBOMatR2MMcHfO8Hvie4Nf7L0hLJw3PoypgbLEu1z4OrgfDnAiAmoi5JyygjgO4e6XZey7Mtcxz0r69si2XDZM9BHRuOsgzppvCQLBXCfes0McmIyAivq5HM6c1yydgIKHt9+U93yR451n9AnxDYtgRkB+3rG/24HnI46PxzJemESYeMznxnXwz3No7GmirsPPJixYBBvYhhF4Nz4pl+5JmsTIs+EdpkYw/nXkPfNSvhV4ciDv+8CZzFljwPk4DK6BdScIExXa4Bpo+sdrMgiHC+J+q2Fyz1RRFGWmowJKOSkg2kEkdXV1ybDAEE7oE4G5hNAkpLi4WJqFBHLzOKwZ6Q0iK5yDe6ItVr2RGEFQNgtfGH1S+myNqNgsHMeySWGWMDQ8hgpsm9gj5HOx13bGj/wk/o1y3dgLxCCHSviIkSSGxUQHOviQZIMCe4lJM+lruPCe+0oWY1jFN8684Lzm3Hgx5qLih3gRDzkh3hHv53BGqEUMuXgGHU4v8YHPiTgA49P4u2u4Y83viQ8b/+M24bPO/jPxDtuMN1yi+2JwL8nWQLlroU8cCha8RrQj5rAw3usgzEQ1UCMsiBEwfE+4DoLZ60UOMe9B9luwbUSTERYuqJxHngX7iDFvDjLN+vh63nPguPBFcKBZd16R64/F/Bb8bs8JJ4Fcl904lxDc+cNxORnsPYeR+xobtxzyXdjzJ2omKrtxKDxsVJN4bk8nz5ID4Z3Dj18Nv/uxvxfnkZoudnJOwXw/9lTMKL24ebOk6aWlZVRWVirTOMT77YqiKLMBFVDKtIBohiYfEEsQTW5UsbIyZKbGIXN1uCZbnA3LschmxQDACsdYb74L28LaSXafMbBNhs8GBu80hkb0ccDFflnyMSLSGBgK8IuYQxFjVjL9MSca66WkB/OuzHpCOJA3aQu/syTeE44zxyIO4AD4Rd6/9cCp4oLTGwFgRIJcOwb300Ro2HCutguGqPf+XFh3P+ac+HX8R/47USO7owjfC38TWIqI4mXsb3Ln9hJ7HQ7E14nfBwrgFHDoa4UDvfckYBtPTbzMNx0G14Fx7hEGCC/wSeP9PkdU2FjsYYl2zwTGubUIsb/fPcNxbsw8M7PfrHL6ZpsnytPnYyGQAAoNADbds8a54SCZZBknjiGsK+AK13Q5OKxXQiH97+3uop6ebskDcM6KigoZ2ARLNMFWFEWZLaiAUtIGOiC3t3ewWOqSDBPiBDVMKIEsLy+joqJiyZRjQZQ04skYk2K7cjhviTwMVMGWTCNjR0TG2aTEVIwxY4ih6Qmwi7jIV+Dd7/kqxjtOyVzGpIwx8WCiGiKcAPFvPHANiLOwnHDXdJtRwi2Cax41nkhzGCMXxq35hozxbHcy0UdG37S5D3Md2Z7wWpHfHL4nd6z8jSb8HTtwrcSnV6YI3ot7Ad54G3lHDK+Ga/rwHmWNQ/A7Gq/5nkurI7W1dsmOj5R1SDScDeeAQ5C+vh7q6uikzq5OmfequLiEhVS5zFuFVgiKoigzGRVQSkox0YmzXTaimpubqaOjg0rLyqi0pJQKi4tln2SiWOOVeBkzzgGH/BjObCO8yZTd8UDK+e0GaqLwxzQdiZw39vyKMhORT2eSTCZuy/k5fKzwGyNiQMxv0W8oc4mKd573jHgSFtDjvH9pLcBhvGk1TiRC2h7nroHzYNXEON4w/2kkOGybc3dIKwXURrmaKbh4TQcVRVFOJiqglJTgYpErTZeSbs4tRdQw6FYuYdghEzXiSSqW4maOCGva1LOz2wiLdWS46NhswP6oclQ+N/ZBSHl9FUVRlFSDtFnSa0nzYVTwuvjbNF8w6bis2RXJB0SgmfRbBvtAIs9KrLe3Rwrf2tvbZR4/1EphMCEVU4qizBRUQCmTBqPjYd6l1tY2WrGigXLz8sXfiB3UCI2atvZSNWSilzeSSe0Q54HSIR2ZKC/jiR3ETBFkOBjhjLcVSA5zZhVLiqIoJw/Xf9Sk1KZflEv3jZVhBJVbRz0UGv9Jyi15ARz6rkaPLIhRWVtbWyXPGR4epg0bNsjkzAKfRpN+RVFOBiqglKRAfyaXiSFDQ/OKSpQIlqNE0C/zJ5moxLkZqyKpgYoTs4xggvORX+YxgXiyOxPgoqiKJEVRlJmNywfChV+A0274Y9ObL0BimVYKntFSOUBsLZMcy25gYIgKCgvgY3fY/AOOvTSLUJSp4f0uveg3lRgVUEpCIJpMTVNrWDShGUVZRQVh3hlp985CCSWHI8ggE4gm4GqakMvJ5Ix8MDJLbY6hKIqS2Rgzw4kqyQxk3Yu0RJACtbHNr3G89LHidQxa4XDzYaEpII4dGhqk3Lxczm94Ww0/JcPBd4Fa2WAwKHPleR1ss1g/9C1cvHixHBchYoM1Nx+lQ4cO2q2x4LvEdDNwOJdbj93G/J0YWdnvNzXFmfotqoBSonCiCQ7zNOEjqK6uljbo+DBMRgZn5hVhD1cWGF5ylibCyHwzxjcyo735mGSgB83gFEVRsg5jdkRElBusAn/iiSc45DemXyzvR4mc2Sn5jcy7xv927dwpo75WVFRKvlVWzkacFtIpswz5PICN5ugLiJEq0R/QOQgnOHwbTrzA7nIiJnYb65hXs7qqis9rpqOIJkeEGFwE832aOfdkjUJBiDPjIMoQ3ivSsI3ft2TJEiouLrXHAfutGwOQhoeGRWgZP1nMOlRAKVJSgVqmY8eOhUUTaprg8GE6XEYG3QTnFVDyTUgmGJ2hSfSCH+/DNj4ik0GipBFnVRRFUbINZA2SJTiwzX8mFFAuX2GQBSG0t4VDf1+vGYCirU0MOuRjIqY4X4s9t6KcDJz4cWLITDBdauN1JI6aAgYf7du3l+NykAVHHuXl5VEuHIuPPHZYR03seK15zDdk+iUas03+mJ38Tdi1uHh+jbHr+DyJ5h0E5tTSONdcR2q4POKJ/VBTvHnzZr6XfL7vEplUG/eP6Qtm0zeqAiqLQW0ThhpvaWkRoVRbW0tVnNHk8joicWxENh8hZ2L4AvkDklGXJPaYcAiPgSEki8Px+OdOgSWHjTmloiiKooyL5DucfyC7Qb5jh54Y02wcvshjTN6Fydv7qL21jdrb22Q/xFRNTY0YbIqSLhBfYV9hwK1YB8GE/agVghiCg8CvqqqRyBtu2mqisMR7h9lnhImJ6xLZ4ZNQRCGsVzyhvzr6Gbrzek4fF1wHBRRAul3w9VwTWTgvfFqxD+VauAAHwPklGHbit8pBZn9fby/19vRQDzuMvInfWlxcLN8nCjzQbcSEn5mogMpSjhw5QgcPHpRhYeewcCopLRN/xAZ8LOYDMULIi/sYzRIfBGqdQmNrmPChmEMURVEUZcqIlcIZiplYnY1Imy+FQpBSOXYQI/ESsFeCuHyId2Li3jYrplBgCKMVTiftVaYC7B8nkvr7+6MEE9ZhBxUUFIxxTjRB7CDOmi4RJv46c1z+Rv5EYYMIiOOQUhBPIqDsd2EXAsJDy8h1UODAO8frrx4LzsVntusjFGDhJ378x3MZ+/txHQi1EQqNYD9fU3biHIbwbwuv8CofiH9Dg0PynUJUYV44/F73naKGaqahAiqLwKs2jmgAHzh/cIFAnuwLd8zlOI2PECPkIVLLR+KJ6CD8kdulE0zykUQHVRRFUZSUEM7DrDkmeRD/D7HBZvppmPwNORPyIikE5y3kadhGE6TR0Cj19HRJs3X0LcnPzw8baTBwFSUext5x8Q41KCO0adMmEUOIN/n57CCSOD5hHYOZYLAtxLtEdhHOwdFR7C8XV7GMXGnssa7rEqK76zYRkItgUBUndGQhhL+ZHAi2USl0MP6ymBDTV8qcELVmNBKyTfiibUOcD076R+E++DLeAcYATiWfKeOu786Ognus4ZRSeM87+vp6w33ycW33nc6UQg8VUFlA+APiyDlqvtLwB4voi6jtPkqIKsRj1k9xPxJFURRFOZk4o0VK0pGvsUErGRvvcMYbNsS6sdkX8jFpfsT+bgRYGLAQURBT6DcFwwwGGpqzi7GoZAXBYFBqkVxtkltfsGCBDKAFEM/EOuL/UpMjnsaukohm45lbldog/g9hMFZsyNFih4mAwracywO8eOHDAFzAihADzofz8n5cBEvbakj2eq4FvDagFJbLbvyJumJCnH0ov4W/tdj7cdjb4GuE8CPk9CH+A7/IpXgFtW9R92OugSA4DA5iENfA88Nv7+zsjCr0qKurk+a48X7HdKECKgPBx42IhlIRtCeVKlt+zSF8qQz+Igy/ftkG7iNFrZMZAAIfJCLyyYuciqIoijIeYsFwNuUVU2Lssj9qplw+h2DS/MiEEgHlBUZ0W1s7C6l2WrZsWXi/mbidj9G8cNaD/kdOIHkFEwZ0wKAMGMwBrqCgkI30PF4vpkBuwBY2AxPZRIzYeGdWgIkvI/wPa4gufo47PpRGc5jY+GbOEembFLbJXDTDMZ4459YllPWWuAzh5JaR4GMQU58DxAqXZJCaLgefZ7xvwUkKuT/8MnyDfJ+u5gnfJb5QhLJBeSX8hzHiEM9LCjx43Xs5DAyDGqmmpiZ5T6tWrWLfk/N9qoDKIJABHD16VAaGQBvvBQsXUnl5hXycEpnZuewk/NYRUbGwkc+0o4UPJwIxH7yiKIqizFSQr5naKOAT49SBLA+5XOIO8MaghWnnxJgYppwPylLyxbHHKTMLvEf0QfIKJXEslkbY+DZ9kSCUCsKCCc7VOLp4MDIa4vAca/iFGwFljKaoChwsjHdYIACsIp6MJ6AA4qvp/4RYh23U7pgCbIexxxwmHJYuzETCKR64niNdwsNcwwooi/HB9YxwdL8i/HPsivvmcO/xzFAEw/kHBgal2aSc0d5Gmm4nLiqgMgAIJwwKAeGE0UvmzaujYjskpotoeMneN20+Svbgr18iKSIdNnmJD306I6GiKIqipBKT93mMN5u/xTM4TV6Jpn/IJO2gFGaPtM7A0M1GROXQ4aYmGVK6vKJCRgpzgkw5OeC9igVtwchuW7ZsEaFkapOMYHK1Sn47NYt7n7ECwjTPM/Ncmvgw1n4S+DC2nHjFxbHIeXBKtOTBQa4lTyKhgvN646kXJ9ojRH5EovPNZCJyI1pYATxzI67MXWINtxjvNvGOjKjlnTinBLLvk5fTVfivAmoWA+GEGic4CKf58+fLxGWIWKGRkGm6h8TAvmEsUCLiikxQPYp4J0vZi3gIvzgxVlEURVFmKTB1xjdiTe2CaVLFKxwW+aeUhttMFMf3dnfJSH7ok4GmX6WlZVRRUS5DLhcWYh4bCaqkCNfszo1wh/WFCxeKOIKEEaxNI+8wZPrfwIhGn2+Y6c7MxftDKxuHEzdeENbYUFiaQmjYR/YU9v2aYyKHIm45ox0jQ6LmhOMN1jlQoninRDDvKPKcEj0y834wLxwG8oCPsWNljVfwTt0rTvezVwE1C4knnGQSNt7nIlcwiFIT82qRGKAWGbHMtSlFamAGidDSM0VRFCW7gSUkxjZbZTCeTV5q9gHkk27UMxjUqGGAQd/V2cWug7q7u6XpPISUc96J6JXEoF+LVyB5l6htwKABkdqkAiqvqLTDaZuR5VxdhjFn4WyRsDVunBD2vju8XDeYiBecw9s3CccKci4jlJyBjou48zoRh11GTCUW7MqJgVfCb0dqCOHkyeMV8OM27zSHOtrapQtLIGBGQkwHKqBmEV7hhMEhMEKMd2x8vEk4RKxgcETEkvHnD5k/cnz08IF3upW5oiiKoswWTP5pmm8hzzQ1EMgzzZL/S/4JJOuEB9Y5Y0UY+PX29IqYQu0UBAAKOCGkkE8jz85mQQVDd2gIfZNYKA2y4+fjRBJq8vBsopvdmXWIJ6lN4ncixrJ97nhTRtvgfTmRYxd4X7wu79R6G9EDu8dMYosw0D7x7CBcyzje4P1iQyEYb7vgkRonFUrTDd4LWlmNQOji40RcwILBq8Dq/j27aHBgkFasaJB4lA6bVwXULCBWOKHGCW2vY8GbhJPOj0g9LKiyRimKz85JAPR7VxRFURSDWEIwvjivNCLKdnTnHWIkcaYp++JYTGKc836Y1KZlRw4Fh4dkMlCIqZ6eHhnYAHMGIQ+Hw/DYmTSJrxEZ0YZFxLzMkefQ2LgjXJuEuZJEKIlgKqRcFlDQJIlME5xLhCyWvALJhCZ63tfhLu8ElKzbGiL7ikSMYSfemcw3FPObgfvdkd9vkLAuPO+Kc6gyDeC1mJonxAnEB7wO/hd+XeZ9N7PN3HLsKDU0NFBFRUXcd30iqICawXiFExLaejTVK4FwMp3k4sUFvE15o7LPvlpOLFxY/eAVRVEUJTEwi4xp5DM1GbDWeYmmZrIfLlzkbRfIk/kYPzJZ/g8D3ds8DPl5b28v9fX1yRLNi6qrq2TfTK/NwLPA74cIRJ8kuNh11CKdfvoZ0mTKHMN/+FZkKdtmBffnHp17zvLI8Lz4gHjN6kB44AB2MsgHH+Ca14lIArgG/488QpzbZwqRYQdxMIgr4K6pzE5c3JE4wS8SEwRj1fhLEKGzo50OHdhHy5cvp8rKqpS+cxVQMxTM47R3714WTsVUV19PxSUYVQ8dEk2ijFGBkGbELz3hP15v3taEQlEURVGSx1hHHjGFf2y0w2BHEyLZy7tgnCPPRTabSEA5THgjCOQAOJweDofieA6wefMLcjxqreAwT1FuLpYBaYKGfeM5YIxJ02TNi9fsc6IOAmk8h2PQzA41SO43edfx+zDCHQQLjFrTrM7cixgg7MLXtUu36ZpBeidPjbVtENY04bO1T+5gPs4JUDdAhFdY4cwGM6ADfgeedczplVkKooGJGyF+334KhjiuIg6yoJL97Lo72+ng/n20bBlEVEX4+zhRVEDNQPBGevt6aXg4KCP8YLQR95LwzaPa2Q09jgQhNqFRFEVRFCV1GEspWkyJD7ZtBo282BR0QsREWn54gXDC9EJi4CGADSOGPs5lDxoY6KfhoSHjhofDLhgcNqXtfB2plfG4eKD/1erVq8M2hKzYa+Acx44do86ODhE/EEgBf64szbZfBmswYikvruEpt88OkxabZlUW95xESPEmLhneaW8dx2Jpf4+Zh9I46xWFuxau4kQSHpsIKPY35zH+sg5nrxnvfEpmIFHNLlE7Kd+D9UCcRFzo6mijgwcO0Jo1q6VFVypElAqoGQRehThODLA0iaTskTQApSnwx2vHqHqurbVLfBRFURRFSS+SL9tsV/pFifgx265fTbx8Gfk3DDojNtgDYdhJrZbk7FYUAOzjc4ZP49b5jxNnaDII8eDCRIspeKK5f0BW7c/j34B91ng0BoYJKoRXDDi/iBpXYGv9LThcHK+joBcDb6AmCdvwx1VEOMWA/RHzFfdjlhgdL4d/33jGLY6VJZ6ZC+c8mdjfqGQPLj66SgdXY+miR/PRw9TZ3sYiao0UCpyo7awCagbgXoGbc4DfuXnpcLLfJAp41aaqmxMa9kDaoeJJURRFUU4eJg93ebERUImAtnGl5DgKGbwsLa6PTpTwYD94Q8TgOmYkOdOU34g12ALYFwE/CVfAUgxKe97IxcIrYZx8CwsYKb1HzZA/LKC818E5xfE/iCcnoDwSzRxgL+WONc8HnlhixGC+F74m7j3RwA6KkgwS7/GRcYQNhUyBRdiW5n8H9u6ReLhyxYpxhXoynNjRygmBUWnwok3JDRwSOpOwysgi/MYRGcxM55xIcoTwQzzxS3e1T8rMBh9uW28jBUMD1ic5cFxX/0EaHO6wPoqiKLOfTEwTvSJmonwZu9FEzYgSU5skTdZEGOEECIT/aCZobAAsgVmimWCONAEUs1BUh+wII8ewgx0pLVlGcIwxJI1tYeyLWGcuyP/5QNNEDh6JkZ8rv9W2jMG9sAvARpF7M0u/n/3YYT8Kf7E/wPePbRPWGKO8OuHzU5TxQPSRb4pjpYuPiFOwoxH3Fi1ZIv3+Wlvb5Hs4EVRAnQTw8rZs2UJ79uyhoaFhTqPMWPbehA3vFclIQCIAL/14+SaBQWKjaczsYdfRO6ml+yW7lRxDwS7atP9b1Dd03PooiqJkBtmcJoqBZ50UhrKHCAvO48OiQxya6sPwM0agMwRHnWCyBatiLIwxBLGNZoGozTHr4WByrHV2YZrowcHGMNeRc9sl78KquFjgF/69+J3sYc5jtnEPYruww/1KzRmvy3ESztwvthUlFZj4G4lz5vsx/gF/gBYuXEQHDuwnN6rmVOFTKtMFOoBiZL2tW7fKPE7rTjmVcvhlBjlVM6IJf0xYI5z47fMLl0SGkzkTETShmU3ggz1jyQdpZ/MdNDjcaX0jJCoBael+gaqKV1NF0TLroyiKMvvRNFGydTHofCxujIiCWMIQ6FZkOD/+g9obhDPCxAgS1NogjBFIVux4cH5wIlB4KeeCwzochzOFsghnhBZ7h6/jrsV6h9AvCfvGw1wn8vvD94Dfj3V2OEe04z+KkiYk/ss3hqWJi1ivrq6WSa4PHTpkQ04N7QM1DeARNzc3y8uCcFrA6hfDfwZZ/cqAEVJVjnBIvGSVExu8fJPwwWk6M7vZ1vRTyg2U0/zKC6iRDYfhYK/dg8/Pvdwcmlt+JtWWnkaPNn6CLlp5E+Xnltp9iqIomYOmifGJmGSRTD88kh278JNh+2AiuwCnCve1SoCMYIcQCMznM6c0Zevm/NonSZn9IHq77whxHqNcvvjii7RhwwYZUGIqqIBKM5hfYffu3fziRmnRokUioNBMDylTMIhHH/34XSmO6ffkEjBltnOo7THadOBbNBTsocHhNn7rqDqOvFy0ZWeZTLn+Ygr4i2hF7etoxbzrqCC3woZQFEXJHDRNnD6Mmec1JsaafSqSlGxj586dIp4WL15sfSaHCqg0gcd65MgRampqorq6Oqqvr5cECv5RAgppFm9jH9oGo9enz+cPCydN02Y3oZFhamrfSI/v/hwFQ/3Wd2JyyEd1FefS2Us/QiUF9dZXURRldqNpYuYDO6etdweVFy5h8VtgfScGx3UNHKD8QBkL5UrrqyjpAeMRoEvN6aefLnOfTRZTT6uklP7+fnkpx48fp7Vr19KCBQts+1/TJtnNjh0IoHTNFxkggv0wYzhEk3PK7CU0MkTbDv+cntj9xUkZCoBlNhsZf6VHGj9NAzoSn6IoGYCmidnD7ubfUUv3ZruVHDJQyL5vUf9Qq/VRlPRRXFwsrrV1avFNBVQKQekJap1eeuklmf17/fr18nJikcnvUJ4GMQXRxIJKhVPmsa/lAXrx0A9oONRD+YEKWj7nGgr4Cu3e+CAOVRQtp3nlZ3M8yKG23u308PaPU+9gsw2hKIoyO9E0MTvAezp72cdpx9FfxxVDeKfxONr5FM0tO13et6KkG0TD2tq5si59BRPEy0RoE74UMTAwQLt376Hh4SFaunQZC6gSTkS8HTEjmEcOpYSNsfuV2c/x7q30yI5PUP8whtzNoUXVr6SXNXyaHtjyAWrtecEEigOMisvW3CyR4p4X3sIiO1fiS33leXTp6q9KxqQoijLb0DQx+2g8ege/n4AMFLKl6TYaCnazrzV8PMv6iguojgXyxp2fpJev+jLlBcYWPCtKKoEZbgaVMHb6CK9j/AGkJ8mmKf7PMnZdmQJIyJubj0lntPKKClq2vEFG2DMaCS9CFlGYF4RkY+w+JTN4bv836XgP5jkxL3g41Ev5uRW0//h9FBodEr94hEYGaTDYycsBau56TvwQX/oHj1Nt2Xpt+68oyqxE08Tso6NvH20+9L/00qHbWCRv4e1d7HaHXTtvd/LyUNvDtP3oL2hx9auovGgJCygdfVZJN2aYmpCdgxWpEqaDdlMDJIPWQJ0AeHQ7duyQPk9Lli6l4pIymRAXQ5Ajk3AT04lYSu59KBlA/1A7/f7568VAmBruk4xEGsS1htqr6byGT1sfRVGU2YGmidlFcGSI9hy7h0XzLSKAkyeHqovX0PkNnxEhpSjpAk32YK+HpCZKajxk/tUcdq4maiK0D9QJgIdeU1NDa9atp6LiknAbSrwUXuEX4BJ9JZvYduR2Gg722a2pgA83+uPFx9zZf5B6BrTdv6IoswtNE7MHDEv/zN6vsPvqJMUTGKXjPVvowa3/LDVUipJekKYYOx31UaFRiKrk+0KpgJoCRiTxg+ZnXFFRxQm5TybExbaBXwon7uYlTDyDt5JZYCQhjBiVatp6t1HP4InNnK0oijLdaJqYPexu/gPtabkX5igV5dXShkU3Up5//CZ56Isyt2wDLZ1zlQjj/uFWemTHp6izb58NoSipBfEMtU1GRCEOQkRJAz7jktBQ2oRvErgnhRqm0RxT02Qqm3jb7nNVf5jSiV8P+VAlqAoqq9jadDs1dWy0W6ljdDREZyx+P9WUrrc+iqIoMx9NE7ODg20baWPjp9guGuatHFpY/Qq6aMVn6f6X/olaexIPaY6BQi5f+w22m/Lprk2vYzvKDBRSVriYrtlwO9tQWtavpBbY7HBBqQxhuc/GvNjvvC/gt1MKmaAJUQGVBOYRGUWKtZB94KMQUhIC4OFjrqdRTgTsEOXWKZnLnpb7qa1nK39whbS05kppt42Os/1DGGkqtSC2VRWvpILcctrVfDdfZw/7hqSEbzKTFSqKoqQLTROzlwe23EjHujbZLaK8QDktqr6U9rXcx4bqgPWNh+n7hAFB9rc+aP3gG6Bzln2EGuZea30UJTWIPS82/SgFQyMioABsdz8EFJvumL91PFRATUAwGKSmpiaqn28mww2FQuybQyH72LAQ1cp//FYwybYKp4xnz7H76Om9X6bhkT6OET7OxMvomg2/ps0Hf0B7W+61oVIHSlsvWvUF6hk8Ss/s+yqNjAyx3ygtrr6czl72Ub5+hQ2pKIoy/WiamL0c795G/7f1xgmE0ng4UzRiO+FdLpvzajpv+afY/gpYX0VJDa4rDsRT89GjNML2/bz6+dJyLIBWZNamT4TWi44DRtfbsmUL9fX18QMOsZgK8cPGsIfoZGbCQK3iYYt4QpYxwQNXMofDHY9xZgFDAe97lAaGO6WtP4bbHQp1p8F1yQSUW5tuE0MBIK6hxM4N76soinKy0DQxe9l3/I/8LqYqngDiTLTthHfZ1ruLugeOWB9FSTHWmEdc6x/ol/VkUQGVgOPHj9NLL71ElZVVtKyhgR+uX4Y7lKZ7NntATROGPRQRxeuo7eNVJWvAy45+4cMjPXYtPaDEtaN/u91yIAGwil5RFOWkoWlitoKhy9PxzDv6Gql3qMluKUrqgGjKYcMdy7z8PBoa4jjMyReEEez82LQsFm3CFwOq9Pbv309tbW20dNkyKist54TBjB5km0iSDyNEsB86mYlo4keITo4qnrKLjY3/FtVeG1x12q3UeOS3tOvYXdYndYyOBumilZ+nh3Z8kIV7ufWFv2nGgmYriqIoJwtNE7OXwx1PyaS4qQajNy6quoRKCuZbH0VJDVLMwvZ7MDRK3V1dtH/fXlp76mksoDCWAeZxRYsyEzYeWgPlYXBwkLZu3SpN9tatX09lZWV2DySpmRRXapvsw0WzPcxbjL5RKp4URVEURclkBoY7WCh/lu589rV096YbqPHonTTCgjUYHOB9XWlwnXL+geF2enj7J/i619Kdz1xNrT072PhN/dD4SvZhWpD5pAIFJFurpALK0tHRQS+++CKVlJTQmjVrKD8/Xx4onqyII/5QUc2H/k542DJMeQ5qnszxiqIoiqIomcz2w7+k/a33y6iK3QP76em9X6Kh4R460vk4bT18W+pd063U1X+AtjT9jA62P8LXbaH+4TZ6bOe/UnvvLvurFGUKSBUUG/G8zPH5WaiPsKlvJtKFOJ9IoKuAYjDK3q5du2jp0qW0ZMkSI5zQstE6GSQCNU526QaKgFMURVGUTAGtMJ544glqbW21PooSYezExT4aDLbZ9fQQGumn7UduI7a6rA+xqNpP3YMH7ZainBjomgPxZEA8m9i+z2oBheq63bt307Fjx2jt2rVUXV1t96B2CQLJNdsjGRPeiCfe5qWKJ0VRFCXTQL5433330Te+8Q36+te/Tvfeey81NjaaDtaKEse4HCFMnJteMLqjoqSSsBnPS9j3AOkfvJNpxpe1Amp4eJi2bdtGAwMDtG7deiosLLR7IuDhQixJvycRTZ4HriiKoigZxrx58+waUXt7Oz311FN0++2305e+9CX6yU9+IrVTGKVWx59SFGX2g+45bOdbARVO1ZJI3rJSQGGQCAxRnpeXT6tWraFAIFcyg0QZgtY2KYqiKNlAVVUV5ebm2q0ImFQeLTZQO/XNb36TbrnlFrrnnnu0dkpRlFmLse9HZVRtgMl0pbIkCQWVdQIKg0WgjXdNTQ0tW76ccnx4TPygWIGOJ6IURVEUJdNBSay3FioRqJ16+umnpXbqxz/+sYxiqyiKMqtgtQQV4OpJjHDibWl1Nr5EyioBhb5OO3fupEWLF9PcuvkUDIYoFMKoG6Ph4QsVZTby+EO7pL/C3XffTZs3b6bu7m67R1EUZXIkI6AcZ5xxBr3jHe+QkWsVRVFmI6OhkCxzcwNmoDjpCTU+WSOgULOEJggrVqyk8ooqEUzQmZgcF2umGg+PY+KHpiiJOTnx5/xLGuiGG26guXPnSg3rt7/9bWlmgyY2bm4zRVGUeHR2dtL27dvpoYceol/84hfSxH0i0Mzvuuuuo9e+9rVxm/xF0DxVUZSZCVIn2P9uyPKAHwLKLzVSrlYqEVkhoNAqD0KppraWCouKRUxhGwIKTw/7zfCF6EwGT0WZGF9OgP9KLLKMUp4/Mht+OvDl5FJd+cW8Frmu31dA/px8quX4fe6559Lf/M3f0Mc+9jF6wxveQJWVlbRp0yapnfrOd74j/Rd27Nghg6coipJdhEIham5uphdeeIHuv/9+uu222+imm26i73//+/TMM89IIeP69evpmmuusUfEB03g3/e+99GGDRusj2GmpYmKoigTYQSUqUjBSNvJzvHq/yxj1zMSiKPQSMjUNLFGCgsnBg8qgFH2/Bhpz42ypwpKSY5cfzE1tT9OoVG0/R+leeVnUUPta+lwxxPU1rvDBEopI7R87tW0oPIiOtL5FA2HesX3tIX/REtqXkE+H4wXA+JxaWkpLVy4kE499VR62cteRvX19dTb2yulyzCeMAplW1ubJByYQNp1olQUZfaDPkmY4xAFJs8++yw9/PDD9Kc//UkGgsCgDxgsAtN3XHbZZXTJJZdIOrFs2TIpiKmoqKCNGzfaM0UDgYXa7vLyscJoJqeJSmo40PoX6uzfY7cMK+ZdR60929P2jhdXX077Wu9jO63A+oFRWlxzOVUULbPbijJ1kCZidNH58+cnrQNy2HiKFNtkGNJMjx9EKGQGhwhBPTF4NljzEybGzZGBJMzkuLJbUZLmePdWybTR2bC8cDEV5tXQk7tvol3H7rIhUsfoaJAuW/t1qq84nzOqnTQY7OAY7KM5padwPM6zoZIDJc0wrvbu3SvuyJEj0vwPk0nDLViwYIJmOYqizBS6urro6NGjUQ79ICGG0J/JOXzjeXnJpRVoBox+ww4UsFx55ZV01llnjWtgzNY0UUmOjY3/RvtbH7RbhqtOu5Uaj/w2be/4opWfp4d2fJACvohoHx0N0UWrviDiSlFOFKSXu3btotNPP936TExGCijcEtwICyZMiYWl+PE+Sff5j4+3/Lx0pe6zRTzhPiZSx/1DxzkD66OywkWy7Y7xHpvIr6V7M9WWnSbbscQ7RhlLuoyFEc5ILrfGQqrBvGgHDhygffv2iaCC4YQaKyeoUCqjNVSKcnJBoSBKSb1CCU3ygFcowWFieDe3yVS48847ZUAagBqp66+/XtKEqTAb00QlPjNJQK2r/hT5B5fSihUr4s7lqSjJgn6gsH9OOy2+/RuPjBNQ6CwP42/BwoWcuMaIJzjUOOWweEI5FWqeTiCDORkkI14Otz9Bh9ofpTOWfIATnLzwMd5j4/k1tf+VdjX/ni5e/UXZjiXeMcpYHt/1Odp97J6UP6O8QAVduvrLVFO6zvqkDzT/2b9/f1hQoakfaqWcoKqrq5t1346izCbQpATiyCuWkLehaW6sWCorK7NHpY7HH39cmvquWrVKBos4EQM1E9JExbCx8V+tgIq8y2s2/Iq2Hf5ZGgXUF+npff9Ng8Od1tcIqNUVn6SdL/RLPoU8CXEVDs1TFWUywMY5fPiwNFFOlowSUBBP6NcxZ84cmle/gAWUFU/2DtFMT0QTCyizPvsMwGTEC8I8t/8bUipXV3F2+JjYV+38sBwO9tHmg9+nxTWv5MxorQ0Rjfc8E/2GbGY42E8P7fgYNXc+w88pNXEMQ2qeueTDtKruDdZneunvN5mUE1RoMrRo0aKwoELTII0TijI1enp6pBmtVyzhG5O8zCOU8J1N13DhKEA5dOiQ9J880W87E9PEbGVr0+30/IHv0igFeQuDhJTQtWfcSZv2fzttAurSNV+jnoGjbNfcwnbdsPjXlZ9P5y7/OBXnz5UWFHv27JH+fpjYGWLfiSkU/GnepExEe3sHi6hWsWcQX5KJMxkjoGDgYbjmOXNqqX7BfArafk/u7sLiiT/42Vjz5EhWvLT3NnJC9zO6YOV/0I4jd9Dxns18bKSfF54LauIwQlLD3NfR4HAH7T3+ezpn2SfJ74vf98VdO9nfkM30DrIR1Pk0r5l49uy+W2g4FJmbqSivlk5d+D67RbTt8M+jOuaizrSu/BxaUvMq2cawmkvmXCFGw0wAg1FASDlBhe9v8eLFYUEFw09RlGjQBA8lnV6hBIfR8bxCCQ4j3WVSs9lMTxOziZcO/YT6h1vk2S+RQtf109LPrfHonRwn9vFVfXTKgvdQfm6pDRUB9gmEP8QUHPKmlStXipjCICnat1eJxWgFpDBs33Ia7fMlN4x5RggofCCm5qmW5tbVh5vtIV3Fwo8HwWk2MiMk3bPZ+Md9JfP7O/r20NN7vkItEE4YfjBnRJ6FO9Y9H44xIpjyAmV01tKPSAaVFyiWMLG4ayf7G5QIdz57LfUPtdgtooqiBnrNaT+2W0R/3vohOtL5pN3Caxml1fOu53fyIeszs0FpuVdQYZCKJUuWhAWVNqkYH3xT7X07qaxgEQX83pGmxgfHdQ8covxAKRsTFdZXmQmgVDxeE7zi4uIxYineiHaZTqaniZmOmTcnUlI/Hf3cEAfwHyRrg6DAwokp1PIiX4KYgqjC6LNKdoM8FA5jzMEB00ptYhE16wVURDzNoToWTyE8DKecGNy7348hynP4gST/0c1U8Lomuofmzk301N4vUVf/Pt6KCB7vsfH8MHdGfcV5dOHKz/GzGltDF+8YJTmyzVhob2+PElSo8fUKqmw0GMcD39TTe26ihdWvoLqKs6zvxKBPwBO7v0inLnwvVRY3WF9lukGNrFcowXV0dMhADrFiqaAgeYGcyaiAyiye2PUFFlC/T7ltALvk0jVfobllyY+OlgjYizt37hQxheH8UcvrmvphxEol+5DRulkuhERA8R/+Ly3V/NAM47dWm9UCyokntAtHB0LUPImAGjUfMJqoBfxORWZGRf944iUYGqS9x++nZ/d9nUIj/dY3coz32Hh+jjoWUect/xQV5dVYH8N4xyjjk+3GAkYOg5ByogpGpFdQaUkgvt8B+uuu/6Bzl/0L5edGC8xE39yhtkeovXcPrV/wdt6fOKFXUgPeQ7wmeKhtihVKKNTTkSsTowIqs2jt3k5/2f5RGhhuTaF9MEpLa15DZy/7COX6UzvKHprNIi9ytVP4Vl1TPzRH10GSsgMRUKwOgsGQjNqNqIs3j9efsQIK4gl9npBRYYhl3Aaq3+RmXD0cGxQ5PjNgRKaY+4kMKdDc+Rw92vgZmQsDrK1/G7X1NtKRjiflGO+xbh1LtDFeN//t1Ny1icNvl4xqbtkZdPmaWzjyRAwA7zGJfoMSHzUWIiD+oCmTE1TorI6RxZygwrKoqMiGzi62Nf2UcgPlNL/yAmpsvoOGg2ZiUMQITtDMKi/nlp9JtaWn8ff+Cbpo5U1x+wIoJwaaoSKeeoUSmuRB/HuFEgrvMMy3Mjk0Tcw8MBdX49Ffs31gJjDe23IfhUYGZB2gq8Ci6svsFkYM/iv1DUXmGsM7rihcTnPKTpVtP5/nTH7f02HB4fuGkNq+fbvUHjc0NIiYwhDp0zVwizK9sCkibmR0ROaJDaH/Ewq92DMgA875REglYlYKqFjxBHAb5lb4bnPsLdlBEzLJ1sc9xhMvA0Md9LtN13EEwAzwOVSQO4euXP8/dLBtIz134Bt83FDUsW4dy8U1r6Jzln6Udjb/lp4/8C3294v/sjmvofMbPh33mHi/QUmMGguJQQkQMi8nqA4ePEiVlZVhQYXSwGxp9nSo7THaxN/gULCHBofbOBaE2DfyrSFewJjI9RdTwF9EK2pfRyvmXcffuxrwJwLylNhR8NAMFX33vGIJTuebSQ2aJmY+s/Udo0+vq5lCfoSR/FxTP21+njmwKSsOAgoDz6EFm+vqk5ECKp54cphbwd2bbf4W+UHY9QwhkXjZtP87tPXwT+wWwoVoac2V1DVwgFp7tvExvqhj3TqWmLF9QdVF1DvYzGG3yH5QkFtFF6z4d5pXfrZse4+J9xuUxEyUkTyz9xu04+jP7ZZ51qvq3kRnL/2w9cke0LQC8zE4QdXU1CTNoVztFIZPz8vLs6Ezg9DIMDW1b6THd3+OE/JI89uJ4CSe6irO5XjyESopqLe+ynhAGHmFEtzAwIA0BXciCbVKiHOBgClJV1KPpomZTyaIZMyJiP5SEFPoP4U515yYmurE0srMgJMUcSP8Lxjkv1YzwL7NOAGFduZbtmyRjrnZOrY/XlfsfXf1N9GjjZ+ijr6d1icad4z32LF+iAbR58W+M5f8f7S67s0cJiLAvOdRkuPeze+UoeUd88rPosvX3mK3iNp6dtJ9L72bn21Q3kR+oIIuXPGfkxpQIFNBUyoMS+sEFQxeGLlOUC1cuHBWG7qhkSHadvgXtPXwT2k41GN9kwffY1XJarpszde0JsoDhHi8JngQ304oOYcaT03TphdNEzOfTKtlRGsJ1Ei52inYpK7fFPIjLXCZXXDWKQ4C6lhzCxUUFUkLA+QFRkChL1QG9IGCEbVt23YqKirkiLqcfUbkJrMt04snXnY130NP7fkiJz0YVnQs7hjvsfH84jGv/Fy6aOXnKS9QlPQxylgwBwrm5QqO9POHWUinLHzPGGP3UPtGOtj6FzEWFlReSIuqLzU7lCiGhoYkE3OCqqWlRWqjnaDCejo776c6/u/G97v3S4QJImEkLqi8SGb6R1xJBH4DRt1DLTHm1oHhMafkFLpw5X/KxJLZBmqQvEIJrrW1VfomxYolDCOunHzSnSZu2rRJmv/qFAonj0wTULFgcCQnplA4g3mmIKYgqmZ7P95k8rn+oeM0HOqjssJFsh3PRkzk19K9mWrLTpPtWOIdkw749BLnMADd1q1baE7tPKqQwjSyAordbBdQUP2YXRq/tGHFCv7VqFZj8cTbuNE0Pt8ZR7wI1Xj0tyygvpQwosWLjPH84oGmgG84614qzKtO+hhFmU7QxAIDUThBhSZaqJVyggrNsVI1ohIKcn75y1/S61//+pT0hTnevZUe2fEJ6h8+zls5bCC+kl7W8Gl6YMsHqLXnBRMoDhBal625WRK/e154Cyf0ufJd1leeR5eu/mpGf5/o4B0rlvr6+qKa4MFhWGKdNDN7ee6552jjxo303ve+N2sHpTnZZLqA8oKpDGCnQkwhH0J6tHr1ahFUaDU120jGzjvc/gQdan+UzljyARYceXFtxHh+Te1/pV3Nv6eLV39RtmOJd0w6gPjBNdD/aetLL1L9goVUWlbG1yTK9ftFQI13+RkvoPDr9uzZwxlkLzWsXC1zOgE/G0RyYxwgm4abjBeh2nt30tHOZ+zWWNwx3mPj+cUDndhX1L6BcgOFSR+jKCcT9JN080/BdXd3S0m0E1TI2KYafyHUfvSjH8n8IW9961ul6deJsLHx32l/6wN2i6gob67M6fTcvltoKNRtfeORQwurLqHqktX0/IHvWD+MWpVPl675Ms0tn/3NnNAEDyW8sWIJtYteoQSBjFoGTZOUWB544AGprX7729+uzatOAhMJqKd2f4V2HrvDbhm7JBP6uaGgDXYrxBREFUbxc/2m0P1kNtisydh5CPPc/m/IJMd1FWdH2YhenB+Ww8E+2nzw+7S45pVUU7rWhojGe56JfsOJ4BVQL77wPC1etpyKi4r5/ZBMgTSrBRR+WnPzMTpy5DCtWLWG/Lm55mGyf8BvlhNVsWUSmDRz04Hv0eGOjXzfebS89mpaXXc9dfbto4Ntj9pQY3GR0C0T+cUDAuqU+e8QY25j479R71AzX9tPL195E1UWL+djs0e8KrOTnp6eKEGF5l4QUhBUcBBDyfLQQw+JA2gKdsMNN0iGOBX6h9rp989fT8MhN1T5ZHFJd+T7xffcwOnCeQ2ftj6zA9QixgoliCeMeOUVS3A6Z5iSLPgefvOb30ge94Y3vGHcvE5JPb9//gbq6t9vt4jmlJ5Kr1r/XbuFGvhtdN+L75L3gtQs11dCF6z4LC2ousAEyAAQBzEokmvqh/wIQ6NDTC1fvnzGDog0kW3oQD9GNMW9YOV/0I4jd9Dxns18bER48Gl4fZTy/OXUMPd1bMd20N7jv6dzln2S/L74LQTctZP9DVPFCCgWvKERemHTs9Swcg0VFhaxjYvB1WxLt3EuP2MFFH4W3PBwkB94kPIKCmh0xPTxgWjys4DCfRmFmL4HPJPYfPCH9CI7ynF9nUboFWu/S10D+6QJXyJcJHTLRH7xQL+M1264g6/7A9rX+qfwMeVFS6RDL/phKMpsorOzM0pQoYmwV1CNV6uE2ifUQjlQqg3DbM2aNdYneZ7b/y3a1nQ7UmHrkxpqSk5lI+Q/qKRgZvaFwhDBXqGE4cNhVKDJnVcooaYw00ZbVKYfdPT/8Y9/LN/45Zdfbn2V6aBn4Ai91HSrjCwa8BfShkX/QAW50enrwbaHaf/xB8WYXVj1clpS80qzI0NBE2QnpjDCLEaVdbVTmA9xpjCRbejo6NtDT+/5CrVAOMFGZ/uUDw0fi/OIsc4LCCbMBXbW0o9QXfk5vB6/P2qy9umJgjiH/k8QUM8/9wytXncq5Rfkk4+vO6sFFIwa3BgrJAryOwkFQ/IgedM6iCg040vfw51pPL7rc7T72D1R93zRys/RYLArrQLqklVfpkd2fJwjmz98DMTbxatvkmZEijKbaWtrixJUEEVeQYVhawEGr7jpppukaVksV1xxBZ1//vl2Kzme2P1F2tV897jf31RAf6hL13yV5pWfaX1ODkjD4zXBw/16hRIc+ghkU1NsZXpB/5T//d//pZe//OV0+umnW1/lRIAwxTebzgF7Mh20hti1a5eIKSxReOfEFNLFVDKRrRdLMuGbOzfJAEhd/ft4K2JPeo+N5+f3FVB9xXl0IduvGCo8lnjHpANYstAWgxyXX9r8Aq07ZQMF8nJnv4DCrMD4FwqxOoSQsg8Swik3wMIJ/3LS+3BnGo/v+jwLqD9E3TPmaRoO9adVQF286r/ooe0f5mdfFD5GBZSSqWBUPyeosMQkvhBS6Ij+6KOJm8qee+65IqSSFQJbm26npo6Ndit1YOCXMxa/n2pK11uf9ANxiVGovEIJQ4ijRNWJJPRVwnImlbIq2QPEPGqQUWOM0dKUqYH8/6WXXpKmzDfeeKMWfKQIFMyhdYOrnQJOTKEP74kIVbyzX//613TVVVcl3QR6PNswGBqkvcfvp2f3fZ1t9chose4Y77Hx/Bx1LKLOW/4pKsqLbkY/3jGpxAmo/sFBGUTilA1nks/PwomvOysFFH4OHDRTSGqhYKrjJ+bwDeVQgO/GJ833xr+xTEQFlKJML4jrEAYQUk899ZTUVo0HMjsYaLFNz/a03E9tPVulGQsmuEYT2I6+fTIMbKpBwVNV8UoqyC2XGi40seDUlDYsupGvX2ACnQBobodmd16xhGZ5mHjWiSU4NMFD52lFmSngO4Yh+Y53vEOajCqTAwb+n/70J2l6hlrj97///XaPkmqQ7zgxhSkZGhoaJH9B/ykU6k0GFAp+61vfkneGAVXQt3QixrMNmzufo0cbP0ODwQ7ZXlv/NmrrbaQjHU+OsSvdOpaY023d/LdTc9cmDr9d8qq5ZWfQ5WtuYbESEYjeYxL9hlTgBFRPXx/tatxBa0/ZIKIJOiOHl6aLkAkbjxknoEQwjY5IzdMIHjj7wYl4YuGE6j7cUPoe6cxFBZSinDzQBAgT+k4EZqfH4BKupmXPsfvo6b1fpuGRPk63fCxsyuiaDb+mzQd/QHtb7pUwqQQ1UBet+gL1DB6lZ/Z9ldPUIflmF1dfTmcv++iYuXYSgSZ4EIxeoQThBH8nklytEgbi0JJoZTawefNm+vOf/yzDm+uAJMmB2rsHH3yQtm/fbn1IDHmMRKqkH4wk64ZIh4hFHuNqp5IZCfaxxx6TESkBxBMKECaaHy2RbTgw1EG/23QdhUYGeSuH85M5dOX6/6GDbRvpuQPf4ONMfhPP1lxc8yo6Z+lHaWfzb+n5A99if7/4L5vzGjq/4dNxj4n3G1KFE1Ddvb20d/cuWrPuVBFQ0jTVtnAb7/r+zzJ2/aSDkZhy+Iej75P5Z8CAe7gJvi8RTlCF2cihtkdlxBPvC11UfQmLnCA1tT9mfeLjjvEeG88vFkzOu6TmFbTv+P0czo6CaPegs2d54RK7rSiZC9qq//GPf7Rb44PMbuvWrTLCEkbq29J0G7X37UCduewPcsazYu611Nz1nHS8DXGGk1I30i+dsV88+H0aDHbKNfHddvTtpurStVRRtFT8vKA/A8QRMmnMn/PII4/Q/fffLwYThoVHpovM+uKLL5aO+Bs2bJASUdQy4R7HS0MUZSaBOAtbA03QTjnlFO3DMw7oOwbhdNddd0kthhd8/xBRSvpBTT5EE+IrmoojzYWQgih64YUXpAUAWj2g0C5eWox3iMGTAOL+li1b5P1NNKl4vHO9eOhHdKxrE6+ZfcOhbhocbuf87GnqGzR9XIH3WLfeM3CQugcPUmvPVjv3odk3MNxKVSUrqaRgvviBeOdJDzk0NDQog3tgIl3pGsS+0BkTFQrOmCJDNAt58cUXaYBfLsaYQxM+IKKJbwQiCsNnp/9hKoqiRHPgwAEpDUsGZGQo3TOTf+MYpFnR6dbwSI9dSw+oheroj5QWG/BbRsUo2r17t5RK3nHHHfTNb36TvvSlL9Ef/vAHqWFDbdIrX/lK+vCHP0wf+MAH6M1vfrMIJwioZJp+KMpMB/EZTfjuvPNOqVFVokGBCtKHW265RZoux3tGE9VgKOkB+Qsm6L322mvpIx/5CF1zzTXyfn73u9/RV77yFbr77rulpgrvECC9x1xoXmBv33rrrTK8+mTo6m+iwx1P2C0DapH2tT5Abb3otzW+fY4WTQda/48F1BbrY+gfaqX23l2cb03zt8hZoinYZCeCaVQKVCCckpmiZ0Y04cOLfumlLVQzZw7Vzp1nmu7ZX4V5c6Uzl9yfnTw3S9EmfIpyckBtzOOPP263IuB7gCGGuaDmz58vy9jmbJg/bX/rg3bLcNVpt1Ljkd/SrmN3WZ/UgXbmF638PD2044MU8EUED0RV+6Y3Um93KNwEzzn0X9KSeCWbQKf9n/70p1IjdeWVV1rf7AaGOGonvDUWiXjLW95CK1eutFvKTAB9pVy/KTS5xuBHhYWFtGkTaozGgpotNMPEUOqxxLMNdzXfw7bmF6VlUjzi2ZXx/OIxr/xcybfyAkVJH5MK+BIc17to3749tP6UU8UPeiOZJukzogYKMzZjhKu58+r4ZvDQRA9KvycjnjAaRnaLJ0VRTh4YkQ+giQTmfHrFK15B73znO+lf/uVf6B//8R+lFPCMM84QMZVMwnuyuOJ1p8pvxm+H0YimeBBQKp6UbANx/vrrr5fho1HLku2giR76eaJWeiLxBJLpe6NMLxgk4mUvexm9613vktYDyKsQvxOB5nw/+clPxAZPhpHRIXZjp/FIBUc6/ho1ot90AV3hRvSGxHCVNclw0mugMNQtmo2sXruefJyg4efgF5n2h2bkPThFa6AU5WSA+I6+QGiDPpUmbDOpBgqDS2AwCUVRDO3t7fTDH/5QCkGyuUYFNXIbN26khx9+OKlmjZ/5zGdkzjxl5oLWXWie7ZrzJcIVJqCZtiOebdjeu5OOdj5jt8YSz66M5xePUQrRito3UG6gMOljUgUKDNCnDH3MJnO9k1pUio7Z6FuwZMlS+RD5WVkF6MSTabqnKIpyskCCipI87f+jKJkHalLQzw99SDCQSrYCIxp9wzA6IZr0jgfSQhVPMx8M2z+ReAIQz7/85S9lfi8wONxJT+75Mt357Gvpd8+9kV48dCsNh/ooNDJMA8NdaXMomO8dPEp/eunv+drX0l2b3kBtPTtZG6S3bxSEGpisWDtpAgo/GM1iUOVYUVHOP9w02YNgko5cdn061KeiKIqiKNkJ+i6iBurnP/95Us3XMhnUtP/d3/0dnX/++dZnLNp8b3aAvlDJglrH3/zmNzKY246jd9Du5rtlnsLewcO0+eB3Wcg0UntfI209fFta3JamH1HfUCtt2vcdaul+ka/dQj0DR+ixXf9m5zJML1PRGidNQGGSMLS/dJ3X0G8AfZ1QCiJzPdkRoxQvY5+H31dk19JHgK9RmDvXbimKoihKZoFa5vPOO49uv/12sU2ymdzcXLrsssukpgn902PREfhmPqikGE9A4R1DLKMfLEZdxWASH/zgB2n9+vUimtCkLoKPBoPjTyKfCrr699D+1ujpQjpZPPUMTjz/4ongaqAmy0kRUJhXBMMqYp4UCCZ02MIPkRon/oeme2bEPa198lJZtIqfjZuBepSFTQEV5Vbb7fRRVriEGmqv4/fhOprn0PyKS6i7pYyCwaD1UxRFUZTZCzrgo1D3V7/6lTRrymYw2TBq5jAYAQbI8aICauaD5qiYkxBNLTFQ0KmnniqDH2GSd7zTT37yk1LTeN1119EFF1wgc3pVVFRYu3us7Y3+8OkGoi00Ov2FF66v1WSF1LQLKPxAzEGCoUPdTP14X/GcEs3q+jfRhoX/QCvnvZFWzbueLlzx/2RizHTj9+XR6Uv+iU5b+F659rr5b6Vzl3+Snn1qC918882S0GIiN0VRFEWZzbz61a+WFjH33nuv9ck+0HcG/WFe85rXyFDXr33ta2XY8pKSEtmvTfhmPnhX73//++lTn/oU/cM//AO9/vWvpwsvvFAGisD7m8mjxU4n0CSlpWW0ZMkSGhmJTKGUDNP+BJuamqStJUo2YlHhNDGr66+ns5Z8iM5c8kGaX3Wh9U0nkdi0bv475NobFv0jFeVX0N/+7d/SO97xDhkM5Dvf+Y6U2iHhVRRFUZTZCAzLN77xjWKrYFS6bAPNFzGgBvqEeZvvYYTCf/qnf6K1a9dqDdQsoKysTMYYUKE0PhBQGAG8oLCIRll/eOehnYhpfbJouodqRTTd05c6dVDV6G3eiBFK0jVKSUGginI80SS2ehej9Vx11VXSdnbx4sX0hz/8QcTUs88+S0NDQzaUoijRaEmRosxUUOuCGpenn35aJpbNJjBp+LJly+IO6Q5B9aY3vUlaECnKbAc6aZTzYoimEd6QGij+l6yImlYVg3HWa2rmiNJDLRR+YLJKT0lMXfk5VFt2Oj/L1D5M9HlaU/82yss1TS3HAxnOueeeSzfeeCO96lWvosbGRmneh8QY82woSrbiy8Fwv95vc5Ty/OkdEt2Xk8vpwsW8Frku+k/6c/LtlqIo44ESfPQXQVM+9NnOBpBvY3TkK664wvqMBYWoWgCuZAQQSrbZXoiXEFChEGsTqKkkyjin7StobW2j3t5eqquvF0Mfqs+QWqM/08AY/sePHxfxmYjSwgV02ZqvUUPt1dQw9zpx5YXL7N4I8ytfFt6/oPIia9hFwFuZX3lBOMwZi2+kdQv+dky48UDiihpGZDzve9/7ZPv73/++jGyEGbFTLfIUZaazbM5VLJgq7NYozSs/iwoC6RVQfn++fL9F+fOsD9GpC/6er3223VIUZSLQ+R6d7DFHTltb+kchO5n09fXR73//e7lfFIgqSqYj9miOT5YY+Rub4rAvicmkc/jAtFu0UHSbN79A8+rnU2VVtYy2h4lyc/DbZT17SzNQE4cBGDo6OqSmJnaJUVTApZdeKpPcyYuWZnTj88zem2nH0V/JujsGIquu4lzxO9b1Aj20/WM0FOwOnw8C6hVrv8lG1pmyHYs7T7K/wQERiLkFnnrqKVk/++yzZejMggI3oqCiZDbHu7fScKiXvxsflRcupsK8Gnpy902069hdNkTqGB0N0mVrv071FedTW+9OGgx2cObgozmlp8iAMIqiTI5nnnmGHn/8cXrPe94Td1jvTAB9mDFs+Xi1T0p28Piuz9PuY3+IsvMuWPHvnIf101N7vmR9xhLPRkzWbsQofxev+i+2Sz/MGqEofAzvoYtX30QLqy4xAVMINBLs3mAwJE345Nfxdf1+dryB3zDeb067csH9ozNmbl4eVVZWyY/DD4Wosj83q4BYQinPj3/8Y7rlllvoc5/7nDR1u/XWW+muu+6ihx9+mMXmZjpw4EBYPKEpwXiT2s10MN8AhkHFSDAYzQfNIb7+9a/TPffcQy0tLTaUomQuNaVrqa7ibCmcgHhKJ8hyHFXFK6iu3FxXxZOiTI2zzjpLRi9DTVQmTt0BmwN58eWXX259FCWLgFjjxWRHEpgWAYX5FOYvWIiqJqlxARB1OTmTq8nIBDB0e09PD+3Zs0eaBLjnMR4Yuz+PBWgmgIEm0An1H//xH6Uk77bbbhO3bdu2pJ6FomQKKHEzJWyppSC3hvL8ZXZLUZRUgMlGi4uLpaAzHviW//rXv866/lIo1EVf5de97nUyZ5CiZBuwPYNTmPctrQIKtsHI6IiIp0IMHIFaJ2sw+GSi3OxrugfBePXVV/PzKLQ+44OZojEzdKaBWjU0S8Tofaeffjo99thjUiuFYWPRFltRMp2zlnyE5pafyUli6goOMBH5qQveQzWl66yPoiipAHk3RAaa1v/lL3+xvgYUEqNFxZ/+9CcpHJ1NQBCec845YmsoSjbS2dFB+/fsslvJk2YBZQwDtDF0+DgRQp2TEU+pL32dDaAWChPUJcOVV16Z0X3EUOKFGbLf+9730pvf/GYZMANNGzEPBYa8V5RMJTdQSC9r+Ayd3/BpOm+5cbn+6BEvi/Jqw/vgYgeHQdqKgSHc/vMb/pVW1r3e7lUUJZWgOToGSEKTt+eff178MG/Sz3/+c+knBWbTXIgYph3zOGKCVUWJMNY29/vS3/cvwNcozJ3+IfKlIdwUWoOkzTJHdbYMCchulCUTfpqpdcrhFwERNSLr2daEz7Fu3TqZkG48EGbRokV2K7Xk+ospPxAzm7hEoJMnalEChhGAMHs2JoD7xS9+QT/4wQ9kAAqU8ClKplGcP4+W117D7jXiAv7ogVXyAmXhfXBFeXPsngjlhUvC+5fOuVJqoRRFSQ9oxoc5oh544AF66aWX6Ic//KGMMOtAE77Z0E8KXQhQk4ZaNb/fb30VhaiyaJVMe2EYZWFTQEW51XY7fZRxXtZQex3rAhcfc2hB5SVUVTy+rXzCsA6ZiuWbXgHFPwk2uRtnHS9CRBOvZatwcuD+TzvttITPAQka+j5NlYA/n59z5PX6c/L4WpH2zaUFi2hO2Sl2y1Bdsp6K8+rs1skDGdRFF11EH/jAB+hlL3uZTMqLgTYeeuih8MAaiqIoinIywATyl112Gd1xxx3U3NxsfQ0QT4cOHbJbMxP0+fjtb39LL3/5y6mmJr2D2iizj9X1b6INC/+BVs57I62adz1duOL/UXVpmkUMg4GOTl/yT3TawvfKtdfNfyudv+IzVJxfa0OkB6iSqfRH9n+WsespwfwIjLQ3QqFRiAPTgE+GLmexgOHL/T5TE5WtYChvlF6h3w9G94nX6RTCATVQ8Ujm2aFZDyRsYW41VRQ10PoF75Rhjd2xaEK5qPpi6h9uYzG1gMXTGjp98T9RedFi2Z+IyPHpf3+4BjIqDHne0NAgE/yhnfnRo0eppKREhlxVlExi25FfUDAU6QNYkFvFGcnr7BbR3pb7qWewyW4ZakrWUX3l7B2lU1FmG5hwFqPpJmoZgbxp6dKldmvmAdujs7NTuhJMR16uzD7QjxY2Y33FeVRm7cK23u3U1P6YrCcino0Yzy+WUQrR2vq/pVx/Ec0pPU2ujTkTY1tlpBKnmfoH+qmnu4uqa+bIb4ROgWbB+ni/OQ01UBBPbLpDPPFS5JT9IeZHQTyZkNkISqa++93vykh8GIkOI/vEDhLhamBOlFNZxV+48v/RBSs+y2LpUusbzTlLPyZh0A+jomjs5LszhdraWhl8A4NOLFiwQPpIfe9736NNmzaJIFUURVGUdIN+Q+jzNDQ0ZH3GMpP7QaHGDKMFXnvtteMah4oSKyAwrkEqBz3yUhCoimo1Za47PfFT2sVNvgIqtQIKag7zOzU27qBhTlywDRd+DFifnucx40C1Pmqd0K8HVf9vfOMbwxPyXXXVVSKaHBidLtEks1NJ8Nwx3mPj+U3EVI5JNXgu5513nvSTwnPcunUrfe1rX5Nni8mHFUVRFCXVoNkbhvtGK4iJmvugoHQmFuzBDrnzzjul4LaiosL6Kkpy1JWfQ7Vlp08Y/ycL+jytqX8b5eVGD6I0bbBJa6p7JkfKa6Cajx2l4HCQ/IGA+Tn8w2Bw+/w+GU3uJNreJ43Dhw9LbQk6baLWKbZpHoTUNddcI+uoacGks8r4IE6tWLGC3vrWt8oIfmhKgWeMksHZNoysoiRLWcwofEhkp5LwK4oyOZCvvPDCC3ZrfJAfzcT5oNCPGMIJU4coymQpLVxAl635GjXUXk0Nc68TFzsyLJhf+bLw/gWVF5HP0/8eIM+aX3lBOMwZi2+kdQv+dky49GNq03KQhbKbrCBKWR8oCNJgMES7d++iBQsWUW5evogl6fcE52lTmC0gEUWChVIrzPCNGpNEE+KiIyfml7jgggtkBDoleTCnFvpIYS4LlLA9/PDD9OSTT8o+PFedHFCZblBCh4IT9NWbTJq39/j9NDDcardImtUum/Nqu2X6RO1u+T2vYYgeovzcClo//11UWqBzuChKOqmqqpI8BnkKBjOaaEAjzHW4bNnMaRYPQfd///d/UuiYKRPzK+klXt7l8wVoQdXLWRhdIK6r/wC19myxe80xZy/9CK2ue7PsL8qvpQOtf6HQyFDU+c5Z9nEO8yYJU1O6nszwchFc2Mnkn5MF+TS0y8DQIHV1dlB1bW1YpyTTByqFg0iwwXDksMzmO2/+AvHBZfEjRDxhPYPnM4oFAx387Gc/ExGFIU8XLlxo9yQGIkBHxJk6GLkQQ6GfffbZUpOHIWbvu+8+yegqKyvDTSYVJV1gVn/0kUAH8927d0tcnAzosDsyEqTyoqU0p/RUOoszIm8n2sK8aqosXkn+nFxerqC19TdwZnaB3asoSjpBHjNv3jw688wzaeXKldKsD3MXYhkLjLOZ0poE/bV++tOfyryS8+fPt76KMj7JiJfDHU+MEVCYTgODk4HewWbad/yBMQJq2ZyrqGScgj8XNpnfcELw+YcGh6QLyBwIKJYprtJnomvn8EeOgswTBh8oJpdburyBiopLWTzxafniAXaYM1cm0J3gx2QCEEyPPvqoGFFoZ4wR5JSTB0YawgSHzz33nGR8KEFE079sEvNKekFfh+3bt8vEmmjm45JUDBGMWmdFUTKXvr4++faR56MViQN5zCc+8QnKz8+3PicP9NvChL+vf71Osq0kB/KxZGz2Z/beTDuO/krW3TFo5ldXca74Het6gR7a/jEaCnaHz4cmfK9Y+02aV36mbMfizpPsb5gqyKrhOrs6ad/ePbR2/SlSSIIrGs1iwiUiZTVQR44ckZudVzdfLo6b9jbfS+dDmClgdJvbb79dZvZGNfnixeMPCa6kHww6gWYU5557rmRoGL4VDiWGqO3DzPKKMlmQ1qFJDJqL3nXXXTLZs9d4AihAQTMeRVEyF+QhaGGCwjmMEAuh0traKmnEkiVLpOnfyQQ14Rh1Dy1htDm7MhmSsdtncw2UOzUKQdvb21i/1LF+8SUlnkBKiuFhjEI81NXVi1jy+33sIJ5Sqx6RILX1NlIwNGB9kgPHdfUfpMHh9IzShvtHrdNtt90mTXbe9ra3qeE0w0DGgYmL/+7v/o7e8IY3SBPLr3/963T33XfLuqIkA6r5IZq+8Y1v0A9/+EOp2YTBFAtG1URzUkVRsgMU0KF1A4QKJoFHf+Zjx47JPtggE9E/1Cp2isMd4z02kV9L94t2ayx//OMfZcjymVATpigzEegU+aZGWLNYv2RIiYBqaWmRj7OsDE33+MeIg4Dyi4pLpYjadfROTixeslvJMRTsok37v0V9Q8etT+rAvf/gBz+QSV5hnOsIejMflBKiKcM///M/y4SHqDWEMbxlyxZpgqkosWAETRSQ3HzzzfSXv/xFtsdDm4kqSvaCPreogT7//OQnuG7v3Unbj/ySgiOJ55eKx5HOp2hr0+12ayzvfOc7Z9RgFkp2kesvpvxApd2ySAFApBDgZOM0imkth4of2ZyQE87hodrQfK8OVV98VRkwwjojnmzAFIDzn7Hkg7Sz+Q4aHO60vhG8pTJeWrpfoKri1SmdKBa1TqgW/9GPfiT9nN7+9rfrvAqzDIyQdvHFF0tpIZr4PfXUU1IrhRoGTHSsKA4YRBDeyYIO5oqiZDeTKTyeV3EWYRjntp5t1icCbJt49k0w1E9HO56m1fVvtj5j8c4xqSipJuDPR3WJ3SLy5+RxvI80FS0tWERzyk6xW4bqkvVUnFdnt04uTqfg+0Kh52S+2RMeRAIlsfv37xcRMZkLnwjbmn5KuYFyGUe+kcXUcLDX7sGtuN+QQ3PLz6Ta0tPo0cZP0EUrb6L8FE3ShfbNv/vd76SzGarGYVwpmQGa80FIYYJeGMGuXbuiABSa/OlPf7Jb8UEi/PGPfzzhZNiKomQXMLOSsY9aujfTzqO/pZet+Hfac+yP1Na7nY81Bh5w63n+Ulo85woaGGqj3cd+S+cs+xQbsvGHJnfXTvY3KNkL+gKhOw5snsnEl80H/1eGM4fdvaj6ElpYdUn4WHeeJ/d8iW31HvL78mlN/Q3jVmhMd5zFQDDbtm2T0TUnwwkLKDR7wrxFGOFsujjU9hhtOvAtGuKXMTjcxrIJza4iDxkjfKAJIaoOA/4iWlH7Olox7zoqyD2xGiI8Kswv9Mgjj0jNBYzr6Xi5yvTT399PmzZtkpGVMM8U3vX69eu1E64i/Z4wTHmipHPp0qX0jne8w24pipLtJGsI9g0eoyd2/xd19u+RVjah0QE+FqIpYozC1MkZ9VFBXqUIqTOW/H80t+wMqQmIh7t2sr9ByT5QcAx7BxNFox8/5i2dSnyJF9emEv+mcsyJAAGFQvOzzjrL+iTHCQmo3t5eUW2Y1Rq1MekmNDJMTe0b6fHdn5Oq62RB9SKGVMTkXuON+jEeGGELtU5ounfdddfpZLdZAt73zp07pVYKiQz6uOEjQ98pJXt59tlnRUTF44orrphU3wdFUTKbZAzBtp4d9NTeL9sRzSLGo/fYeH4oKF4659V01pIPst/YXhnxjlEUjBaNuTJRIIhJ3x3oM4fRI7MJFJijMmhaBRSGx0RzFQzXjQ8znR8nhkDcdvgXtPXwT2k4NPn+KbjNqpLVMj79ZGqicBzmEULH8QsvvJDOO+88uWcl+8CEiaiRwnxnSGBQK4XaBiW7QMZz66230pw5c2T+JzR78PL+979fC1gURQkznngZGQ3R0c5n6Kk9X6bewYgh647xHhvPz5BDK+e9kTYs+gcWVIXWz5D4GCXbQBw4cOCAiCYIhmAwaPcY8vLyZO6y6agQmSnwI5F5bA8dOij2HL6RZL+TKQuooaFhev75TbR27ToqLC7iE6V+0Agvu5vvoaf2fokTm2HKD1TQgsqLaH/rgxQcSVwThVurLG5gwVTFCdTT0rRvTskpdOHK/6Ti/Lk2VGIwZDGGucYwxa973etk3iBFQXxAVTfEFD40CKlTTz1VEh8ls4FY+slPfiKD5rz61a+WuaB+9rOfiagCEE4QUIqiKI7xxMvx7i20sfFfqXfITKexqOoy6h5okv5POMZ7rFvHEl0XFle/gjr6dnP4g2LfLKt5NZ3f8BkOEynk9R6T6DcomU13d7fYLGimhz78iVi9ejX9zd/8jd3KDvizYDfCXw9/IyMj5PO50cNtgHGY0kS6uOCRo0f5cjlUU1vL27gStkbS8oEe795KT+35LxoOdfNWDs1n8XTe8k9QU8fT1D/UbALFoSC3kl6+8ovSfK/x6K9lWHVM6tU1sI+W1Fwx7m9FE53f/OY3YhhjoAgdyUZxoB/U/PnzRTjBYMYkqvfdd5+M3IdJE9FnSsk8MMT9L3/5S5nj7eqrr5b0A005GxoapCkzxBUG08G2oiiKl3j2Rig0RA9t/zB1Dx7irRwqzJtLFzR8lvy+Qmrueg4hJJz3WLe+uPqVdM7Sj0khcnPXs+zvk6HQc9jOqS2LHtTLrcf7DUrmcujQIbr33nvpD3/4A+3Zs0eaqo0HWlhl0/yFRjyhFpj/4Nvg/9Az7iuZ6HOZtIBCKUYoNEJ79+ymefyg8wuL5OK4jjj+k+qP9Ln936TjPZj7yZx3ONRL+bkVtP/4fRQaTTxnQmhkkAaDnbwcsImR+W39g8c5gVmfsD/UXXfdRY2NjXTDDTfQmjVrUn4/SuaAERgxuAQchvNHYrVv3z4RURBTGncyA/SF++1vfyvpH+YQ8zbjxXD4KLlDmoHJM3VUTkVRYomXFzQ230l72Y5xts0Q2yvF+bXU0r2JOvt2h4/xHuvWewePkt+fz+H2UtfAfvHDvoHhNppbfrq0vHHEO4+S+aApHrqgoAYqGdCqIrsKgEclbx/h7w+6hlfJ5zc6R6ZisqESMekmfAjdcryVmpoO0uo16/BFhoVTgI0KM/9T6j7S/qF2+v3z14tomhru9iK/CbfcUHs1ndfwaesTDWYPR81CNrUDVVIDaiHQMRODTqCpH0a0wSArOqT17AYleGj68Na3vjXhSIxdXV1SU63phqIoXmBzxNpFQ8Feemj7x0UsxcMd4z12rB/sm+jzojnSOcs+RivnvcFujz2Pkj3ADvnVr34lYxaMRzY2PxfxNOqj0EhIvg/+zxrGTEXi509lovEOJj0aAj7OIjYSFi1aEvkYeYnqY2ym+gPdduR2Gg722a2pgN8T/ZvwGzv7D1LPQPzmf7W1tWoEKVMiNzdXBNPf//3fy2iNTU1NdPPNN4sBDmGuzD4efPBBGaUIbcPHG8YeTfs03VAUJRkOtW2kVmlZcyKMtbdgix3repGGQ6ZfppLd5OfnS2uqU06Jnsw2Fm16PnkmL6D4g0Vn+eKSElZuZhufME4UbwjNE2Uo2IVKNruVOtp6t1GPtDtWlPSwaNEieuMb30g33nijNPPC4AMYvQ3zDaDkQ5n5PPbYY7Rjxw5629veJhmRoihKKgiO9Ek3g3TQ1P7IpKZ6UTIbFPxhIDRMw5KIbBNQqG2CcsnJMa3UjJ6Bf/KVQJNqwoeQITb8QnylEDb4v4+vJdVdrJ18UhOV/MWTYWvT7dTUsdFupY7R0RCdsfj9VFO63vooSnrBIAQQT2jeh+ZemHMACZoOUDIzwUAyjz76KL373e+W2iVFUZSpEK/53KG2R2nbkZ/brbG4Y7zHxvOLx8hokC5Z9WXKzy1P+hgls8FksT/84Q+lqR4KBb2g5QSGL8+mkYT5c7BulIatrsHX4WdRg65IyTThm5SAQql5cAQfJzpemcNwMT9fCZeZ6GITsaflfmrr2UoBfyEtrbmSyouWUEffPuofOm5DpA4M+VlVvJIKOIHZ1Xw3X2cP+4Zow6Ib+fraX0VJLxhwAkIKo7etWrWKzj333Kwa/WamgzkyMLLiu971LhkMRFEUZarsb32IWro2sY2USwurLqE5peupb/AYdfYfsCHGEk/4xPOLB+ybuaWnsW2WR1uafsI2VCv5cnx06sK/U/smC8E8R7fddpvMc/SKV7yCnn/+eRkszZn/y5Yto7e//e2yni3g1uGga/bt30dVNbVUWFggIirg9/G345P18UhaQCEYNFMQtU8h0/xIap/4Ixa1xuJpnO95QvYcu4+e3vtlVoJ9/KN9LGzK6JoNv6bNB39Ae1vutaFSB2qgLlr1BeoZPErP7PsqP8QhucfF1ZfT2cs+ytdPfrJdRZkqKBXCpHaYU6q0tFSGRl+3bp32pTmJ7Nq1S0bc+9u//VuaN2+e9VUURZk8+1oepKf2/jcNhTrZtsmhvEApXbbmZim0fW7fLTbUWGCPTFVAoQbq6g0/p13Nd7GA+jHLKdNJfumcK+nMJR+UgmMlO0DLl1/84hfSjQBT8jgwaiwGl8Bkuq961avoZS97md2THfDnIA5j8G169llavmI1FRYVWgGFiiH/hAIqqSojXIS1Fi/tR4wtWeU/vIIPeZxvOSkOdzwmbYJNj6pRGhjulP5PGIJ8KNSdBtdFw6Ee2tp0m4gngPvA5LxuyHNFSTdFRUV04YUX0gc+8AFZomToa1/7Gv35z3+WZn7K9IKJcSGeMGCEiidFUU6UI51PyPDkxrZBv+5uGWp8ZHQ4jl2SKtdFXf37afexu0VMOfa2/JFaup+3W0o2cPfdd4tte80111gfw8qVK+kd73iHDFuetQNI5IxSf/+gFC7kY6RkFjdGz7A0Et0zPkm2uTPD+41gtt4RjJgeEVE4AUsrBDpBcFaTwDiGR3rsWnpALVRH/3a75cC9pOJ+FCV50PwVcwmhGh2JGia8+/a3v02//vWvaf9+M8eHkl6am5ulpA6dbRcuXGh9FUVRToRouwag8DbdDLOI6hmMbSKo9k028cADD1BbWxu96U1vitvFBvnc+973PpozZ471ySLsZ9nX1yvTzDjhJN5JfiJJ1kCN0sDgILW2HpdmfMAdmOPDRccmEIqiTA0kZq95zWvogx/8oIzkhxKk7373u9LUD/NMKakHmcxPf/pTuuqqq3Q4V0VRFGVW8/jjj0szPQxhjulVEpHNE/6jYqi/r48KC4ukQgg1UuiWlCwTCijTfM9HrcdbqKO9XYSZuZDt94R/WfrwFSWdoFQEg0v88z//s3T83L59uzTv+9Of/kTt/C0qqQFNJX/84x/TJZdcIv3PFEVRFGW2snnzZnriiSdk+g10E1DiwOIGLer6+/uowD0jV/PEQioZWZNEDRRfhE/W1t5GFZWVUr3lHH6AaidFSS8ooECtyFve8hZ673vfKzXC3//+9+nnP//5hLOLK+ODQTwwP9fZZ59NZ555pvVVFEVRlNkHbIL777+f3vrWt1J5uQ4WkgjYUZTjNzVQBUXQTGxr4Y/VN0mQVBM+9McYGhyksjL7Mtigg1F3osOWK4oyOVDdfsUVV9CHPvQh6QSK2qhvfvOb9OSTT9Igf6NK8uB5/exnP5Nh5C+44ALrqyiKoiizj6amJrrzzjvpzW9+M9XW1lpfJRFDQ4M0PBykgsJC62OFVZIk0YRvlNpb20Q8ybB+os5MzdPoKIYzT/5iiqKkBrRpRo3JP/7jP8roOhho4uabb6Z7772Xjh9P/bxpmQaGbsWAEXV1ddI8UlEURVFmK62trdIq5bWvfa30nVYmwkednR1UXFIi2sYMMo5OSagjSq4OKqkqpK7uLipFVSBqndgF/AGpfRIxleSFFEVJD4sXL6brr79exBT6Td16663Spwd9pjBJnBINnslvfvMbKi4ulkEjFEVRFGW20t3dLYMgXXbZZdKiQhkfV8kEAYXKIadlpGWdn2VRkromqRqo3p4eKi8rldl54UZHQpQzOqLiSVFmEGVlZZKAYvS+0047jR599FG65ZZb6LHHHpO+PjMZpDNtvY0UDA1Yn+TAcV39B2lwuMP6jA/CYwZ2TC6I4cq1GXJq6OxvpRcP/5WeP/QoHes+ZH0nZjA4QNubn6VNhx6mfa1bKcR5y0SERoK05/hLckzjsU00FNKmq4qiZCcDAwPSFP3000+nM844w/oqE4FWKF2dnVRZWSF6ySeO7QFURSXZsG5C66GHxROaC0knK+vns0OXq4BSlJlHIBAQAYX5HTD/w7Fjx0RIQTgcPXrUhpp57Dp6J7V0v2S3kgOTbW/a/y3qG0qu2aIbwRA1dqi2V06czU0b6bN/fCv98In/R7c99Xn64gPvpQd3/NLuTUxHXwv9531vp+899mn68VNfpK8//GH6zsZ/sXvjEwwN0X//3430jUc+Ksd8Z+Mn6b/+9D4aGO61IRRFUbID1xQdTfZe/vKXW19lIiBdOjraZIRCOD8LJxlV3Ge6JyUrbSYUUBjiFyXbEGZGoUWquhRFmdnMnz9falre//73U2VlJd1+++30wx/+kF566SWphZkpID05Y8kHaWfzHTQ43Gl9I6DmKB4t3S9QVfFqqihaZn3GBzVOGM1wvHkxlMnx1IEH7VqEp/Y/YNcS89KRJ6h3qMtuGXYff5HaehOL/APtjXS0O3pi6fb+Y7SLj1MURckW0BQdA0ZAAFx55ZXWV0kW9Bkzc2CxXeA3esZOo5s0yQsoXnfCafrE03RdR1EyG/T3QQkVmvedd9559Mwzz8igEw899JDUMk+Wp59+Wmq2UknAX0BzStbRwbZHqH+ojV44+H16Zu/N4p7dZ5bGfZ3DbGSh1U3bj/yCVs57A6dJEyZlwitf+UrpJ6akjrbeZrsWoaO/xa4lpr0vfvxpH+fYtr6x1wKozVKU2YPaNsqJ8cc//lFGyH7961+vTdEnCZ4b+o1VV1ejdFacm0B3MvJm3KeOEure3l4RUOnGlxPgv95S5lHK86d3DHtfTi7VlV/Ma5Hr+n0F5M/Jt1uKklkgoV27di29853vlEn2kIhgGPQ77riDDh48aEOND9IF9K9Cu+upiK/xKC1cStuO/Jzu3fxO2nLoNtpx9JfsfsXu17LcLtu/pMd3/Qfds/ltNLfsHP56Z05NWjbi941tChnwTVzD54tzHAj48uzaWPw+5BNjSeSvKCcbX05sPE+/bQMKcudQdfEGu2WAfeNT+2bW8/DDD0t+jeHK0WRfmRyHDh2iOXPmUH5+vthEcBBOk60bGldAwbjKy8uTi6SbZXOu4kSlwm6N0rzys6ggkN5Exu/PpzMW30hF+fOsD9GpC/6er3223VKUzGXu3LkyBPoHPvABqq+vp9/+9rf0ve99jzZt2kTDw8M21FgaGxulZrqzs1OGTR0vbLKERobpQOtf6LFd/0Zd/ftoYPg4pwIYQTA6Rcux28OhXuofaqEXD/0vi6n/pJ6Bw+KvTD8LKhrsWoSFFSvsWmIWxjnOnxOgurLFdmss8a4FFlZOfD1FORksqbmCCvPcnDyj0uS4rHCh3U4fpQXzacOi91FeoFS2UWC8YdGNNLdMBxpIB2hm3tqzfUoDIXX27+c8r936jM9zzz1Hzz//vEyUq60pJg9qn9APGjbPieL/LGPXx9DW1iZLqeZKMyUF9fJhL66+nJbVvoZWzL2W8nLLqKn9MWrr3WFDpZIRWjrn1TS3/Ay+7pm0qPpSFnGvocU1l1KAhZWiZAvoD7Rw4UI655xzpLYZifODDz4oCQ3aCMcm0vfccw91dJhR71DIgrbEa9asmXLT3tDIEG07/AvadODbnPlMdrRAMwrfse7NtLDqEmkGqEwv9eVLqbX3KPUP97Cxlk9Lq9fTtae+lw24ShsiPjUl9XJM92AHG3c+mle6mK4+5T3jiqHivDLK4/S5ox8Cm43Ronl0yYrX0WnzL5py/FOUdFJSUEdzS89gG+Mytm2uEtumhMVNW+92sW/Gw8Vpb9yO5xcLCp/W1r+NqkpWG7uq5hW0nO2bhdUvV/smjbx06Af8fItEvCYLBkJ6es9XqLpkLQvtKuubGPRfxmT6FRWuwkGZDPv27aPS0lKqqamxPlMnh9Vv3N7Z8N6zZw/l5eXT/PlGqeGDHe+jTQdP7r6Jdh27y26ljpHRIF2+9utUX3G+9VEUxQFRhH5OL7zwgswzBXG1bNky6ff07W9/24aKcNFFF9Hll19utybH7uZ76Km9X+JvcpjyAxW0oPIi2t/6IAVH+m2IsSB9qixuoILcKjra+bQY03NKTqELV/4nFefPtaEURVFOHDRZRsn/ZEHnfszLg/Qq1nba2fw7emrPl+zWWNwx3mPj+cVjZHSI3njW/WyQVyd9jHLijI6O0MM7PkHnLvsXefZeEj3//ccfoL7B47S6/m/0/aSZgYFB2rz5BRmlOC8//4R7Io4roLZs2Upz584L10Dl5Ez/B/j4rs/R7mP3pPy6eWyoXbr6y1RTus76KIoSy9DQkIiop556SrYLCwvpwIEDsh7LtddeK3NRTIbj3VvpEc5w+ocxDHkOLap+Jb2s4dP0wJYPUGvPCyZQHCC0LltzMxIluueFt0jzFKRZ9ZXn8Xf9Vc2IFEVJGWiu/PWvf31SE5Ofcsop0sEfaVE847nx6B0ioHLG9JEyuGO8x8bzi0dx3jx69ak/ovzc8qSPUVID3mtOToDmV15AW5puo6FgN/viucPUjizrKy6guvKzaePOT9LLV32ZbdJi9lfSCX8CLKL6pVtSDvo9Wf+pErcJHz600dEcOnjwANWygArkmgEe3MWm8yOcV3Y2He95iXoGmlJ2XfSjOH3RjWysYQAJRVESgbmSMBQ6aqDKy8vpr3/9q90zlp07d8p8FBguPVme2/9N+b5NxmL6NuXnVtD+4/dRaHRI/OIRGhmkwWAnLweoucuUDCN96B88TrVl66VJsKIoSipAM2Y0Vz58OLm+lih0vuGGG6I6+MfaL+WFy9mqGqFjXZt4X/zu6O4Y77Hx/LzkB8rovIZPSw29Y6JjlNTR0bePNh/6X3rp0G3U2rOFt3ex2x127bzdyctDbQ/T9qO/oMXVr6LyoiXhvmpKeoCuGWEB5WObxtUaQQucyCcRtwYKXgODg7T5hRfolA1nECaY8vt9MkY6Ljbd32Dv4FFppuPGvHh23y1saEHVG4ryaunUhe+zW0TbDv+cOvv32C1Iv1FW+ufQkppXyTZGxVky5wp5eIqiJMfjjz9O999/v92KDwyN9773vUm1L+4faqffP3+9iKapEUkGHUi7GmqvFgNCURQlVaDfJyYkn6gWCqIJk5hjkB4H0qV44gWD5+xt+SPvM7VQ+47/ydo6kWNW190QnucO/T13HPklBUcGwueDfYP+TuWFS2QbTcfqKs4N2zfuPIl+g5IagiNDtOfYPfTc/lukgC95cqi6eA2d3/AZEVJK6uGoz+JplN8Lr2CD8fmgZ3JYD0DTTO27iFvsgQ9toH9ARuDD2OhycVw4B84GmkaK8+fR8tpr2L1GXGxH8bxAWXgfXFHeHLsnAhIXt3/pnCvDiYuiKBMDowF9oiZiYGBAhjfH9AcTse3I7TQcnOygEV7wDUd/x0gIO9nI6BmIP1+QoijKVECn/TPOmHgEu6uuuipKPI2H35dLDXNfG7ZNyguX2j0R6ivOCe+fX3k+G35jpwiorzgvHAbrat9ML0PBHnpm71fYfXWS4gmM0vGeLfTg1n+WGiol9UA8QcdA26D4A3IG5a/Yhg0hiykwRkDJRfiEEExlZWg/K768TL7tr6IomcXu3bvDo3JOBIYI/eUvf0nBYND6xAejD5nkLLW09W6jnsFDdktRFOXEQSHSRDXrp5566qT7gSqzn93Nf6A9LfdyfhaSFlEYLj7PP36TPNjUc8s20NI5V0nBX/9wKz2y41PU2bfPhlBSAb5bqX0KhVjcjvBzh6jhbX7+ppgBNbOyMmkS1ECNUElZGc1f7KoTUdXFQUf5KlNUaoqizF6efPJJu5YcGGji7rvvtolVfMoKFtPc8tOpljORVLrqktUU8OlQvYqinDgwwDZv3iyjj27ZsoVWrIg/zD7E1Wte85opNwdSZicH2zbS8we/zXmdKTCsLj2V1tbfIJPCjwdGkD1zyUdo/fx3soE/DCubuvoP0MM7/kVscOXEgf0hcon/oGJIapuwg79RfKbGTf17HdMHChuh4AgFodR4HVVdfl8O5fqlB1T4oieTO5+9VibRdFQUNdBrTvux3SL689YP0ZHOiMGHR7h63vV01tIPWR9FUZIFbf9/8IMfSP+mWIdR+eL5w7l9SKD2tNxPbT1bKeAvpKU1V0pbb3S27R/C6HupBd97VfFKzqDKaVfz3Xwd9IcMSamgzhOlKEoyQDhhzp1HHnlE0rJLLrmEli9fHrcvVLx+T15gZiVjqD2z92bacfRXsu6OuWzN16RPEzjW9QI9tP1jMrKbOx/Su1es/SbNKz9TtmNx50n2NyiT44EtN8pAII68QLnMK7qv5T7pq5YY0/cJAx5h2g5HDgXonGUfoYa511ofZars37+famprKZCbZ/s/YQwEfsb8x89LjO9wIt/EGAGFRCHE6YJUdfE29kJABayA4uuddFRAKcrsYc+x++jpvV+m4ZE+pCAsbMromg2/ps0Hf0B7W+61oVLH6GiILlr1BeoZPErP7Psqp2lDYjxgku6zl32Ur68TECqKEp9EwsnL73//e3r22WftFtFrX/vacftHJSteVEDNLo53b6P/23rjBEJpPJz5HXkveE/L5ryazlv+Kba3I6M4KsmDZ3joUBO1th6nlavWkM+fSyOjI3bACCOcsO47QUET/2h5lyyX+N3KKv8Yw+yoViwrNCPWhOGfj0RGUZTp53DHY5zBQDwhNRmlgeFO6f+EIciHQt1pcF00HOqhrU23iXgCMBxQyueGPFcURfHibar3zDPP0Ktf/Wp6z3veM0Y8gQsvvDBsfE1nv6c8fxkV5sYMkiX2mdo3J4N9x//Iec1UxRNAnihWdhjkVW29u6h74Ij1USYDxNPx48epufkoLWtYIcOWQzyZsgO0ojO1TicqnkDUGXDh2UBBbvQ8M7Elysswyp4MCwrZNCrzyiyofLnZqSjKNDM2kxge6bFr6QG1UB392+2WQw0NRVGigXDCZOHf+ta3RDhhFL13v/vdcYWTA3PdbdiwIeX9nvIDpWyURWodcv3FbOjl2S2i0sIFVFu+gdci15tbfhaV5C+wW8p0gqHL05GndPQ1Uu9Qk91SJkNXVxft27ePli5bRrn5BRSyr0eskJxR/r7Ypeh7jWrCh1UZ7m8EEYO9sc7+uFbAH+CLjqREtZ0omBdqa9PP+Df2U8BXSKcsfM8YEXWofSMdbP2L/P4FlRdKm1RFUaafjY3/FtXGG1x12q3UeOS3tOvYXdYndaAz70UrP08P7fggpw/l1hf+pmkfmvIpipLdQDi9+OKL0lSvuLhYmuotY6MrWTDa6NDQUFJDlsO2SlZkvdR0G3X3H+S1HFpQdRHbLxeFj3XnQVM/1LL7ffm0at6bxp0/yB0zmd+gJMfhjqdkUtxUg9FpF1VdQiUF862PkgyYRgUDvcyfv4Aqq2v4GzcaRpru8RLdkTD/U6p0zKwUUIqizB5UQCmKMlM4UeE0FaYiXtwx3mPj+U3EVI5RohkY7hDReqz7Oc5Timl13ZtkkIdDrY9Ra+82Gyp1YDh0TAifFyilJ3f/F19jO3uG6OLVX6Gq4hX8HtUOjwXTpmzZspXKy8uprn6+aBeO8lZA5fB7y5HBI7Ceqs8goYDq7O6mQVZzlVXVcrGA31xYBZSiKJNBBZSiKCcbr3AqKSmhiy++OO3CSckMnt//Pdpy+FZec5b3CL3hzPvphYPfTVsedsnqr1Jz1/O07cjP+KrmuqUFC+jCFZ+jqpKVsq0YIJ62bdtG+fkFtHjJEhZNKDCw4snvs832iPx+f/gNpoKEamhocJDaWr1DDKfysoqiKIqiKOnF28fpueeeo6uvvpre9a53qXhSkmbsxOw+GgwmN7H8VAmN9NP2I7eFxRPo6t9P3YNo3qk4hoeHaevWbTJlytLly2g0x0d2xHIRTzmspCB0pOZJjkgdCQVUPv+YwUHv6CJa86QoiqIoyswHwun555+nb37zm1HCaenS8Sc4VZSxwPSONr9HaNiupQ+MXqskBuIJNU9FRYW0dNlyGh3ld2Sb6MGhGsr0efLzdvT7SwVjVJFck/9AzaFabCQUTMuFFUWZPdx+++10zz33yDC/bW1tnC6FW/4qiqLMGLzCadOmTXTNNdeocFKUDAMDuGzdulX6Mcq3bW0S1DhBs8Bh0Ai/DFsOQZVmARW+AP8OtBUM5ObS4NCg8UfHKEVRspK8vDx6+umn6c4775RZ+P/7v/+bfvGLX9DGjRtltm+UBCmKopwsVDgp43Hs2DEZ4lqZ/UA8oeaptLRUmuKaGiYfL1m7sF5Bcz0ZcY+XkC9w6WBsDRT/ghx0weIrYhbuvt4e6XyF0SvSoeAURZn5LFkSPUxub28vbd++nR588EH60Y9+RF/84hfpf/7nf+iPf/yjzOLf0dGhtVSKoqQdFU5KMhw6dIi++tWv0g9+8AN6/PHHJY9SZh+Dg4NS81RWVibfuNMlaKqHfxjoTsQT/HhfOmXLGAEVbjPIF62uqqbW1lbxww9jGWXCKIqSVcQKqFhgxBw+fJiefPJJ+s1vfkM333wz3XXXXeKvKIqSarzCCcvXvva1KpyUhFRXV8vy4MGDdP/990se9f3vf58ee+wxaZauzHwgnlDzhKHKYZM48YQFnBNM0C8iqMzutDG2Bkp+AASUjyqrqmh4aIj6+nrlh6T7xyiKMjNB5oO2xslyxhlnSElw4mkPNDFRFGXyQDihpskrnN75zndOWMijZDdOQHlpamqiBx54QJqlf/e735Uh7o8f944+rcwUMCYDap4qKir4W4/UPHlxOsXpmHQT17oxFx+l3ECAI12NRKhp+C2KosxQkCbU19fbrfF55StfKeIJ/SiBLyfAf73N+UYpzx+Znykd+HJyqa78Yl6LXNfvKyB/Tr7dUhRlNhEKhcLCCcOSq3BSJgMKADE4WiKOHj1Kf/7znyV+ffvb36aHHnpI+k1pU/STD94BCmPR32nRoiVoFBd2J5NExcNh5s6tlWZ8AwPeIc0VRcl0UHDy7LPP0h133EFf+cpXpOnDeAQCAbr++uvpggsuiCr9WTbnKhZMFXZrlOaVn0UFgfQKKL8/n85YfCMV5c+zPkSnLvh7vvbZdktRlNmACiclFSBPilcLFQ8IJwgo5H+If8rJxkyMW1JaRiOjIyKoZgI5/EMm/CX79u2j/v5+WrNmjfVRFCXTaGlpkW8do+phiRokGCmLFy+WJarQUTIXD8zsf8MNN9D8+fOtTzTHu7fScAhNgX1UXriYCvNq6MndN6VtFvfL1n6d6ivOp7benTQY7ODk10dzSk8hvy/PhlIUZSYDwxXTJqBZFfo8XHLJJSqalEkB87azs1MqAeDQR1f69U8ARne77rrraPny5bK9sfHfaH/rg7LuuOq0W6nxyG/TloddtPLz9NCOD1LAFylsHB0N0UWrvkCLqy+3PpkN3h/mdoJokslxeZmD3NyPHN0NT24DnwSSElBIyFDyA+No7ty51ldRpg6i3URtVPuHjrPR3UdlhYtk2x3jPTaRX0v3ZqotO022Y4l3TDaCUjavYMrNzY0STJWVlTakAc/ry1/+MvX1RU/uV1tbS295y1ukbfJkSJeAGuHM53IroBRFmV14hRPSFAgnpEmKkgiMCutEktdhcAiMJo2aJziMvLd79257VHzWrl0rky4XFRVZHxVQJwPYGyOsmjAvbSg4EmmMzzZbeJhyDBRhvU8GSQko0N3dLcMWNzSs4EStPKsNT+XESUa8HG5/gg61P0pnLPkAJyJ54WO8x8bza2r/K+1q/j1dvPqLsh1LvGMyHdyrVzDBYW4nr2BKRgD96le/ko6cjoaGBnrjG984btvyRDy+63O0+9g9KX8HeYEKunT1l6mmdJ31URRlpuMKah999FEVTsoYMPdPPJEEB5xIinXI5xyYYgOjxMYD4a666io67bTTxuRJGxv/1QqoiP81G35F2w7/LI0C6ov09L7/psHhTusL/8wXUBhpz/Wfxhi+qIEKsZByrwTvZlYJKBMkh1rbWmnvnj20fHmDlE6n2O5RsohkxAvCPLf/G1KTUFdxdviY2Cjr/LAcDvbR5oPfp8U1r2QDeq0NEY33PBP9htkK7q25uTlKMEHkeAUTmsVMFjSBwFxP4KyzzqJXv/rV4cRusgwH++mhHR+j5s5n+D1M2B0zKZCcnrnkw7Sq7g3WR1GUmYwKJ8WBuNDe3h5XJKEfPuzOeCIp2RFijxw5Qt/73vfsVoRFixbR6173ujGtLhxbm26n5w98l0YpyFsYBKmErj3jTtq0/9tpE1CXrvka9QwcZRvoFhoZNRPV15WfT+cu/zgV52dmSzBU1DQ2NtLChYuooqqa73tUHKqfYPX5/T6IFvKz2SbTLSUc5Xd6mFBAYbc4NkywbG9rY6NsL82bV0d1dfV8QxixT5WUMjkQl5KJN+29jZx4/YwuWPkftOPIHXS8ZzMfizhn9iP2YsRIjOrWMPd1NDjcQXuP/57OWfZJ8vtyTaAY3LWT/Q2zAQzt6wQT3IEDB6QJglcwYeK5EwXX+M53vkNXXHEFnXfeeSf8/HoHj9LRzqd5zSSEz+67hYZD3bIOivJq6dSF77NbRNsO/5w6+/fYLSSqo5ypnENLal4l274cPy2Zc4UIKUVRZi4qnLIT5LtdXV1xRRL6KyGfiieSUOB3ovkNarG+8IUv2C0Y4T669NJLZeCjiYzxlw79hPqHWyRvWSIFtOunpR9v49E7Oc/bx1f10SkL3kP5uaU2VGaB979nzx5asGAhVdXU8DPIsTVQ+GtsPql54qXf5+ftk2+/TSyg4DgI2iJiI8Q309fbTwcP7qNR9lu3br1RhWqvKJMgWfHS0beHnt7zFWqBcMKkrDkYgQWiyRwr0RervIBgyguU0VlLPyJGdV4gfqmUu3ayv2EmAsGEYVe9ggkDOXgFEzrCphpcF4kcmu6lgzufvZb6h1rsFlFFUQO95rQf2y2iP2/9EB3pfNJu4bWP0up51/M7/5D1URRlJuMVTijxh3BCDYCSWaCvbKxAgkO/pPz8/LgiCfEBo7mmk69+9asi4GrYSH/961+f9PQcIGLMG7thOvrxIo/DfzBb7ZWJwHxcqB1ctmw5lbDdYgaMwHMwNpqPbzsHNU5Y5/AQuzPhUSRRA+VuZIQTPtORyx3R29NNFRWV5uZmgBpUZg/JiJfmzk301N4vUVf/Pt6KCB7vsfH8MN9PfcV5dOHKz3HcHFuqFO+YmQ6ECxIYJ5gwpDgEklcwQUDNdlRAKUpmAuGEiW8hnKqqqlQ4ZQCo0YEgiieUkGfFE0lwEFAni9tuu43mzJkj8xVi4KQT4YldX2AB9fuU2xGwYS5d8xWaW3a69clMXIEsmu41rFgp8QLj7MngEbDP+B8qBiGeUPNktiMC9mSTVB8o3OQo675gMCgCCuoQQDiZdoh8Q6Nm6ZgldqlykhhPvARDg7T3+P307L6vU2ik3/rGFz7x/Bx1LKLOW/4pKsqrsT6G8Y6ZKcDYiBVMaMIAoeREU7LtvmcTKqAUJbNQ4TS7wfvD6HXxRBJqmRL1S5qpBXow1lPVOqO1ezv9ZftHaWC4NYW2xCgtrXkNnb3sI5TrL7R+mcfw8LD0dwLLljeQ3x+QGienLyA2RDzxY8WAEWi2B8+ZZLMlJaAQBC40AvGEJQQVtKC5OdxQQFYgqkyJPzbx4QUCU+tgrmQ244mX5s7n6NHGz8j8PWBt/duorbeRjnQ8Kcd4j3XrJo4Gad38t1Nz1yYOv53j6CjNLTuDLl9zC3+IkXjoPSbRb5hu8K0cPnw4LJgOHTok/QK8gsk7rGqmogJKUTIDFU6zi/H6JUEMxRNJKNQ72R35TzaYa7Dx6K/ZljBND/e23Mc28oCsA3QrWFR9md3C6MJ/pb6hY3bL5GEVhctpTtmpsu3n85zJ+ZmxsDMTCO8dOxpZyJbQosVL2BbDc4iunIGgQKWMn+MXtmeIqRZFUgLKgZooiKgQHwIhhSPdPckN8x1KG0Xe6O3uYnW5k43AcvnIYAx6h5NUsptE4mVgqIN+t+k6jmeDvJVDBblz6Mr1/0MH2zbScwe+wccNRR3r1rFcXPMqOmfpR2ln82/p+QPfYn+/+C+b8xo6v+HTcY+J9xumA9TmxgomGBlOMMHQyAbBFIsKKEWZ3ahwmrn09/fHFUlohofmbPFEEt5huvslZRKah40PajN37doVHoguNBIS4eQEFJrqgYCMrQBNAWlxcuy0iZiUgEJItE0MjZobxh07xYgFm6R8o6ZzF4TUAH+snR3t1NXVST09PTKhGcQUHEZayfaSi2wmkXjZtP87tPXwT+wWwoVoac2V1DVwgFp7tkn88h7r1rH0+/JoQdVF1DvYzGG3yH5QkFtFF6z4d5pXfrZse4+Zrg8TggkdJZ1gwjoyJ69gwveR7UyU+Tyz9xu04+jP7ZZ5l6vq3kRnL/2w9VGU2QficXvfTiorWMSGQ/JzquG47oFDlB8opfzcyU1knWq8wglpG4TTwoUL7V5lukDTqET9kpAPecWR101lLj9lLCqgEoOBr9AdYdmyZVRZWS3pF1q0SYUM78+BJuB1U+vkxJM5diYyKQEFEFyGF8RRGFgC23yHI6iagpf8tSpSHoB5CKi96unukupgOHQ+hMGIqmH05YBDift0GbTKyQXxKPZdd/U30aONn6IONiTi4Y7xHjvWz0h5L9h35pL/j1bXvZnDRASY9zypBhkVapWcYEJtE0b98QomzbDGcu/md8rQ9Y555WfR5WtvsVtEbT076b6X3s3vzvTHzA9U0IUr/pPqKs4yARRlFoK06Ok9N9HC6ldMKi5jks0ndn+RTl34XqosTs/ImBMB4bRp0ybauHGjGOIqnNIP7KlE/ZJ6e3ulxU+sQIJLx8isSjQqoMaC9A0jBSN+rly5korZ7ocfBjU0XYIMmBaJd7BmwDDlM1s8gUkLKIAjMJwjhJMZWjqHE9FoIeWQoQd5KbMG88NwtU4QUKiVwsfulkgUnJhywgpGZrqMXOXkgWgX+153Nd9DT+35In9M0XHI4Y7xHhvPLx7zys+li1Z+nvICRUkfMxlQ6ucVTBgAAiP9eAXTyRx5aLaAeaEw71dwpJ8CvkI6ZeF7qCCmZP1Q+0Y62PoXSXQXVF5Ii6ovNTsUZRYTDA3QX3f9B5277F8oPzd6kutEadWhtkeovXcPrV/wdt4/vS06VDilHwx4ECuQ4CCeYB/FCiQ4iCdt3XPyUAEVDez63bt3S7+n1atXix3EyZm4kZGQ6AfX3wt6AaoKaV2qbLN0MiUB5cCh4vhGoaMgqrCUZ8F+EFeRKjkIKXa8Ge/BoGngwEA/i6leEVN9fXB9Evb0009nZaqDUWQS8QyCxqO/ZQH1pYQfjjvGe2w8v3igKeAbzrqXCvNMtXEyx4wHCgBQFb1//34RTKiarq2tDQsmGBIqmBRFmQzbmn5KuYFyml95ATU230HDwV67B9m0S6tyaG75mVRbeho92vgJumjlTdM6uaYTTmiqh1p1FU4nxsDAQFyRBIe+R/FEEvolnegQ3Ep6UAEVAS1xduzYIeurVq2K6kvH5pc4IQcbEE12c2pm2bRzQgLKgVPAmXaMMEytn91vmvGhTWN8ZYnwZlAKcwz2yrG8LU39pKmTO5vBlLaNygsCmpjMLvCuY+NBe+9OOtr5jN0aizvGe2w8v3iMUohW1L6BjZPCpI/xgniIKmivYJo3b16UYNJBUhRFOREOtT1Gmw58i4aCPTQ43CbplskRDSaHzaFcfzEF/EWcpr2OVsy7bkwtbTpQ4TR1YKck6peE1gsQRPGEkvaLnX1MJKCe2v0V2nnsDrtlbJhM7MeLeL1161bpmrN8+fK4taJ86wYkcbyepDk2Y0iJgAI4jTjZYuN0hNftw8AChipq5+IZrKjiQ58qcai1gnHL/giK0Ki5wn/xs3+cgDrW3CyGbW5ungyJ6Aao0P4lMxe029904Ht0uGMjx4k8Wl57Na2uu546+/bRwbZHbaixIH7FCp94fvGAIXLK/HfQUKibNjb+G/UONfO1/fTylTdRZfFyG58iDA4ORgmmY8eOjRFMKtoVRUkFoZFhamrfSI/v/hwFQ5G57yYC7TrqKs5l4+sjVFJQb31Ti1c4oVkyhNOCBQvsXsUB2wX9u+OJJHRTgG0STyTBXlEyh98/fwN19e+3W0RzSk+lV63/rt0iOt69je578V3GbuHtXF8JXbDis7Sg6gITIEOATXaspYVqOI770IKMb3YcE21WkjIB5YicDkZtpC8LDNR4Dw/h0XwPIUNuIAoRSfzfKdZwu0CzwJrfnYwXoVCQ+vsHqLenmxOwLk6suqU2wIkpLHUYzpnD5oM/pBfZUY6LHyP0irXfpa6BfdKELxGIK1MVUCOjw/TaDXfwdX9A+1r/FD6mvGiJDEJQFFgoYskJphb+8Ovq6sKCCQaDCiZFUVJNaGSIth3+BW09/FMaDvVY3+RBOlZVspouW/O1lNZEodbE9XFS4RQBYiieSGpvb5fS9ngiCf2StBtCdtAzcIRearpVCkIC/kLasOgf+LustHsNB9sepv3HHxQBtbDq5bSk5pVmRwaA9AhIqzLUijCw5TG9UWILbXaScgE1FUwNFIYzRC0WHjGW/JdX3QOXmifG7mYD2NRA5UhtFDxzOIFikYbBLfhgdL5EaRAmh0NfKow+g2YHOqfByefxXZ+j3cfuse/NcNHKz9FgsCutAuqSVV+mR3Z8nGMNRngxxwx0ldDAniupq2OQ6uvrowSTxhNFUdLNbgyes/dLkkZhVMkFlRfR/tYHZSCVRCDtwqh7mKLhaOfTyDFpTskpdOHK/6Ti/Lk21NRQ4WRaIMQTSXBoihRPJMFpIZuSzXCyZB1s+MhwYBgDAaA7zzhm2qxjRggo4ESU6QsFnxx5+PwDsWH9eGmdfR8C1C1uA7VSbtZi8bdLtMV0iZ8b4hMd/lEzNZ7RraSHx3d9ngXUH6KePeZpGg71p1VAXbzqv+ih7R/m+GGGy8cxoWE/ra3+KJ2++moVTIqiTCvHu7fSIzs+Qf3Dx3krhxZVv5Je1vBpemDLB6i15wUTKA4QWpetuVkyuXteeAunabmSntVXnkeXrv7quGlhIrJNOOF+UWvkFUfOQUAl6peUjROcK8pEcPIjznTHMfY8qjmw7cvhdTbMZTwE17IsA5gxAgqYF2DGhJd1rx82GGQMscIKeQWbz6Jy4wkoB24VI960tByn48db5FyYDRliCrVXyvQwkwQU76GLV99EC6suMQEVRVGmiY2N/077Wx+wW0RFeXNlTqfn9t0i/TUTkyNpVnXJanr+wHesH5q259Ola75Mc8uTn0vKK5yQF0I4zZ8/3+6d3SCNT9QvCa1U0MQ/nkiC/3j5iaIoBrGjrD2F1WAoJEsIJ3xCptbJ2OdaAzUNmJ/kDGQrnmwn/yiBZfe59wFlKwIqjhYyLxeBTW0VXEd7Ox05clhqqDBKiCaa04MKKEVRsp3+oXb6/fPXc7rnhiqfLEi/QCTdQ5rWUHs1ndfwaeuTmEwSTmhZEk8koYYJA0rFE0mVlZXaL0lRTgCkIY07d0r6UVlZxeLJ1DyJacWgMsM4ts3RxSaxiTYrmZECCoR/FR64vBDnYYUU/onExUsx+2EUs1kct4oQ++FwCPIdzH6Mc0NwQUiVlJZQXm6uOUemveUZhgooRVGynef2f4u2Nd2OXNj6pIaaklM5Pf0PKimI3xcKRs9zzz0nwmnu3LmzRjhhKol4IgkOxBNJcDq9hKKkHrTmwhxPBYWFtHTJUjarc8S+dqkZzDHUOAVs665Mq30CM1ZAJSL8a/EieMP8fLwgM/w5dsR7SehjhR0joVEKeZoEusAQXqKQZR3eKqTShQooRVGynSd2f5F2Nd89bro1FdAf6tI1X6V55Wdanwjbt2+ne++9d8YKJwyZnqhfEgw21BrFE0nFxcX2DIqipBs0i925c6f0lZxXb/pJYjRtpGTSxYZXUPMU8GPALmtPS6jMYtYJqKmCu5SqRX7JEFDQU7hxd/N+vGR+4/iHF48DpNNbvPaAygmhAkpRlGxna9Pt1NSx0W6ljtHREJ2x+P1UU7re+kRobGwUsXEyhRPSXYyOG08kwR8j5sYTSTrok6KcfDAnJqZ7WbRoMVVUVRs7mu1qZ0vDfsZnKuIJ/+x2JpJFAiqmCR+vw+G9hp8Ab0AuIZGGc+u9vT1UVlYqQZQTRwWUoijZxJ6W+6mtZ6vMC7O05kqZf66jbx/1D2H0vdQCU6aqeCUV5JZLDVdH3x72DdGGRTfy9advgvn+/n46fvz4GJHU1tZG+fn5cUUSaph0NFRFmXnAXjpw4IB808uXN1BRSanY0GJHWRvaiCdT8YD1TGy25yVrBBRwd+odLh23jyWGXRQFBfDiseDlwMAg7dyxTRL3xYsXa41UClABpShKtrDn2H309N4v0/BIH2ctPhY2ZXTNhl/T5oM/oL0t99pQqQM1UBet+gL1DB6lZ/Z9lUZGhiStW1x9OZ297KMpnWzXO0VIrEOz+ViB5BwElKIoswM0rd21a5c0o21oWEmBvDzRTJi7lVMcdkYoyVRCvPT5XNM9HJ25ZJWAcuCOkbhjMl4zXr0VUFhKAAkmCprNcgoOD9K+PbvF6F6xYiUn/top9URQAaUoSrawsfFfZWJcKZmzXHv6b2hL009o17G7rE/qGB0N0ss5rdu0/1ssoo5YX/iPiLBaXH2Z9UkO5JWJ+iVhkvpE/ZJKSkrsGRRFma1gTjQMFoHBWJYtW86GsR+JCYXYfDJ2l0nZ0AUGY1qi6wts63HMsYwhKwUUMLcNIxqSiYUUZxJYc0OjOyElkQPGNu8/3HRQRuxraGiQ9tjK1FABpShKtrCx8d+sgIpw1Wm3UuOR36ZNQF208vP00I4PUsAXyadczRRqouKRqF8SOoxDDMUTScgHtVWGomQmmCsN/SbxrS9cuNBUKKC/E2odYBtzGNhScH4/L9mmyqb0IGsFVCwQUIgceBxo1wlCLLHFJDexRKon24630MGDB6QTbn19PfYqk+TxXZ9jAXVPlOB5+aqbaGC4Na0C6vI1t9BjO/+dBoPd4WNUQCmKkk5mkoA6f9l/Un5w7RiRhH5Jubm5YwQSXFVVlfZLUpQsA32d9u7dS4sWLaLauXNZNMGOGhEBxYmJ2MQilWSJUaxNs71sQouOLFDNZqZkkmpIt44IIXHCysya2lpas2YtHT16lIXUQeOpTIrKolX8fF1n5lHO5AuoKLfabqePssIl1FB7Hb9TN3liDi2ovISqitfabUXJXtCfBROSwphGySPyyEQOaR/axDc1NUnzLszRo8x8Xnj6AN1zzz0yBDEKkVatWkXXXHMNffjDH6aPfexj9O53v5uuvfZauvDCCzmfWyMTZKp4UpTsAQXLSN/37dtHK1eulCkPYP+KOOJ9vhw4tpkhnHgFtnImTpKbDFoDFQc8ErhI36gcjj+ssG3VJCIP2oViTg20/8bgEuPVfihj2db0S+oZamIJk0N15WfT/KoLaWfz79JaA/XGs+6jwrxqeunQrdQ/3MbCLZ/Wzn875Qd0hEUlu0CNO8QShJJz6CgMY9mMkFbDGec8EzjORK8d7R0yylp/f5/0g8F6YWGh1FhgbhCdvDTCbGnCpyhKdoN8Yffu3ZI3oHAFaboXb0stWFuoeMhm01cFVALwVOTJcOTAI5KHxEtp38miCsY6Sl23bdsm81YsW7ZsXANeicYb7dxzS6+AGmIBdb8IqMi1cYxWwiqZD8SRVyz19PSIWELahf4tpWVlVMDCKcfnN9+H+0TwefC6GaUUhUfs4T4z9sc3x1+fHNPR0SHNPtBnpqKiQpp+FBRM37DZMxUVUIqizHRgz6K/E5rirVixIm7NM9J5Yz8hYzB28Hh2V6aj1mMCECfEYZ3/sc6WmicnnuBQUrt27VpR62jOEjHMlWSI/fjMAB7GUEs1BYEqeYsOc93ItRUl00CTPEx6iJryZ599ViY/hB9qiE499VTasGEDLV++nLdrOS0r5OzQR8HQCIutEQpyWiYuyOu8PYL27+ywbvxGJRyGsZUZ6Pl7Qu0TSi1xXtRAvfjii3To0CEptVQURVFmLkjDy8rKaOXKVSKi4mFsNlPrZGqfstuGUgE1DogbXocIExtpYChARKFJH9S7GgtTp678HKotOz3lQhR9ntbUv43ycrWpnpLZYJ6Ow4cP05YtW2jTpk1SI4TaoNNOO00casohoPLzC6SJMoaihUPHYKRdEERB+FlhhDDxnavx5Q1ejqKZs/1ukSYuWbJE0kXUSm3evFlqpRRFUZSZB5Juvz+X5i9YxOm5Lyo9j8XZw4oKqKSYKML4/QEpeQ0GgzJePpbK5CktXECXrfkaNdReTQ1zrxNXXrjM7o0wv/Jl4f0LKi8iX050VTMaXM6vvCAc5ozFN9K6BX87JpyiZBLI8I4da5EmeqhVQk0QRMy8efOkttyBfFHyRk7UIJogiFDziyVAUueSO5f2xToUJImQ4j/mMHuwh+LiYlq3bh3V1dXJoAUQdoqiKMrMwRSchQgT+YRkHXkBWgMlFlGKQQXUCeKMEfQdaFixUswIiCi0J9XIN3kC/gI6r+HTdO6yj4ubV36W3RNhdd314f1r57/VM6JfhNV1fxMOg3U0w1SUTANpDJIZI4RGacGChbRixSqqqZkjbdjHS4PwRfhzfNI0GSMqwcOtw2F0JdNkIyKc4DDyEoatDfAy4Ofj+cDEzTlyWMzNpVWrzcile/bskd+qKIqinByQLyAZFsdZhLRE4BVpdSDpM3q2gnhpuuJQAXWCSMkt1DvHtlE2RpYuXyE1UkZEDYtxoyiKcqKgZgn9mDAgREQ0ccaHvkhYcr4X5H1wbp8RWLGJELZNX07kj5jfLsACKOCWLIowKaLxH+t4lwgtzDyPJR8iwioWyaTFjchoTitZRGHwCjR1Rl8sRVEUZfrAaKmtrW1GKPG/IOcTqHHCxLjwkwyBE3NpVyD90WPzDsWLCqgU4YwU2BGLly6n8soqWBhi6IyxXxRFUZIAQ4RjTo7nn39eCmVkgIegEUdwKDXExN9j+ixxxmcEknUeTK0S+3E4jKrn+nYG/H6pXcrJGTUiiXMHEUgcNpELnysupgkIfg9EXSCQSw0rV/H2qB10xwbLShI9M0VRlNSCdPjIkSP00ksvUV9/n8kjkF+wQzqMpFhSJJnjidN09kCynjhtV4AKqBNERiRhSwOltYhqYhPwypy582iU/UTdI4LKDkVRlPHBgDToL4TBFzAYBAaGWLRoMZ224QxatHgx+XNzpeQwPPADJy6utkdKDln1SMbI55J0J07ag4xRBJKtPfI6EUe8YyJnwvOfcQhPE8Dh8It8LKKWLG+QzsquJk1+YwZj+l56b3KU8vyR4cXTgS8nl+rKL+a1yHXR1NmfE+kLpyhK5tPV1SUjomJE1hWYGHdevSlwQwEX/+NVSSUkT2CHVggujVfGR5/QCSJGBKKfXYbNCVgFvFOasIxkh6GgKMrUQJO25uZmEUwvvPCCZHoYfOG000+npcuWUVl5hWRyyPhQm4N1V7uDDVkykv6wv2R+vJQ0aXyNY9KwsBuvRmlyyPl4iVoslzaOsuBDUVNuQYFk4CL6+LfDZSrL5lzFgqnCbo1Kv86CQHoFlN+fL4PnFOXbyZCZUxf8PV/7bLulKEomg4I4DN6DJtOYGB0DCpUUl0q+IXkH2nxbXGsCCAKk26qdkkMn0k0Rrs+BaUYTKf31+X14yLZJjN8YFbAkshxEu2QMtWf23kw7jv5K1t0xGKmvruJc8Wvv3UWP7Pg0dQ8cCJ8P/dJese6bcQegAO48yf4GRUkHqIFpb2+XocYhmDChLeZSqqyspEAgj9ORkCQWaLYn8gNx1tZoAywQeyFQUNtt1k3NErJClicnvRQR3xjSRfxmqXFiPyf20J8K9yTNCM2quEzkePdWGg718v35qLxwMRXm1dCTu29K20S6l639OtVXnE9tvTtpMNgh8WFO6Snk9+XZUIqiZCKwRdGCAU32qqqqqH7+AvIHciUtRtIrS14xhWsm3/AHYKfCRjUtC5TkUJ2ZIqTKkyOejFBlIyVHVVH50pSPI6cMDykGkLUglAkJ+PMl83f4c/L4A48MR15asIjmlJ1itwzVJeupOK/ObinKzAHff1tbm5QMPvfcc5LJYfJCzNGEEsLa2loZPQ/iyQwKYQSIFMywhxMf4bRGnE+aXeT6/bw0ibrZf/KTd2TQ+C3IlP0oTGI/bAM0QUROLkPo8v0iWczUpLGmdC3VVZxN88rPFPGUTryPsKp4BdWVm+uqeFKUzAV5C1oxoAUD5t9btWoNLV6ynHJZPEX6Oxnx5PIHky4HOM9Akz3UQtmTKUmhNVApBA/SRVDM2I91MXg4UoohwSH6e3uotLSUI238mZ6zBTybZGt/Nh/8X+rqP8BrObSo+hJaWHVJ+Fh3nif3fImGgz1sJOTTmvobqKJo7PxRDnfMZH6DopwoEEtNTU0ikFDTVFNTI6PTeUGchEO6geZ6si3+RoSgvyV2yjr/kcIaZHwIhEZx4fg8szJDZO74QSMsCEMYuZR/r9wT353cB98Xhk03TUnsQRnO47s+R7uP3eN5Z6khL1BBl67+Mou2ddZHUZRMBWkrWjEgb4FduWDBApk8fZQtTtMH3+YjyCOQb5jDJM1F7X+OzwwcgQBqD00OFVApBg/TRVY0vZE+UDbigl3bt1JRUREtXbo0q0UUntFkP1Z3jPfYeH4TMZVjFOVE4Kgmw5DzGpWWlnG8M/6xIJxrAixN97BiwTGIrybTQ+INXyeaZr7wcPcGZKh1XnX3hxLRocFB9ghJAVM2fJfDwX56aMfHqLnzGb7f1NQWciygM5d8mFbVvcH6KIqSiQSDQRkYAvPr5ebmUn19vTTZQ9oJURUaNYOYAbF1UPjGSxTkO/EEkNRmQXKbFlRApQE8UDxWV23qFVEhjvS7G7dTWXk5LV2yVCOuomQIGHIchSPAJKsQ6UYEhVNZfO+8YZpLRDIwL8j8MKccpuHAkOJyPPvnsAf6Uc4m0RSLexaQiKilF7Fon01baws1HzlCa9asoYKCfMnkM53ewaN0tPNpXjP3+uy+W2g4BKFtKMqrpVMXvs9uEW07/HPq7N9jt8xzrCs/h5bUvEq2fTl+WjLnCsQM2VYUJbPAqKwQTnDIbyCcUOPkCNuevC4FVpK+orDYNttjYYX8x6E26NRRAZUm8FDR4RvCySuiEFcx4taundupuqqKFi9eLOEVRZldDA0NUWdnpzgMAgHhc9ppG6SvD2dXkpFJOmD/YGEYleZqnI1xRoYMLDoHcymyW0IwgdkqmmLBfYnjf8NB19TZ1AY3HdxP/f19tGbtWunXFftsMp07n72W+oda7BZRRVEDvea0H9stoj9v/RAd6XzSbplnuHre9XTW0g9ZH0VRMhWklejjVFxcLKO0YuCheMQWwmEyc6Skpom0ccqJk/lFfCcJiaxSTYqlKQ8U0c8uLy+XVqxcJTNC79+Pvj2Kosx0UPKHtub79u2TOZo2bdoknXbz8/Np+fIGFk+nc8bkswPGjMogCSEMAiEFKWzqcqYV1kRYl9qpsE8Y5G1eJ+mIFRPYnu147w0j8eG+pA0+U79wEYtLP+3dvTvus1EURckmpCBOnFlff8qptIzzG9Q+JUohkQ/BuBebk8E8pX5PPqKkBhVQacaJKJRKi/oXKZXDIiqPVq1eRW1trXTggIooRZlJoH05RjJCx9wdO3bQs88+K6IJggnMnz+fTj/9TFq9Zi3NraujwqJiCuE4zuCMaDLNJ1zNszej86PpHnugTfp4mRl2ZWpeZ+6NhRPSRZ+pfUI6iTRy8dLl1NvXR4f42auIUhQlm8D8TQBJnxS+SQsmFMqhXxPyFZOfYIl98dJIk74ahzRVhVN6UAE1DSDiioHAFgJKXDku87aP8vMLpL1/a2sr7d+/X40FRTkJYH4iNMNDZ9zdu3dLEwkIJtQ09ff3U3l5Oa1atYrOOussWrt2HS1cuJjKKiokUxKBNGInzLYO/9BkQnI5ycBs7RF7SB4mGZvZlo0sRe6cnxMG0zF9wowLBPy0vGEFHWOx2tJyXMIqiqJkIiisw9QWe/fupeeff14mU0eeFM5TOAwvpFUDnAgqFlNIK03NVGK7EfkNnJIetA/UNIHHjBIDedyI0LwwhhX6UgzS9u3bpUp2+fLlYpgpipJ+8Dn29ffRzsZGGVK8qKiYSktLpG05hhv3It8wSvx4HQIJwgnVJt7JbQFW8YlLR10EsSJJPmsOqO3QI5jsB6NFwWDg54Ftfi54dL09PdTYuINWrlwpIjYb0D5QswvUUqMvJPo1w4nhK+mBMXKd827ju5eWKR5XWFhEixYtsmeN4JIIDFCD62C0NbReQdqk6cfsBHGhh9M2138W68h7MB9gWVkFlZaVSjgUsXHM4Tgjm4zJewD2mYnIJQuSOKRMPyqgphk8bfR9MENKRhJIlEJgck0kwDAYkEgqipIcMExgYKD5A5bOue3lDabNOD7ASJJnMx0ZDxwfIj5OCJvId+nFfLvmWpjLSNZlhzk6fAx/25ywioEj52IvWeeAxi/OybMceZb8x70bPCMYBqidR00gJhl2IxxmMhMJqGf2foN2HP253cJzG6VVdW+is5d+2PooqQLPFt+6d7oRiZ6ez3fH9u2yhLCBM7WppsbZK5DcNpbmvGjqy4Jq1AiugD9AVVXVcq6xjFBLS4s0H4ZIg62A8zgx5ZbedbeMLQRSph+8b/SfxUBDbsAhvD8UCpWVGZeblyvhkJdwrJB4xrkFjdoCOwfW/TZPQVzj00g6ifMp048KqBkEElIYC/jIIKIw0oqiZCswFCB+sEzknEjCOjIRZ0gYly8DPGC9pLSEDRi/1BZRjjGIIGjEmOF1KdSwHW9xHtOkTIKFQdjRUTTX4yM41Qxhm/1NMNs8jzE1yyggwTnN+TSDSw5vbuQe2eHDh8V4XLdunbzLTObeze+k9t5Gu0U0r/wsunztLXaLqK1nJ9330rv5OQUl7uUHKujCFf9JdRVnmQDKlMC3jVqe3t7eqGVdfT3NZ2fMpOgCF6/phOIRmL7xvnWTbpiwUdMTyBuMQfbZ42Vpj+N0B3OkoeB1dCQk6R3EFNK/2KVxw2xPhES0xYqq+vr5tgZLTq2kENhwaPYdG48AWjVANMEVFBTw8/dLXoL3jRp4vGMTV9xbN7h1CCe8NORbGGjHtGQwhXLKyUEF1AwDrwMGw5EjR6Q5X0VFJb4ZRZmVIENxTVtMph8RP4jXdXX1JmCcOA6juenQISlpQ4Yfz8EggEjKzTUGgmQ+ME5GIhkL2o1DIJmLYN1eTDaRaXEm5ofgGaUAjuH/iZpF4Pvk08nSnk5cDgSXzepEPPG6ZmypA/0D0NQFNVHeGoFMA/NCbW36GQVH+ingK6RTFr6HCnIjc7yAQ+0b6WDrXyS2Lai8kBZVX2p2KEmD7xcTW7saARi6+N5Ry4mCSzTlLS4uorz8AvONo1CEV+T7l+NdeoLvPVLgglCxn70kEThOEg5b8CKOd3jD8rakHbHJjqRlZlWuhetwuDjJk4DzwoVGUMA0TMMirlhUcTqM9fnzF/A35GqmcB/mvLgICqOOsu3h0lUsndP0LD7yHpmu7i6pkUQ8Qhwy8cjEJyOYzPNDnmiENJp0moNNnJBXYJbia7axhbgH8YxXjigCb5xP38nJRQXUDANvA850KtxNCxYskPH+FWWmAGMDpZxOCDnnmpd4nUte4okgZNALFizkMCYTN5YDWn1HYzIL1OqY7Xi470b6JrEzl3WShrG/A7hVLOAkU5qEgDL3hFyMl6P4UaYUMfwD2VvztdSCZ47REAEG9FDDQZksqBlw/U4gmpAmuRqB4uISEQn4sr2YwhKTniDOhfdLGmBhf9QG+P285MQjNmoiJOKv6/yPvn5Siy0pWzSes4ZBKKRHmAYBKRLmkBtPQImBjrQvfB0DziFgGf3zZRtLCKhjx1o4fY9uCg1cDVassHJ+SNPjpZmzFRT64Xl4HUZfxX0Cl7e59xgMmvwPz2I8ceMVUKZwjx37mzjGDkJJ/IxwRm0TQHgZuVX8VTzNBFRAzSDwJkyCjVLuUTZUe2jPrp1UiQl3Fy3K6JJXZXpB5uBt+oGE37nS0lKq4jjniE4icmjnzkbJTLxiCA4ZbKwfnDSd43OMSWhc+i/xHhm9yXydoDI1ORAyCMqZig0fm2/I98KH4AoY6tXUMPEWLhgnj5EWOIwEY6Q/opQEjvI3husYg2i8/Cl8bl5qPpZ+8I7xbrdv2ybxrKGhQdNDZVyQrrl+J3AubXOiCbUD+I6R3uDzl7wXCQl/0PJ94+PGX7MQkGaEP3frb2qfI8IG6YE3TUAwk0bxGv9PWAPFeK/lRc6JdIoDmOvET6NwvOlLiBoo9Kbh4+Ke1B6LsNjC+SHK7PnEOOd9RhCNhvMKpPteYeX8sB8gPNJ8fKP19fVR+UgsOM6Fnw4x4FpBTORwL/htWEcaA0Hk3Lx58+Te5JGaR2Tw/nz2wybuLd77gZO+b6Nm9FYBATl+4HFLbSb/QxwRoWRPLudiF3NK5SSiAmoGYUqnsISAgs8oJ1DDdOjAPlqyZAkVFOTLR6ko4+EyAG9m5zJAt0RcQ1xCZuCEj6slgnFRxk5APLQpd6SmCF6SxPMycc2QySzGGicCL6OSnvC6T47xnhPr+G3wQgYfm9nKd4ML8E50zDYCCr9OVBWHR67EXvKDsO2uhXDmHjDRIEwJ3FW8/k/KycMYm+b9BDn+QsD7OZ6uXLFSBK+ixILpCDDpNZpPYXQzpGkQT7H5J5IEERpYYsNkvBzTDEgHwhXNgNclPRFP42XSJ6SDnG5w2jX2Goi/JrDrA4U/+Ge9GXMBhBub9kQ8cA2kgUaoGQPbi7Mh8NtEqPF+pLuR6xi8mziDOPvHnNEUJuXwjeN2Yq8D3H3J5fgP8pagR4gUFxWy6EDTNYTGM/HmHz7atOk5OcZs4zqoVbPP0Trvduw+d30IG9hHiUCXCMznh7AAedz4DjVt7Pi84aaOONQ+AhtFzPng+He5cwPcKQoNTV5lnBcE5TfC74VXZKd42HtytUy4R95ld4PY8ygnHxVQMwiX+IWrdeX7wueIkglOQOwSfvoxKV6QEW3btk1EE+IRMgJXaoYmFhBJ3iUyCWSQRjLkyDGSWDNIEFz0cjVDiI/ihz8SgOMjr0vGJpFxbGaOY8RW4PDBIKaZBca4MHtMJhgP76nw+wIB9uCwptTVOIdch08j5+L/YjjYfTgGYdG8xlzSGOJmn/wC9jK/yRgk+m3NNBA3YQhCJOMVh0JB2rN7l8SLFSsaJE4rCpAkgNMsdNyXtI7Tv0SfswmLNA7pB+QMpwZIBy28y6ZWgM9i/kv6ABPXIeGQL0taEp02OUw6Z/zlujiKNyPXs8dg39jDDXKIswESXQffC85u7wlTLchWNPJz4oBTyll5RWq5eJXteXaRJwFwPy7dxQHmNjwnFX+cCYVhRhBE7WcgAmX6Av6ezbcNocfnxPfuzu9dhwth1EJzPy4vwHuuqIjuJ+gFeSOuk2vFkfysBPAl5Dr4J3kiXgb/h7/bL8jtmI2wl31GqPELOEFtDo/C3Y+s814RTfKkEX/MeWKPUWYmKqBmEJJIcOJgZpvmP/w1jYTwceGjMkmQayZgEqb4iagyu0HpHYQQhj51tUhYX7hwoXRudiDhdSDuoLmKa4+OkrNEUUPiGUcvt+QV/JeUXpbAHRv2cJi4h4QfAgqZuQyrGhMXcW5zfj6e/YNBm2nYINY7LriizYrMXxY249VA4VxmaX6XlLjyUkJZUeQwvpHnZprF4JzWQ5lxwJBBuigGLr9siVe8vW/PLqqtrZXhn3U0quwB8QH9MFGjJGmKxAt80/wtcxQQo1t8kT6Z7xvffGzhSDgu4Ry8I8QZrwQVTAqCmmmcGcdxFJM/Ls0wIBz2mxMnGwflZztiDvGKuFiSSa9wbhEBcLgLXuKJyH0KfLDn9zvkCcr58S0hFMz6+IINR5nnx/mV1Po7Xz5e8N5D5Djv7zbrxp4x6Xr0fgfOLY734dlInuV2JAuf2OUdiQv87HPjf5Le4PRyDR/fjb0f3nSHIT44sWveCzzMfjNKnlmPuUwUOLvgOa8ye1ABNcMwxoJJfvAx40MG8iHyUkqFZCN+abwyO0CpmBNIWDqHbQgoU4NUwC7SSbe8ooLX8+0ZkF5zLLEpuEvIkRBPVBoqcYzDiZPMGmGsERITXIwGD7iOyywQNJGAAsY4kZ9km9bxigviOa8c5vE354kExqY0WeGvYqIaIhwVa4B4BRRCxHsmyswlEo8wd04kTQRowQejD8ZKbCm5kjkgncKktRhcqb29g9PBXFq/fr18y0iJwgKK40oIMQVJGccJCCAkIwjnDGgv4bgliRPiWASkfYhTiHe4iiOSnnj9os+bStxvm8w1cESkIIlTTnk+BuzDmcL9TnF+OTWeo03X8WHJOj83Xh3z3OB4Pw4VAQVPDiPX5A33hEA4b/KCS7I/zgvn54sgfY/3DeN8eEemfyscTihXTBITPpxOeK7rxeWLCB5b4Adkk7cRJPwrnQcvcF65L15xohDEXEbJIFRAzUCMiOIPmL881EDhBTmbwX2UrlSoo62d+vp6ZG6H3FydNG+mgdojdGD2CiQs0aEVTQ8wvCkcBJJbwvl8/C75XctEerxERiYpOODU2zXzlED2r0vgpV8IbyCuxMuQOHqZzJPDB+1BoxzP7KlsBuE9LpL5IiyCIe6JkOfzuM782PTifi7irmR8vO6CmHVs2UAO3nS/me9QljBeJhJOSuZiDDUjnFA7L9t2H+KQiedID3mp8SRjQBoJ0YTJlJGGoiCpsrKSKquqqZDTSklNJA1CvIgY1hI3+A92wUlfHhtPYo1mgHTKCLBovEIp3nGzAW8eEe8ezV7sN2FgezjRiAeD9Xi3Hv4mcQJ2SN3duv3jwdTg4DTycyzm/ZjvFjmI5CnWrnG47x6v1hXC4RSxBXvjYfJPBteBiMIq/OTaskfAuU0NlHkOyCftYzEXZVxwWfAG4pT8HnamZRDOY56h59RKhqICaoaCD9glFkhA8C3DaHbfJEqI0GF1iI3xpqZDMkcKRoiZO3eu9gmYJvDpoCYJGbsX+aLsi+rp7qaDhw4ZoWTFUWEhOteimV1kFDH3FSIjGrXt1mFAyKl40xgH2LAeTLymHsgM0ZwJCTiS89gMCeBayOxMBogrwlN2mfPzetQxHA67nZ9kPHIdBI9faugF13MCymHOhOPMPUTXEjnMEbG/X8k+EFfhoPOlsz87Z9/ASc08x3UjoDTezFaCwSC1t7dLTRNEE9LKysoqcfkFGGYctSQmfzTgHSNuuNTCgEIX4rjg47hgmr37TXqlUSKKiPkX+2CM/3jfkPkmY2u38H7MsVjK0XwOk4PATxaCvA9syztCE22Tb8UiYobDjRlhNQkkX3HpAR/nRjCUPCzm3tw5JW/k1MWbvUp4ew8GiGo+N+4R9xGVf8Ev+txKZqICagZjEigYueaj9jbpA+bDxYeNuXl6qPnIEeru7pKhQyGk0EZcOTGQeKPWyOv6+1GTZGqTsP/0M86QDqrmU7IJKSfa2ITIQZO3cHrKnokSbzi8Y8korKcszaqcGfkH1sWPnTsLliY+wDnxBOdN2COIQEeWgJO5kwCc1Htii8ksTI4i18B5+VjNKJTpBPHWiSh8K+4DccIJg4Vg5DDEazMymtmvzFxQS++a56EfJ4YXRx6G2iYUNEmWxy8SBUpImCSJwruXpSwECcYOtQKSLvFOiGoYzUi/NC6kB/cOXA2XbMvDxnfoVSHsbFiILldjAwvG1SDHA+eDwzFS4Ge3J3qduJTLa3FuxBxT0BI/T3SY88cr8MP53LFmr+Z/2Y0KqFmAJB4wePlbDQWN4WtKfczHi9oo09nTR4MDg3S8pZlaWlqk1qO6uloyI2REyljiCSSvCwaD8lzx/OBQ21RQUEj5BdgukG3zFvgvMml+D/ik8HawRPqK94eE1tUGxR3qFo4D4rUGR0K8jrO685g3LQ5/wngyHRvINFeBMwJqPMynH8nkokvRHAgTQTMM5WTjRJQ0t2EnsRfRH1GT/6Dfy+5djZSXm0sLFy2Swg2NtzMLjJKHmiY4rJeUlIhgcnmVvFdWTkh9zHvmV8zvEE3aY4FgwntnY4aXJh4YQc1+fIaJDGYl9Zi8xRH59qIElSVZcYszmj5W5iXHO5cXk59xGEQLOSS56yhKsqiAmiXgNXmry4MolmM/VyEF4zwgqYTJUBAeJXpoP45SPTSFcKV6KOHLVlxsP9ZyjJoOHZImeF6B5ESSdxsDOsjz5wQYjx8l3ZE+SCZxxqpsIoFG4s4JvQO1NQiL5DzR6Dzm/dr3yU6MBrMqp8Q+c4wxBsRoAAgA7PngrRmFkulARIX7RMm2+xDMt4Hv+vChA9Td3U0LFiygOXPmRDWZVU4OSMdefPFFKZzC3EzIjzAEdWyzcw4mNfF4uTItAed9kMrwl7TPJnAQTUhfRSPxPrdL08DMBXFoMmjhiZIuVEDNEsxrQqmLWR9lI15qpSRjMXgFlLfULRgMhptIoF059qF5HxxK/jDZ4GwspcNzwL3BoRmIt+YINDQ0yDI6ipvEdGCgX4ws1CZh8I3xEll5zryEQ0dWeQ/Y4TmvvBcszaa9Ci95ZTICCrVY4d/rOZmUuol4NgaDHAu/MEawmfvw1EwpSgaCbyRSQwExhW8S35DZD9B0q6e7UwpK0Pyrvr5ehJTWSJw88N56e/s43Z1oqoWxAkoSUOxg594h3nG4mbRL9+A4mKaBiqKkExVQswz3urA0s4wj04j4IRNJ1J4Yh2ISyt6+PimZ7e3pkfk0ICTWrVsnQupkl9bA0MHvgSjC0rlE2wCZqas1wjDfGPob65VVVZKRSobKf+TZuW13m7yNezYdS62fBxxj8nHUDpnjpfbPA47DKzASxmzLEpm8vBPUHqGUFNdAA7tIGC/m3eJ3mu1oMIQ3LuQ50BMu3vkUJZORNBAfC39baNol/aKsqAKuoALfdmdHOx0+fFjSl7q6Oq2RShMovEJhlneOJmD6lNg02IL0DGljPEFr3q1pcYFw8lY5gXXrkhYy2HLpovFRFEWZHlRAzWJMJoPXxxkQLHjOcGxeMgaEg91v2pPD1De1GAiKDA9NKGBoAHe8ay6G2ppt27aJwQGHJm3epXPu98i1pHZs7BLNNWpqamQ9GnPRrVu3iKjDufGbnEu0bWYWRw8wk0k7YjNrAdt8c/C3q3LVsLDBtrt5C8LBIfvHfBd4xu467vmYZ29X+XCcH+eRc9uLxGb4sdfxgut5GSeoomQ18q3w94FvDulbMBgyHwxvm105FMD3DcfbHVZI9ff3SzqEiXhRcKRMDRRioYk4WjZgibwE/W6XLl0qzz+clvHDR0EUwJuRMj9+T0i5kf4mFlEc0CaAsopjsW39zF9FUZTpRwVUBiBvEDlJJK8ZAwQM+gsYIQMfmwHxwhwT2ZYl/nA4ZGwjIyHq6++jkVBImrBhGzVAKM11SzgnDHCMW4/1Q5NBKZ20V7GXY8wafh8yVERLc4x4j8FEW5RQmnWpHeKzYiGrDhwf5WHnpGAvnBu/yU22KJP5xVwP55ZrsVgyM66bbbkvG8YJT9ZWgjEOEIaNArmOzfQt3nVFUU4cfKJIA1wNlHynvITB7fcFbOGIcQCFNMeOHZM+ohhsB2LKjfqmJAbpPVovOMEEIQoBijS9rKyM0/dSfsYsi/g5451IAmj/yjZ2SHkfb2CVXwikkyvEikWOcd44ZGwQRVGUk4IKqCzAGf1GQGHd+DlMTYqrvTE5lMuowvkVMjrekJJcPhbHxMvMzLlRX4O+PFgaENQNgCE5qAMHxJ4HXnwdjKTkDJ9YIvfEIiosCs29CXGOCYPz455Z2OD8knnzeUwmbsN4cNfiu5alnIBxAslsYK9dZSEmyHXMqqIo6QWfpklz+DtFmiBfpCmIia1dd6DGqq2tVYQUhAHEFOYcqqqq1JopBpN+Y45BCE5p9s1LDEgEsWQEUxkFcgOSBqMwCy9BUnlJF/HHpIXWV5D+ShwOgknSXziXZiqKoswSVEBlCXjLoZEQZ3LGqJCaG8nxGPaSWhNGdltECHDGiAAwPOCc2JAaGOvnBdEJpxWH4bitrMDf6JgWtRGDOTcyVdQOxV5HxIw4I/uks7HcBDsxnLCFDNlm2lEH2027xBDwOAb3NV4mbj4TCChsmfMa4emQHeznuZaiKNMOvlHXzBbr+CTjFfiYNAR1VPyP0wDUrnd2dVBnRyd1dnbQvLo6ml8/f8xxmQqa4zmRhKHFIZzQsgBC0lvLhObTQPIQedgY6AGFWHhQRirJmn32DkmTpTYe60Y8ORGl6aaiKLMNFVBZhNTUcEaFVw7NYQwIu9MKAJYUnAFagQAvm6+5AREgGYzYsCLK7BbM+XBu1AxFjBNH5FrxcXmoKaEcYfHkY4HDnrhujLjxXmtEfoW5kqzxivtd4icnNhP3uTBYwTlxFH6lloAqSuaBNCKece5NP5AiSHqFNQ7q520Uw4yyeAjk5vKWST9ia5YxYILMAxfn/LMJpJegufmozB9YVATBVCTNrTHlRWza6Gr8oZck/bUPzszRY8LgkXHqzUvjgUdknhJq/SFm2Tl/s0NRFGVWoQIqy5CMDw7/eAUvPzYGiK8NZ3M9CYdVNIWRmd3xL07m50RaKISM1Rko5nhH+Bj2xGq4JsdmtvgLaYM+Sa50MpGRItfjs0g09pxXnD1W1s2f8LUjtUfxDSxFUTIXJBfi+B9qWaQQxqUDNs1yaQPSIaQvKDQCSPtGRoK0adMm2YbIQA0NluhD5R3oZrrTFvzOYNBM64Dmd3AQeljiPtevPwU3IDcfyfpNQRKQnys1SWb0u9jfL89Mnpup+Zc8hJ0UubGnPCIcg2OxCn9GNBjvj+weWyOoKIoym1ABlaWY1w7hYUsNJTOzQsSsSoYXtiUYyfzY09Q+xc8AcbwbftbN44GAntOYS9nrmN3mRJHM2tQWmZLKiQWO+/0yH0hYGAHvVb3nVxQl23H9dtw8UkgvkGKEk0D2cjXvSMH8aO4Lf5OCyaA6gyxU+vtMkzc4CBc0hYNYAd4RQyPCyixRs4Nr5OcXiABLlDyhKR3Oi3NCHMU6r7+7Lq4JMYc+XVjiGnBmAB/+h7SZcbVq5s4NuD/s9/n85hnE/C48N4guNNvzFpChXxMejckb0DSPN+RhIg13/hJcURRl1qMCShGio4HJ5cL9COSv8U0mEzQiKtoYSYQRPBwIAe153XXgr6JHUZR0YNIpFPaYvqEu3YImcMmW1IBjG8mQ9YykTVhHzx6s+2zBkgkDkeGdr25oCPPXGXE1PAyxM2yFCMmgFfPm1cm6wfhDpID9+/dRb29PeOqIWOf1x+S0MkEt/xYRSfyDvGloiG/OpOvGT9Jn3KS7JINCqwCLRRyHQyNHG/CM4GumxOB1BLDHm+HizfMwzyj2aEVRlMxABZQyhnCMiJf3Ib+cIE90UcosjREwFk+OzUhG6z1xEtdRFEWZKkifXBrlJmzFQDum7ybD21KrzRsQUOF0kUHS5NInVOJAxLDkSJhm4Vhxso60z5suRqeF8RAxI4JkfGGCa4iw4X8YFMN4ssO9mC0TyC6wJrvFB1oKwikZAeWW/HvCClMuYw5grwQ/UVEUJSNQAaVMCy6WaaaqKMpMwWR/JlHCqkgPXjFiygksLDkMamqwZWuOjEiAyBi/vyZOIbVavGJGDJVDxxB9lAf5DXx5FjVoFmeEVKLryB2IeLKHhZe4gFvHodA9+DVymrC/EU1orghvuR5W4iDncvt4PVE4RVGUTEQFlKIoipL1hAUBL12uKHIEtVA56PNjPJ2ocupB+kaxHwRUvNE80VTPOwcfjsV2MuAKOC9LJlnKAD6sVJxYc+A3wUFAQckEg/LL7d4IkZEEeZ8ERRicx4QN+P3j9n9SFEVR/v/27gQwiur+A/h3s5s7IRfkgEAOIJwCAiJyqCB4ISrW23/7/6tUa639W88eatVqK9jWyp96/Pu3rbVata1Ha72tIAgCKiIQQI4EMBDIRS5y7PH+783MJpvNLJmETdjdfD+4ZubN+ea9eXm/zOyMjgEUERGRH+03oxZb6MGJdhVK/qcCDBXQqOhCvW5Be+2CSlHjJhFHhwBKJch5tHVY+M2rVuf/IAu5FW3YP1jTAijtJ9oeJuHl3ZbaP/VuPWNEW0ZblwoCFe1WPP12RrO8EBGRjgEUERFRF9p+U8q4ou02PkkPNFTAoY/7U8vpwZMckP+p14tr6/KurxM1wWdlclCNqdsE1Ta0AMqmB2y+9CBPbUU9Zl3un890/UKTvkH9e1T6erRgyTcQk7MEygcREbVjAEVERNSLfIMb7SESQv40DVSMq0I+07x32Xkf8KClBYhy9F/nxjZ8MEgiIgouBlBERES9LFBw48sIj7Qh/xhHXTnqTuDj/dXOW/GIiIKPARQREVEI8P11zMCHiCh0MYAiIiIiIiKyqONjfIiIiIiIiCggBlBEREREREQWMYAiIiIiIiKyiAEUERERERGRRQygiIiIiIiILGIARUREREREZBEDKCIiIiIiIosYQBEREREREVnEAIqIiIiIiMgiBlBEREREREQWMYAiIiIiIiKyiAEUERERERGRRQygiIiIiIiILGIARUREREREZBEDKCIiIiIiIosYQBEREREREVnEAIqIiOgEEkKguvEruNzNRoo1arm6pv1ocR4xUsJHpOVZ7VdXmlqrtH338i7ju2ygtIr6zcZYZ2bLhAK1Pyxj8/L0/amoYZZxeAmrACrSCsrKicCT0Rq1XLiejJGWZyt1ivXaGrVcuNZr6p5d5a/Iur3FGLOm1VWHjXt/i6OtlUZKeOlvea5p3IntB1+Cy9NqpFhzsHY9isteMMbCC8vYGpZx+Am7K1A8Ga3hyRheWK+tYb2mSGSz2TA5/1bsPPR3GSzXGqntAv1BoKJ+E9ITRyM1odBICR/9Mc/ZqVMRZXOgumGbkdJO5dcszy53E8qPbMDowVcYKeGDZdwRy7hdOJexl01mzjx3IUr9BXfNrgdwauEPERudYqTqVFZUYfr7uvoj2WHbg/G535LTQydmDLS/vjzChc9Ll2NYxhxkDpjYtox/sXnT1E91Mn65/xkMSZ+FrAGTjDk68l1PV/vQ1yKpjK1ivW6vj768aeon63X41Wvqnm1lf0a0IwVD0mbiK9khcboajSnqvPDWDxuyUqYgM3kiVn11N2YXLZH1KdmYFn4iJc9W25yK+i+xs/xVzBj5U+w5/BaqG7fLZVVbp0/3DsfYk5E36Bw0t1Zj9+FXMa3wx3DYY/SZ/IRyu6ewjFnGushqu8IugFJ4MvJk1LEjwXrdEes1hbOvqz/Gxn2/RaurAS3Oalkr3DK1vR4L+c8m/0XbE+U5kICRmYswMvtixEWnGnOEn0jJs9U252jLYXyy+xHUNu3R/mLvFs1GW6cvq9ajsm8TUYiLSdPav8n530fWgMky/7HaPP5Cvd1jGbOMI7HtCssAiicjT0Z2JFivzbBeUzhye5woq1mNtbsf0q60WmVDFHJST8UpBbcjKW6wkRoeIi3PVtqc6oYdWF/yKKoatsqx9nbKd1mzNNUeFAw6D1Pzb5Vpna9Emy0TCljGLONAwrnt8rLfLxnDIU8VlLqlZc3uB9DUWgmX56hMVfFfx8qkOiCKRzhlgR7F4bqNOHJ0NwYln4QYR2j9JberE0GdjGt2/wyH6z+HU+ZF3frkXcZ3We3EUt0xTzNaXLWyQn+MZlcNBssKGmgbZus50SKxjLvCes167RVJ9ZqscXtase3AizKwfkIr8+7RHzJyuP5LDE0/UwbdcUZ6aIvUPAdqczzCjYO1G7Bm18+0Pxj5nvdm7ZV/mmoPqhq2yTawHpkDJsEeFa2l+zJbz4nEMm6fz6xs/NNYxuHRdvkKmwCKJ2P7fGYnkX8aT0Z2JE6kQHWK9br//ZKhYys5/LasG8tlPWlGrCMV+RnzUd+8X9Z1lzFHZ+qv0GmJI5CaMAKNLQfQ5KxERd2XyEmdJgPtJGOu0BWpeQ7U5qg2a61s8xpbD2rjw9LnIsoWo+XBrL3yDqsr1MMy5sq8u9HqqkVlw1Y0tRxGbvrsTtsyW8+JxDJmGZsJ97bLV9h8K7m04j1s/voZON0NWkENH7QQjqh4Y6o5VVCpCcORnXKKVuHUdyxWbr9LFtohY47QVd2wHet3L9EqmKJOxrSEUdrwsaiKqzpayXFD5ZjAjvKXsWHPo/JYePQZQlh/K2OF9Zr12ky412uyprK+GJv2PyXrt/40yixZ3qcU3o6UhCJtPJC46DScNvxenJz3PbmsE+rKpXq8/7o9j2h1J5T1tzy73a34ZPdDbR3r+JgsTBr2XRQMWoCoKPNbkb3yMs7GtIK75M+zZB7dWp73VLwl25M/hnSeWcYs40DCue3yFxZXoFRBrZcH1+mul2M2DEmbjenD70bZkQ1oag3coVAFdXrRL7T7LL8q/yuibHatA1LXXIr8geeERBRvtg/qZFyx/TbUt3wtx2zayThzxP2wy07XobrP1RzafL7LeofzMubLk/FOuDxNct7PZHqU9shom8y7+ou92TJm+9DXIrmMA2G9Zr0OJJzrNVn3+d7lqGxQj7bXy9PpbkRsdCr2Vr4Nt9ExMeP2tGi3tKq//Ornjl7fm1oq5fkwPqS/UxDJeTY7L7869ApKZN68+VVXGRJjM2WncSNqj+5uW8Z3We9wY0s57PZYOV+JPPf3amlqWrOzWnZYT5btRLqWppit50RhGbOMAwnntstfWARQPBl5MgbCjgTrNes1haOm1hp8Vvpr7a+wXqp+fF2z6ph1w6uuqQTltRvkUHs9V1dqVbCdm366kRJaIj3P/m1Oq6sRm/b/Dkdby40UNU+Uloe65n3GuL6M77LeYXV716G6T1HbVKqNe6l2T12hzkgaa6SYr+dEYBmreVjGxxKObZeZkL+FTxXUgSNrjDHd0dZD+GT3w2jV/qp7LAL7q/+NL/Y9YYzrXLJTUlLxjjEWWtTJuK9qhTGmUy9lU9+fUJXTt8KZUU8y+3L/09gn8+2r9ugeHK77whgLLf2tjBXWa9brYwvPek3WbTv4Apyu7n4nzpc6ZzqeN6pjVdu0Hw3NoXmrZ3/L89fVq1Gl/QHleHRuG1UH/XDdZtlpbTZSQgfLuCdYxqHedpkJ+QCKJ2NP8GRkRyK0sF73RPjVa7Ku1VUnw+Tgf4evunEbGrTbZENPf8uzetqmuprcG8pqPkJ3HhvdV1jGwcMyDm0h/x6oT3b/ArsO/UPrOARTlC0ac8b8GtkpU4yUvqcOvX++vip/Fev3LNE6hma8y/gua5ZmxhEVhwtP/jviY9IsL9MXIrmMA2G97sisPlqto6zXFI6Ky15A2ZHVxljwqC+iT867BQOTxxspoSOS82zW5nxdvQrbDv7FGOvMrL2y2oapW57OHPUoYqNTLC/TF1jGHZmVjdXyYhmHtpAPoHgydmR2EpmlmeHJGDpYrzsyq49W6yjrNYW6PRXvoLqhGA57PAoGnouUhHwcOVoK9U6wYFPvTUtPLEKcPB9UAH/kqHpdgBuTht3cp4/B72953lu1AhV1GxEVFa09MXSQPD/Vy8Jrm/TvwZgxa6+stmEqz1nJE2G3x2Br2XPyuFYhyhaFCUNv6LM8s4xZxsEUKm2XVSEVQPFk5MkYTKFyMrJes14HU6jUa7Jmz+G3saHkUTg9R6Hevh8XPQALJ/0VX+5/BiUVbxpzBY8KsGeP+jkaWsrxqfqit6dVO4fUY5JPKbxDbj/VmLP39Lc8l1a8j/Ulv0Sru1bm16a99HrumN9o5+bnpcuMuToza+PM0syoPxxdMOkvsg14XbZ7f5KtgltbpmDQuZiSf6vWPvQmljHLONhCoe3qjpAJoHgy8mQMNnYkWK9Zr+lEW/3Vvdhb9b4caq/DF538Ny3Y33X4dSMleIQ8H04f9Qg27v2trCP6e2kU9c40VW/yMuYaKb2nv+V57a6HsPvwvzq0U2eOfhRHWyuwfs9SI6UzszbOLM2MegLavLFPyG0/KLejv6xVLSPXgDNGL8HQ9DP0GXsJy5hlHGyh0HZ1R8g8ROLAkY+1L+OpTpeqHM3OWu2LauoxvuqJVcH/1EG92LK47FmtA6Koyqkqi/exwb3pYO0nMn96J1NpddVrj61UJ4z5/gbjU4e6pr2yEfiH1un0Kql4CxX1vf8ks/5WxgrrNet18D8nvl5Td6h6oZ8PXk5PgzHUO1SQfaRpuzHmpXe8+kZ/y3PHvCrqHO1tTtkWNLT4X9nvyzyzjHsby1jpq/x2Twg9hY8nI0/G4GNHwqsvy7gj1uvgC6dfMkRERJEm5B9jTkREREREFCoYQBEREREREVnEAIqIiIiIiMgiBlBEREREREQWMYAiIiIiIiKyiAEUERF1W2NrPf65+Rks/+hO/M/KO/DqpqdQ31xjTA1Mvcdkbclb+N2a+7BsxW340/pfYFfFl8bUwL46vFGbVy2jll2/9z1jChERUd9iAEVERN32r61/wL93/hW7KzdjT9UWfLT7Nby++XfG1MB2VmzCyxsfR3H5epRUF2Pj1yu1gMjlcRpzdNbsbMT/fnyvNq9aRi37l89+hX3VO4w5iIiI+g4DKCIi6raSyq3GULvSqmJjKLCSqs7LtbqbcbC21BjrbF/NTrh9XpLspYIpIiKivsYAioiIuq3F1WQMtWt1txhDgZktp6ggKpDWAMs4LWwvNHV+4XTk6295ZhlHPpZxfxbiARRPxsjHPEc+lnEkSopLNYbaJcV2TvMXaJ7kYywbeJk0Yyh0Rdkc8v9CH9EIxNhTjOHeEWWLRk7KGXKofbv2qDjYbbHGWO/qb3mOstmNIa/ez68SFz0IGYmTjDGdynNUn+SZZcwyDr4T3XZ1R8gEUDwZeTL2BnYkdKzXvae//pIZnzPdGGo3YfAMYyiwMdlT5f53/NWTlTwMg5JyjbHOctNGYEBcujGmi7bHoihzsjEWugoHnS/rgzcAFMhOmYo4R+/WD7s8NpPzbkZCbLaRIssm90a57VOMsd7V3/KcP/AcxMdkGmMC6YmjMSB+qDHee5LjhmDSsG8jxpGsjat2YdKwm5E1oPfPC5Yxy7g3nOi2qzvs90vG8AkVbU9EWc1auIW6JUMvqBGZF+LAkU9Q3dgbXxT2YHjWBfIX82wcrF0Pp7tRS5049LvyRJmHqCjVKeo9Kr8HazfA5Tkqx/STsSh7ERpayuRx+FifKQCbTf/rtvenYpbmT8g8nzzsu0iJH6YdV49o1U7Gk/O+h2EZc/okz/2pjBXWa9br4Dvx9VopyBiH/PQxMvgZipGDJuGsoiswLf/sY5aVoq40TRoyWwa8OXIdY7VlFo6/TnYQAgd/KjCfOnSuFmQNTSvCRLn8ogk3yvqVZcwRupLiBmudnbyMs1CYuQAjsy5CTPQA7XzorfpRMOg8ZKVMltudop0DhYMWIG/gHDhk56Qv9Lc8J8XlyPNgstzuXJnf87X8JsmOb3Xj9l5t98YO/g+kJ43Wj7U894fLPA/NOL2P8swyZhkH24lvu7rDJtQzZUNEZX2x1hmw2aJkZyhPRvsDsW73Euw6/LoxR/AI4cLcsY9jcOppsiLsRIvrCGyIwqDkk2CPijHm6l1V9TvQ6q7TTqCk2BztZNx56DWs37PUmKMzVVxqfu/PQGlmPMKJS6e+LY9rhjzWW+GUndwoODAweVyf5bm/lbHCes16HUyhUq/p+PRW/fDI+nGWUT9CTSTn2ayd6t12r1W2e+9o7Z7VZfoCy7gjs7KxWl4s49AWUt+BGpg8FjmppyA7ZYrWAelNvlFjeuJI5KTo2+3LDkh6UpGR36laJ7P3tec6I0kea5nnzAGT+jTP/a2MFdbr3sZ6fSLqNR0fFfirzlCwxUUPRIx9gDEWWvpbnoVwa5/ekBw7DPrtw6GFZRw8LOPQFvJP4ePJGDw8GUMH63XwsF5TOJqafzuyZOArhMdIOX42+W9C7vXa1ddQ1N/yXDjoAowb8p9Bb/tiHQMwbfhdiI3u3e+j9ATLODhYxqEvpG7hM+N0NWHFjjtxqPZTqNtjgkEV1JT82zAq5xtGyomhDr3/pViXuwWbv34GW8ueldP8v5DfvozvsmZp/tTJOGPk/Ricqn/x28oyfSWSyzgQ1uuOzOqjlTrKek3hrLGlHOW1G+SQXj8+K10Gp7teG1YSYjIxYei3jTFg24G/oLZpjzEm67v8l5MyDfkDz9bG1XfF8gedo9WTUBWpeQ7U5rg9TpRUvCWn6e1eaeW7Rv7blxmdcxVSEwq1tLqm/dhx8CW4PM1t61N5Vt+FSYnP18bVLV05qae25TmU2j2FZcwyjsS2y1/IB1AKT0aejOxIsF4rrNfh90uGrHvls4vQ1FphjEGeCyOwYOKfjDHg38U/wMHadcaYXj9GZ1+OqQU/MFLCT6Tk2Wqb82nJb7Cj/GVt2LvM3DGPae2YcrhuE1ZsvxOtrvoO7d68scu1W3XNhFq7549lzDKOxLZL/60e4hJjszE8c6H8LNA+DnucMUUX4xjQNk19EmIGGVPaqQ6Xd3rBoHNDugNij4rGiKwL2/Y3Jb7AmNJucOq0tulD0k5DlFzGn/qrvHceNRzKee5vZaywXrNeR2K9JiIiinRhEUARERERERGFAgZQREREREREFjGAIiIiIiIisogBFBERURgYEK8/YKWN0L+MHcn6W57VKwrio/2+CylUfiM3zyxjiWUcdiIygOLJKPFkjDis1xLrNUWwuOg0Y0gXF51qDOkK1UNEtKdYqlohECun56adrk8MU/0tz7GOZNnxan9vXbQ9EVE+L8FOjs9FZsokOdT+sJgs9VLy2FxjLPywjFnGkdh22e+XjOGwUVL5DpqdVcaYelxioSyc84wxVXDp2F3xTznkkcUkK7MsqPFDrkVy3GBteiix8jjKqoatqKjbLPOiv7QsxpGkPY0rKTZHG4+W47XNpahu2C7XpyVpLzkbPugCbd5AvNsOxUdiRlIZW8V6zXodifWarFNPlfR4XEhJKMCg5AmYWnB7hyc3qsf2pyUWwW6Llj9HYuzgq5CbPtOYGp4iKc9W2pyslMmwRUUhMSYL6YmjMG7IN5GTcmp7uyW73ip/6hHXKfF5GJg8HhOHfhsDZKf7WEK53WMZs4wjse0Ki/dA+VPvVikuex4uTxMcUfE4aej1naLdr2tWY3/Vh1onJDdtFoZlzNEnhJDuPM9/S9mzqG/aL4dsstLNlnma3basdz3q3QNOdwPsUbEYlX2ZrMj6u3LMeJfpzj70pUgp4+5gvWa9ViKtXhP1Bz1pc8zaq560YT1ZhrqvJ8fXrGx6Ul49WYZ6V1gGUJGiJyeC2UlkltaVnixDZEVP6pRZfexJHe3JMkRERETdwQCKiIiIiIjIIj6Fj4iIiIiIyCIGUERERERERBYxgCIiIiIiIrKIARQREREREZFFDKCIiIiIiIgsYgBFRERERERkEQMoIiIiIiIiixhAERERERERWcQAioiIiIiIyCIGUEREREREFLYqKyvR0tJijPU+BlBERERERBS2oqKisGzZMqxevbpPAimbkIxhIiIiIiKisPPiiy9i+/btiI+Px4wZMzBt2jTExsYaU4OLARQREREREYW1DRs24F//+pcxhl4NpBhAERERERFRWDt06BCefPJJY6xdbwRSDKCIiIiIiCiseTweLF26FM3NzUZKRyqQOu2007RAKi4uzkjtGQZQREREREQU9p5//nns3LnTGDMXjEDKUgDV2NiI+vp6Y6yd1diL85mLhPkiIQ8K5zMXyvNFQh4UzmculOeLhDwonM9cKM8XCXlQOJ+5UJ4vXPKg4pWmpiZtuCsqePLe2tfdQKrLAOqdd97BJ598YjkDRERERERE4UAFT+qK1Kmnnmo5kDrme6Bqamqwdu1aBk9ERERERBRx1Hem1q1bh+LiYiOla8cMoFQUZrPZjDEiIiIiIqLIkJCQgPnz5+PWW2/F5MmTjdSudXkL39atW/Hee+9Zup/QarDF+cxFwnyRkAeF85kL5fkiIQ8K5zMXyvNFQh4UzmculOeLhDwonM9cKM8XqvumriSVlJQYY4GpwGnmzJk45ZRTEBMTY6Rax6fwERERERFR2FPvgVLvgwrkeAMnLwZQREREREQU1tTdckuWLDHGOgpW4OTFAIqIiIiIiMKaev+Teg+UL2/gNHXqVMTGxhqpx48BFBERERERhbUPPvgAq1at0oZ7K3DyYgBFRERERERhy+12Y9myZXA6ndrLcdWter0ROHkxgCIiIiIiorClnrxXVlbW64GTFwMoIiIioj7mqtiElesOIH7cbEwvSDr2izkjjgsVm1Zi3YF4jJs9HQVJ/SD3rgpsWrkOB+LHYfb0AoRqllsObcGnO44i++SpGJ7cv2pld/DIEBERUeRrrcG+3XtR1eIxEk6kFux4+krMW3g+zrltBeqM1H6jZQeevnIeFp5/Dm5b0ce599Rj698ew0OP/B9WHnQZib2vZcfTuHLeQpx/zm3o6yxbV4P3bpyOWWecivMfK5a1lAJhAEVEREQRrhEf3zoeeSPyMeJb76LWSD2hjBuA1I/+eCuQnn2h/etTR97DD665Dff+6Nv49pNb0Wwk9z4jpyFe4MJj7Jz3J5liAEVEREQRzgNXq361weV0h3L/lXpb7GBMKFTd3wyMGTUQ0XoqUbcwgCIiIiKi/iFxOn65TQbRohKvXzMEdiOZqDsYQBERERH58bjd6PtvS3ngdvdgq56u9tUDV4urR/np7nHwuFrgCuKBC/b6eoPH5YLbGO4tPT8Osk4dczl3j/Zd5bn7u9PVvoQPBlBERETUb7n2PodLRw3B6CtfwoGj+/DmQ1dgalY07A4H7DG5mLn4aXx6pBu9vpZ9eHvptTizKA12mw02Wyyyxs3HDY+vRLnpMwsEWve9jYevmIoshx0O+YnJnYnFT38Ks8367u/+ijV49JIixNnlvjrycPUrh9o7tZ4j+OK5u3HJ1Fwk2uyIjpN5siVh2LTLcM9LW1Hvt+6eHwcPjnzxHO6+ZCpyE22wR8ch2m5D0rBpuOyel7DVf0Nd6v763NXr8PT3zsG4zFh5vOUxtycjp2AERo4cqX/GX4j/2W48EsG1D3++bBQGD5uBH33SqKf5slJ+LQew4snbcemMEUiPUfsYDYctBpknXYA7/rwVDd3NsqkeHFfXXjx36SgMGX0lXtpfgTWPXoKiOFmnZP3Iu/oVHPIu4qnHlufvwIJxGTKPDrnv8cg740Y8vf7IMYIpN6rX/x9uvWAisow8220pGDHnRjyxtqLzclb3JVypx5gTERERRa46seL6TPXVJ5G06A1RY6QqzVseFKNUFFPwLfGdWcnaPLa0fFGUn6oNq0/i/KfErhZjgWNpKhbLz0szlosRQ8ZOEVPG54p4bdwmJi8tNmZsFlseHKXNZx+9QExP1aen5ReJfG1YfRLF/Kd2Cf/Ntu3viOvE4snRxrz6Z8Jju4RTzeTcJ16+trAtPSl/opg2fbIoyvDO6xAT7vxQVLm1VWp6dhycYt/L14pCYzqS8sXEadPF5KKMtmUcE+4UH/puSGneIh4cpaYniov+WW0kKt1fn7vmI3HHWJs2zT5sprjoyivEwum5wt62jnQxcOgcsXRzk75AwG1LlspP1qXFOcY8yaJwyhli/tlzxJS8OCMtVVz05316OfhoO76JFwn/zXZ2vMd1hLhu8WQR7V1efSY8JnZpO9UgNv5ilojzridzpBgzfKCIUuO2XDExR08v+umXspZ6OcXeF78l8o1lsqecLRZderGYM857rEaKm946JFzG3BpL+xK+GEARERFRhLMQQGmfIWLRY2tEpdYTbBGlL14jso30W9Y0aPMH1iK2/3qacKj5B8wXv9pQI7zd26bSt8SDC0aIiT/cYKS0B1DaZ8gi8diaSr0D2lIqXrwm20i/RfhvtuP+JokzHvhQlDvdoulgsdhWpXqlTlH6+7NFgppuHye+90ppe0fYVSlWPXymSNSWzRXfXVlnTOjZcXCW/l6cnaDS7WLc914Rpe0bEpWrHhZnJurry/3uSlkCPgIEMd1fn1Ps/p9pWuffMfXnYmPbrskg4edTtCAq+YIXRJlvzz5gAGW1/OrF2vsWiSvueUFsrPJZseuwePumYdr+YeIvxXa/yLc7AdTxH1f9k3TGA+LDcqdwNx0UxduqtKCuZcdvxHSHmh4jTrlvpVHGLlG1/rfi8rz2ZX0DKOfeP4pztW1micuf3SmMUFRGr3Viw89niFi1zNBbxMf1RrpiYV/CGQMoIiIiinBWAqiB4pI/7ul4xadlu1h6kt4BnPib3cfu9DWuE7dpHVC7OHV5F/P6BlADLxF/3NOxt92yfak4SdunieI3uzuuyTfQyfvOu6LS7yKEaN4k7ivSp4++74v2zq6Xc7d4YoZDmz5g0T9ElZHc/ePQLDbdV6SlYfR94ovOGxK7n5hhBCSLxD+8G1JMg5ierK9avHa+uvLjEKc/d7At4FHc+/5XTFXzqoClY4GbB1DdKj9zTZ//SL9qlHKpeNN3m5L1ACoYx1V+8r4j3u1cOcSWh8bo00f9VGxqC8x0zr0viquz9eXbAyi1zFgtLeG8F8QB/1XWrxI3DVbL5IgbPvKJoLrcl/DG70ARERERJc7EtRcWIMYY1cRk46Qxqdpg3YFqtGpD5lwHVuO9vWpoHK44ZxhkB9eSxJnX4sKCDluVmz0J+mbrcKA6wFZj52HJ/Wchw68n5zrwEd74Sg2NwtWXj0aclurDkYdzr5qgDdZ99iF2HtUG21k9Dq4D+EjfEEZdfTlGd94Q8s69CtqW6j7Dh5025KdH6xNwtapv39jgiLF3+GK/DKG03rtVPS0/X44BWUhWA011aO7pd3yCclxjMW/J/TjLv3LgCDa9v0sbKly0EEWx2mAbx7CzceUpCcaYwXMYa/+5TRsce/EsZPmvMqkIswptcuAgNu6obf8OXptA+xLeIis3REREREEThbhE/U1BqqN+rA55c/lXqFQD8UMxPKMn3W8fUXHQN+tCqzvAVh2JSIzp3I1rLtuKcjUQk4dxOX49ZI0daYUFGKAGa0pReayosI3JcWguw1Z9Q8gblyO7yZ3Z0wpRoG8IpV1tqEfrS8LY+WPlTyfWPPkStnvfiuupx2fPPInP5WDUuHkYm6QnH0t3y+9o6Qd46sf/hQUzJ2BEbjYGpqdh0Ml3YpMxvceCclwdSEyM6dzJb6lCSblTG8wel9s5uDbTfAg7D+t18NMbhxkP1vD9ZOGa1fr0lromkwAqwL6EOQZQRERERMfLbTzW2R6NKPUH+RPFYzxSO8ohO7taSic2u0PvAKoOsJbSEx649A3BEXhDcOgbUpvqQk/WF4ORl92I0+yyn7/iFkwYPRMXXn4ZFkwfjekPfikDvTH4waP/gXwr8azl8nNh/98WY1LhPNz0i2fx/j4HcidMx+lzzsKcWWMQb8zVc8E+rj6EE83akwRtiLJbDQHcMN5BjcxzF+Pmm282/dxyx1I8/I2eXbkLR1aPHhEREREF4BiQCe1CR8NBHGrs6f1bx8+Rkq3fRtZcjrJarSfux4PGg/tRqwYzRiCz492D1jlSkK1vCOVltaaPv/Y0HsR+fUMY0dWGerS+I1j58INY607EtCsuxkT3Zrzx17/hzY3NKDrrO3hi7WosOT3VUmfXcvlVvYXbvv0MdooEnLl0Aw7v/Rwr3nwNr/z9b3h5+XUoMmbrsWAfV1/RA5CpZVKgem/VMW9JbeNIRY52tQvIXXgPHl++HMtNPssevRMX5PW0MoUfBlBERERExylu2CkYpV1+KMY/11XpVzNOgLhh0zBe6yQX47XVhzp3wD2Hseqvm7Tb8NKmz8UIv6+8WBY3DNP0DaH4tdU41HlDOLzqr9ikbwhzu9pQT9bXsAl/eaMcSJiDnzz5Kjbsr4NHPSDNWYXt7z+Jm6anw64v3CWr5Xd014dYf0QOJM7HbYunIiXYPelgH1df9oEYe1KGNrjr3fWo9Muk50gxVu/w+05VTDamnJyuDe5873NUn7i/DYQUBlBERERExyttBq6dry4d1OP1ux/Eu4d9er7Ne/DaXfMw6441RkIvSpmB6xakyYFmvPfDH+PV/b7XGVqx7+934/Y31QtkC/Bf358F/dEQPZGCGdctgLal936IH7+6v8MVjdZ9f8fdt78JbUv/9X3M6nJDPVifI0W/OnL0Ddx0yXW46/6fY+mvl+GJ//09nnvxdXzwRRmOWu3wWyw/e2KK/t2hxv3YVeGzh81f4YV7fnn834EK+nH1lYzJV87Tyrz1wwex5MP2QNFdtRq/uOR8LNWfX+EjBVOvvwTZcqj+tbvwwDsmQbmrGts/24XafhRcMYAiIiIiOl5RWVj4yIM4XfWudy3HeSMn4Owrr8X11yzA5KHDsejRD1DapH/ZvldFZeC8Rx7HNzLlcNmzuKxoPM666gbc8v0bcdXcsRh5+Z9QBjsm3PVH3DstUV+mR6KQcd4jeFzfEJ69rAjjz7oKN9zyfdx41VyMHXk5/lQG2CfchT/eOw1db6kH64ubgNt+/xOc7AAOrPgDHn3gJzK4+G/cfOP1+NZVF2PeyblIG3MVnthUH/CKUhuL5Rc74mJcPV4t8DluO/ti/PfDv8YvH/geFk4cj//8yyH09IJeu2Af147Szvop7p2lHk2xG8vmjcfMS67F4mvOxcTC2bjnw2icNjdHn9FHyuwHsPybQ+TQLvz2/JGYtOB63H7P/Xjgvrtw01XzMD4rA2POvBOr6vT5+wXjceZEREREEapBfHzzEBW9iNSr3hVHjFSlZdsSIfvDAqmXi7d8J2jqxarvDNaWK7z7087vVOrELWo2LBffmpSiLdP2seWImTc8LTZUe9+F0yK2LRmv78/lb3XYH039KvEd7d06heLuTztu9dj726655DVxz4IR+ktOfT627Bli8VMbRNuuGHp8HJpLxGv3LBAjYjtuB7ZsMWPxUz559tGyTSwZr+ZLFZf7b6w763MdFK9fn69Nz1n0a/GPD94Xb73xmvj7y8+L3z9+j7h6Yry+7PA7xfpGY5ljbdti+TXvel7cOKXjPNH554v7Xntf3D9ajicsFK/7vevJarm1CfZx9eE69G/x4Hm5HdYbXXCeuPefpWLfc7O1FxOPeXhrx3eBOcvE2z/7hhg/oH2ZtmWHTBVXPPxvUe77wmKL+xKubOp/MvNEREREkcvTjJqqo4hNT0dChy/GeNBcU4E6RwYyk02eIeZqQFVVC+IGZiDR6hdq4Eb9vq3YUlINd9JgFI0vQqb/86jV/lTUwZGRCfPNVqGqJQ4DMxL9vsfTxf76cdWUYEtxCSqbHUjJHY0JozJNH4193MfBVYOSLcUoqWyGIyUXoyeM6pxnH57mGlTUOZCRmWz+5DYL6zu64S6Mn/YoSnJuwL+Ln8Ycv9vZ3Pufway8xfhETMKyPRtwS4G+pS63baX80IqaPZuxZW89orNGYdLoHMTJyMPdWIVqZzIGpfo/UKF75dYm2Me1jQcN+zbji901cGQWYcKYwUhQ96V5WnCkshExGf7nicFzFOU7tmLXwVq0Rqdg8MhxKMpOML2lzfq+hB8GUEREREQUdqpePhNZV6yEe/JylKy/Gfl+Hf6WrQ9h0vh7sT12Pl7a9y4uV3fFEQUBvwNFRERERGEncfgMFKqBz+/BtT/8Az7YvA9VtbWoPrAdH7/8EK658D5sl5OzrvhvzBmoZiQKDl6BIiIiIqLw4zmCdb/6Ji696w18bSR1FIex33wcLz6xGCcl8ZoBBQ8DKCIiIiIKW67qrfjwjXexZuteVNS3yrgpFTnDJ2L2eQswqzCJt1tR0DGAIiIiIiIisohBORERERERkUUMoIiIiIiIiCxiAEVERERERGQJ8P89hU4rDEibcAAAAABJRU5ErkJggg==;" vertex="1" parent="1">
          <mxGeometry x="40" y="196.95000000000002" width="389.62" height="170" as="geometry" />
        </mxCell>
      </root>
    </mxGraphModel>
  </diagram>
</mxfile>
